Hack-Regular.ufo
<glyph name="exclam" format="1">
  <advance width="1233"/>
  <unicode hex="0021"/>
  <note>
	exclam
  </note>
  <outline>
    <contour>
      <point x="481" y="1053" type="line"/>
      <point x="481" y="1498" type="line"/>
      <point x="746" y="1498" type="line"/>
      <point x="746" y="1053" type="line"/>
      <point x="679" y="486" type="line"/>
      <point x="558" y="486" type="line"/>
    </contour>
    <contour>
      <point x="523" y="-60"/>
      <point x="454" y="9"/>
      <point x="454" y="113" type="curve" smooth="yes"/>
      <point x="454" y="216"/>
      <point x="524" y="284"/>
      <point x="616" y="284" type="curve" smooth="yes"/>
      <point x="708" y="284"/>
      <point x="778" y="217"/>
      <point x="778" y="113" type="curve" smooth="yes"/>
      <point x="778" y="57"/>
      <point x="763" y="19"/>
      <point x="732" y="-12" type="curve" smooth="yes"/>
      <point x="701" y="-44"/>
      <point x="662" y="-60"/>
      <point x="616" y="-60" type="curve" smooth="yes"/>
    </contour>
  </outline>
</glyph>
<glyph name="asterisk" format="1">
  <advance width="1233"/>
  <unicode hex="002A"/>
  <note>
	asterisk
  </note>
  <outline>
    <contour>
      <point x="250" y="486" type="line"/>
      <point x="492" y="857" type="line"/>
      <point x="128" y="1015" type="line"/>
      <point x="164" y="1118" type="line"/>
      <point x="540" y="995" type="line"/>
      <point x="560" y="1420" type="line"/>
      <point x="668" y="1420" type="line"/>
      <point x="688" y="995" type="line"/>
      <point x="1064" y="1118" type="line"/>
      <point x="1100" y="1015" type="line"/>
      <point x="736" y="857" type="line"/>
      <point x="978" y="486" type="line"/>
      <point x="884" y="419" type="line"/>
      <point x="614" y="776" type="line"/>
      <point x="344" y="419" type="line"/>
    </contour>
  </outline>
</glyph>
<glyph name="period" format="1">
  <advance width="1233"/>
  <unicode hex="002E"/>
  <note>
	period
  </note>
  <outline>
    <contour>
      <point x="522" y="-27"/>
      <point x="451" y="42"/>
      <point x="451" y="142" type="curve" smooth="yes"/>
      <point x="451" y="242"/>
      <point x="522" y="311"/>
      <point x="613" y="311" type="curve" smooth="yes"/>
      <point x="704" y="311"/>
      <point x="775" y="242"/>
      <point x="775" y="142" type="curve" smooth="yes"/>
      <point x="775" y="42"/>
      <point x="704" y="-27"/>
      <point x="613" y="-27" type="curve" smooth="yes"/>
    </contour>
  </outline>
</glyph>
<glyph name="eight" format="1">
  <advance width="1233"/>
  <unicode hex="0038"/>
  <note>
	eight
  </note>
  <outline>
    <contour>
      <point x="460" y="-29"/>
      <point x="343" y="12"/>
      <point x="260" y="84" type="curve" smooth="yes"/>
      <point x="177" y="156"/>
      <point x="131" y="260"/>
      <point x="131" y="400" type="curve" smooth="yes"/>
      <point x="131" y="612"/>
      <point x="240" y="749"/>
      <point x="440" y="793" type="curve"/>
      <point x="359" y="813"/>
      <point x="287" y="855"/>
      <point x="239" y="915" type="curve" smooth="yes"/>
      <point x="188" y="978"/>
      <point x="166" y="1053"/>
      <point x="166" y="1137" type="curve" smooth="yes"/>
      <point x="166" y="1250"/>
      <point x="206" y="1345"/>
      <point x="287" y="1416" type="curve" smooth="yes"/>
      <point x="366" y="1484"/>
      <point x="473" y="1520"/>
      <point x="616" y="1520" type="curve" smooth="yes"/>
      <point x="759" y="1520"/>
      <point x="867" y="1484"/>
      <point x="946" y="1416" type="curve" smooth="yes"/>
      <point x="1026" y="1348"/>
      <point x="1067" y="1253"/>
      <point x="1067" y="1136" type="curve" smooth="yes"/>
      <point x="1067" y="1045"/>
      <point x="1042" y="975"/>
      <point x="995" y="916" type="curve" smooth="yes"/>
      <point x="948" y="857"/>
      <point x="881" y="816"/>
      <point x="793" y="793" type="curve"/>
      <point x="994" y="749"/>
      <point x="1102" y="613"/>
      <point x="1102" y="402" type="curve" smooth="yes"/>
      <point x="1102" y="262"/>
      <point x="1056" y="156"/>
      <point x="973" y="84" type="curve" smooth="yes"/>
      <point x="889" y="11"/>
      <point x="768" y="-29"/>
      <point x="615" y="-29" type="curve" smooth="yes"/>
    </contour>
    <contour>
      <point x="777" y="868"/>
      <point x="866" y="954"/>
      <point x="866" y="1114" type="curve" smooth="yes"/>
      <point x="866" y="1275"/>
      <point x="780" y="1364"/>
      <point x="616" y="1364" type="curve" smooth="yes"/>
      <point x="455" y="1364"/>
      <point x="367" y="1277"/>
      <point x="367" y="1114" type="curve" smooth="yes"/>
      <point x="367" y="954"/>
      <point x="455" y="868"/>
      <point x="616" y="868" type="curve" smooth="yes"/>
    </contour>
    <contour>
      <point x="707" y="129"/>
      <point x="777" y="154"/>
      <point x="826" y="205" type="curve" smooth="yes"/>
      <point x="875" y="256"/>
      <point x="899" y="327"/>
      <point x="899" y="418" type="curve" smooth="yes"/>
      <point x="899" y="517"/>
      <point x="872" y="586"/>
      <point x="825" y="633" type="curve" smooth="yes"/>
      <point x="775" y="684"/>
      <point x="705" y="709"/>
      <point x="616" y="709" type="curve" smooth="yes"/>
      <point x="526" y="709"/>
      <point x="457" y="684"/>
      <point x="408" y="634" type="curve" smooth="yes"/>
      <point x="361" y="586"/>
      <point x="334" y="514"/>
      <point x="334" y="421" type="curve" smooth="yes"/>
      <point x="334" y="330"/>
      <point x="359" y="257"/>
      <point x="408" y="206" type="curve" smooth="yes"/>
      <point x="459" y="154"/>
      <point x="531" y="129"/>
      <point x="619" y="129" type="curve" smooth="yes"/>
    </contour>
  </outline>
</glyph>
<glyph name="colon" format="1">
  <advance width="1233"/>
  <unicode hex="003A"/>
  <note>
	colon
  </note>
  <outline>
    <contour>
      <point x="529" y="776"/>
      <point x="458" y="845"/>
      <point x="458" y="945" type="curve" smooth="yes"/>
      <point x="458" y="1045"/>
      <point x="529" y="1114"/>
      <point x="620" y="1114" type="curve" smooth="yes"/>
      <point x="711" y="1114"/>
      <point x="782" y="1045"/>
      <point x="782" y="945" type="curve" smooth="yes"/>
      <point x="782" y="845"/>
      <point x="711" y="776"/>
      <point x="620" y="776" type="curve" smooth="yes"/>
    </contour>
    <contour>
      <point x="529" y="60"/>
      <point x="458" y="129"/>
      <point x="458" y="229" type="curve" smooth="yes"/>
      <point x="458" y="329"/>
      <point x="529" y="398"/>
      <point x="620" y="398" type="curve" smooth="yes"/>
      <point x="711" y="398"/>
      <point x="782" y="329"/>
      <point x="782" y="229" type="curve" smooth="yes"/>
      <point x="782" y="129"/>
      <point x="711" y="60"/>
      <point x="620" y="60" type="curve" smooth="yes"/>
    </contour>
  </outline>
</glyph>
<glyph name="C" format="1">
  <advance width="1233"/>
  <unicode hex="0043"/>
  <note>
	C
  </note>
  <outline>
    <contour>
      <point x="555" y="-29"/>
      <point x="404" y="37"/>
      <point x="297" y="174" type="curve" smooth="yes"/>
      <point x="192" y="310"/>
      <point x="139" y="503"/>
      <point x="139" y="744" type="curve" smooth="yes"/>
      <point x="139" y="985"/>
      <point x="191" y="1179"/>
      <point x="298" y="1316" type="curve" smooth="yes"/>
      <point x="405" y="1453"/>
      <point x="555" y="1520"/>
      <point x="742" y="1520" type="curve" smooth="yes"/>
      <point x="806" y="1520"/>
      <point x="867" y="1512"/>
      <point x="915" y="1500" type="curve" smooth="yes"/>
      <point x="963" y="1488"/>
      <point x="1025" y="1465"/>
      <point x="1073" y="1438" type="curve"/>
      <point x="1073" y="1231" type="line"/>
      <point x="1024" y="1272"/>
      <point x="971" y="1303"/>
      <point x="914" y="1324" type="curve" smooth="yes"/>
      <point x="857" y="1345"/>
      <point x="801" y="1356"/>
      <point x="741" y="1356" type="curve" smooth="yes"/>
      <point x="612" y="1356"/>
      <point x="513" y="1305"/>
      <point x="448" y="1204" type="curve" smooth="yes"/>
      <point x="383" y="1103"/>
      <point x="350" y="950"/>
      <point x="350" y="745" type="curve" smooth="yes"/>
      <point x="350" y="337"/>
      <point x="480" y="135"/>
      <point x="743" y="135" type="curve" smooth="yes"/>
      <point x="803" y="135"/>
      <point x="859" y="146"/>
      <point x="916" y="167" type="curve" smooth="yes"/>
      <point x="971" y="188"/>
      <point x="1024" y="219"/>
      <point x="1073" y="260" type="curve"/>
      <point x="1073" y="53" type="line"/>
      <point x="1021" y="26"/>
      <point x="968" y="5"/>
      <point x="915" y="-9" type="curve" smooth="yes"/>
      <point x="863" y="-22"/>
      <point x="802" y="-29"/>
      <point x="742" y="-29" type="curve" smooth="yes"/>
    </contour>
  </outline>
</glyph>
<glyph name="G" format="1">
  <advance width="1233"/>
  <unicode hex="0047"/>
  <note>
	G
  </note>
  <outline>
    <contour>
      <point x="509" y="-29"/>
      <point x="362" y="42"/>
      <point x="259" y="175" type="curve" smooth="yes"/>
      <point x="155" y="311"/>
      <point x="102" y="503"/>
      <point x="102" y="744" type="curve" smooth="yes"/>
      <point x="102" y="992"/>
      <point x="158" y="1184"/>
      <point x="262" y="1317" type="curve" smooth="yes"/>
      <point x="366" y="1450"/>
      <point x="516" y="1520"/>
      <point x="703" y="1520" type="curve" smooth="yes"/>
      <point x="770" y="1520"/>
      <point x="831" y="1511"/>
      <point x="887" y="1494" type="curve" smooth="yes"/>
      <point x="946" y="1475"/>
      <point x="1001" y="1448"/>
      <point x="1053" y="1413" type="curve"/>
      <point x="1053" y="1206" type="line"/>
      <point x="996" y="1261"/>
      <point x="938" y="1297"/>
      <point x="887" y="1320" type="curve" smooth="yes"/>
      <point x="828" y="1345"/>
      <point x="766" y="1356"/>
      <point x="706" y="1356" type="curve" smooth="yes"/>
      <point x="577" y="1356"/>
      <point x="480" y="1308"/>
      <point x="412" y="1204" type="curve" smooth="yes"/>
      <point x="345" y="1101"/>
      <point x="313" y="952"/>
      <point x="313" y="743" type="curve" smooth="yes"/>
      <point x="313" y="532"/>
      <point x="345" y="385"/>
      <point x="409" y="285" type="curve" smooth="yes"/>
      <point x="472" y="185"/>
      <point x="570" y="135"/>
      <point x="703" y="135" type="curve" smooth="yes"/>
      <point x="746" y="135"/>
      <point x="785" y="140"/>
      <point x="820" y="151" type="curve" smooth="yes"/>
      <point x="852" y="162"/>
      <point x="883" y="176"/>
      <point x="911" y="199" type="curve"/>
      <point x="911" y="600" type="line"/>
      <point x="694" y="600" type="line"/>
      <point x="694" y="766" type="line"/>
      <point x="1104" y="766" type="line"/>
      <point x="1104" y="123" type="line"/>
      <point x="996" y="23"/>
      <point x="860" y="-29"/>
      <point x="700" y="-29" type="curve" smooth="yes"/>
    </contour>
  </outline>
</glyph>
<glyph name="P" format="1">
  <advance width="1233"/>
  <unicode hex="0050"/>
  <note>
	P
  </note>
  <outline>
    <contour>
      <point x="172" y="1493" type="line"/>
      <point x="608" y="1493" type="line" smooth="yes"/>
      <point x="774" y="1493"/>
      <point x="900" y="1455"/>
      <point x="987" y="1380" type="curve" smooth="yes"/>
      <point x="1076" y="1301"/>
      <point x="1116" y="1187"/>
      <point x="1116" y="1046" type="curve" smooth="yes"/>
      <point x="1116" y="899"/>
      <point x="1073" y="788"/>
      <point x="988" y="713" type="curve" smooth="yes"/>
      <point x="904" y="638"/>
      <point x="777" y="600"/>
      <point x="608" y="600" type="curve" smooth="yes"/>
      <point x="374" y="600" type="line"/>
      <point x="374" y="0" type="line"/>
      <point x="172" y="0" type="line"/>
    </contour>
    <contour>
      <point x="608" y="766" type="line" smooth="yes"/>
      <point x="708" y="766"/>
      <point x="779" y="795"/>
      <point x="827" y="840" type="curve" smooth="yes"/>
      <point x="879" y="889"/>
      <point x="905" y="958"/>
      <point x="905" y="1047" type="curve" smooth="yes"/>
      <point x="905" y="1224"/>
      <point x="797" y="1327"/>
      <point x="608" y="1327" type="curve" smooth="yes"/>
      <point x="374" y="1327" type="line"/>
      <point x="374" y="766" type="line"/>
    </contour>
  </outline>
</glyph>
<glyph name="Q" format="1">
  <advance width="1233"/>
  <unicode hex="0051"/>
  <note>
	Q
  </note>
  <outline>
    <contour>
      <point x="655" y="-27" type="line"/>
      <point x="652" y="-27"/>
      <point x="650" y="-27"/>
      <point x="647" y="-27" type="curve" smooth="yes"/>
      <point x="644" y="-27"/>
      <point x="640" y="-27"/>
      <point x="635" y="-28" type="curve" smooth="yes"/>
      <point x="630" y="-29"/>
      <point x="627" y="-29"/>
      <point x="624" y="-29" type="curve" smooth="yes"/>
      <point x="621" y="-29"/>
      <point x="618" y="-29"/>
      <point x="617" y="-29" type="curve" smooth="yes"/>
      <point x="450" y="-29"/>
      <point x="326" y="30"/>
      <point x="241" y="163" type="curve" smooth="yes"/>
      <point x="156" y="296"/>
      <point x="117" y="489"/>
      <point x="117" y="745" type="curve" smooth="yes"/>
      <point x="117" y="1006"/>
      <point x="158" y="1201"/>
      <point x="241" y="1328" type="curve" smooth="yes"/>
      <point x="324" y="1456"/>
      <point x="445" y="1520"/>
      <point x="616" y="1520" type="curve" smooth="yes"/>
      <point x="780" y="1520"/>
      <point x="908" y="1461"/>
      <point x="993" y="1328" type="curve" smooth="yes"/>
      <point x="1075" y="1200"/>
      <point x="1116" y="1006"/>
      <point x="1116" y="745" type="curve" smooth="yes"/>
      <point x="1116" y="550"/>
      <point x="1093" y="392"/>
      <point x="1048" y="272" type="curve" smooth="yes"/>
      <point x="1004" y="155"/>
      <point x="935" y="68"/>
      <point x="840" y="20" type="curve"/>
      <point x="1125" y="-270" type="line"/>
      <point x="889" y="-270" type="line"/>
    </contour>
    <contour>
      <point x="719" y="135"/>
      <point x="793" y="182"/>
      <point x="838" y="276" type="curve" smooth="yes"/>
      <point x="883" y="368"/>
      <point x="905" y="524"/>
      <point x="905" y="745" type="curve" smooth="yes"/>
      <point x="905" y="965"/>
      <point x="883" y="1122"/>
      <point x="838" y="1215" type="curve" smooth="yes"/>
      <point x="793" y="1309"/>
      <point x="719" y="1356"/>
      <point x="616" y="1356" type="curve" smooth="yes"/>
      <point x="514" y="1356"/>
      <point x="441" y="1309"/>
      <point x="396" y="1215" type="curve" smooth="yes"/>
      <point x="351" y="1120"/>
      <point x="328" y="964"/>
      <point x="328" y="745" type="curve" smooth="yes"/>
      <point x="328" y="527"/>
      <point x="351" y="371"/>
      <point x="396" y="276" type="curve" smooth="yes"/>
      <point x="441" y="182"/>
      <point x="514" y="135"/>
      <point x="616" y="135" type="curve" smooth="yes"/>
    </contour>
  </outline>
</glyph>
<glyph name="bracketright" format="1">
  <advance width="1233"/>
  <unicode hex="005D"/>
  <note>
	bracketright
  </note>
  <outline>
    <contour>
      <point x="386" y="-127" type="line"/>
      <point x="626" y="-127" type="line"/>
      <point x="626" y="1492" type="line"/>
      <point x="386" y="1492" type="line"/>
      <point x="386" y="1635" type="line"/>
      <point x="810" y="1635" type="line"/>
      <point x="810" y="-270" type="line"/>
      <point x="386" y="-270" type="line"/>
    </contour>
  </outline>
</glyph>
<glyph name="f" format="1">
  <advance width="1233"/>
  <unicode hex="0066"/>
  <note>
	f
  </note>
  <outline>
    <contour>
      <point x="466" y="977" type="line"/>
      <point x="167" y="977" type="line"/>
      <point x="167" y="1120" type="line"/>
      <point x="466" y="1120" type="line"/>
      <point x="466" y="1198" type="line" smooth="yes"/>
      <point x="466" y="1445"/>
      <point x="575" y="1556"/>
      <point x="814" y="1556" type="curve" smooth="yes"/>
      <point x="1035" y="1556" type="line"/>
      <point x="1035" y="1403" type="line"/>
      <point x="826" y="1403" type="line" smooth="yes"/>
      <point x="754" y="1403"/>
      <point x="713" y="1388"/>
      <point x="689" y="1363" type="curve" smooth="yes"/>
      <point x="663" y="1336"/>
      <point x="650" y="1288"/>
      <point x="650" y="1219" type="curve" smooth="yes"/>
      <point x="650" y="1120" type="line"/>
      <point x="1035" y="1120" type="line"/>
      <point x="1035" y="977" type="line"/>
      <point x="650" y="977" type="line"/>
      <point x="650" y="0" type="line"/>
      <point x="466" y="0" type="line"/>
    </contour>
  </outline>
</glyph>
<glyph name="g" format="1">
  <advance width="1233"/>
  <unicode hex="0067"/>
  <note>
	g
  </note>
  <outline>
    <contour>
      <point x="549" y="-440"/>
      <point x="498" y="-435"/>
      <point x="442" y="-426" type="curve" smooth="yes"/>
      <point x="387" y="-417"/>
      <point x="335" y="-404"/>
      <point x="276" y="-385" type="curve"/>
      <point x="276" y="-203" type="line"/>
      <point x="341" y="-234"/>
      <point x="403" y="-256"/>
      <point x="454" y="-271" type="curve" smooth="yes"/>
      <point x="506" y="-286"/>
      <point x="556" y="-293"/>
      <point x="605" y="-293" type="curve" smooth="yes"/>
      <point x="704" y="-293"/>
      <point x="771" y="-267"/>
      <point x="818" y="-211" type="curve" smooth="yes"/>
      <point x="863" y="-158"/>
      <point x="886" y="-72"/>
      <point x="886" y="45" type="curve" smooth="yes"/>
      <point x="886" y="178" type="line"/>
      <point x="829" y="54"/>
      <point x="726" y="-8"/>
      <point x="582" y="-8" type="curve" smooth="yes"/>
      <point x="319" y="-8"/>
      <point x="151" y="218"/>
      <point x="151" y="569" type="curve" smooth="yes"/>
      <point x="151" y="744"/>
      <point x="190" y="885"/>
      <point x="268" y="990" type="curve" smooth="yes"/>
      <point x="347" y="1095"/>
      <point x="448" y="1147"/>
      <point x="583" y="1147" type="curve" smooth="yes"/>
      <point x="652" y="1147"/>
      <point x="713" y="1133"/>
      <point x="764" y="1104" type="curve" smooth="yes"/>
      <point x="815" y="1075"/>
      <point x="855" y="1030"/>
      <point x="886" y="971" type="curve"/>
      <point x="904" y="1116" type="line"/>
      <point x="1070" y="1116" type="line"/>
      <point x="1070" y="72" type="line" smooth="yes"/>
      <point x="1070" y="-263"/>
      <point x="910" y="-440"/>
      <point x="601" y="-440" type="curve" smooth="yes"/>
    </contour>
    <contour>
      <point x="795" y="145"/>
      <point x="886" y="294"/>
      <point x="886" y="569" type="curve" smooth="yes"/>
      <point x="886" y="708"/>
      <point x="864" y="813"/>
      <point x="819" y="884" type="curve" smooth="yes"/>
      <point x="772" y="960"/>
      <point x="704" y="991"/>
      <point x="621" y="991" type="curve" smooth="yes"/>
      <point x="442" y="991"/>
      <point x="345" y="847"/>
      <point x="345" y="568" type="curve" smooth="yes"/>
      <point x="345" y="295"/>
      <point x="445" y="145"/>
      <point x="622" y="145" type="curve" smooth="yes"/>
    </contour>
  </outline>
</glyph>
<glyph name="r" format="1">
  <advance width="1233"/>
  <unicode hex="0072"/>
  <note>
	r
  </note>
  <outline>
    <contour>
      <point x="302" y="1120" type="line"/>
      <point x="469" y="1120" type="line"/>
      <point x="487" y="901" type="line"/>
      <point x="550" y="1060"/>
      <point x="679" y="1147"/>
      <point x="854" y="1147" type="curve" smooth="yes"/>
      <point x="899" y="1147"/>
      <point x="942" y="1141"/>
      <point x="982" y="1130" type="curve" smooth="yes"/>
      <point x="1021" y="1119"/>
      <point x="1060" y="1101"/>
      <point x="1095" y="1077" type="curve"/>
      <point x="1095" y="889" type="line"/>
      <point x="1019" y="950"/>
      <point x="937" y="977"/>
      <point x="840" y="977" type="curve" smooth="yes"/>
      <point x="612" y="977"/>
      <point x="487" y="830"/>
      <point x="487" y="557" type="curve" smooth="yes"/>
      <point x="487" y="0" type="line"/>
      <point x="302" y="0" type="line"/>
    </contour>
  </outline>
</glyph>
<glyph name="y" format="1">
  <advance width="1233"/>
  <unicode hex="0079"/>
  <note>
	y
  </note>
  <outline>
    <contour>
      <point x="184" y="-272" type="line"/>
      <point x="293" y="-272" type="line" smooth="yes"/>
      <point x="353" y="-272"/>
      <point x="393" y="-252"/>
      <point x="420" y="-225" type="curve" smooth="yes"/>
      <point x="435" y="-210"/>
      <point x="451" y="-183"/>
      <point x="470" y="-146" type="curve" smooth="yes"/>
      <point x="489" y="-109"/>
      <point x="511" y="-54"/>
      <point x="537" y="18" type="curve"/>
      <point x="104" y="1120" type="line"/>
      <point x="299" y="1120" type="line"/>
      <point x="631" y="244" type="line"/>
      <point x="958" y="1120" type="line"/>
      <point x="1153" y="1120" type="line"/>
      <point x="858" y="360" type="line" smooth="yes"/>
      <point x="842" y="319"/>
      <point x="830" y="287"/>
      <point x="821" y="264" type="curve" smooth="yes"/>
      <point x="812" y="241"/>
      <point x="805" y="224"/>
      <point x="800" y="211" type="curve" smooth="yes"/>
      <point x="790" y="185"/>
      <point x="786" y="175"/>
      <point x="779" y="156" type="curve" smooth="yes"/>
      <point x="776" y="147"/>
      <point x="771" y="134"/>
      <point x="766" y="119" type="curve"/>
      <point x="760" y="104"/>
      <point x="752" y="81"/>
      <point x="741" y="52" type="curve" smooth="yes"/>
      <point x="701" y="-56"/>
      <point x="673" y="-127"/>
      <point x="652" y="-175" type="curve" smooth="yes"/>
      <point x="631" y="-224"/>
      <point x="617" y="-251"/>
      <point x="608" y="-268" type="curve" smooth="yes"/>
      <point x="579" y="-319"/>
      <point x="545" y="-358"/>
      <point x="493" y="-387" type="curve" smooth="yes"/>
      <point x="447" y="-413"/>
      <point x="393" y="-426"/>
      <point x="332" y="-426" type="curve" smooth="yes"/>
      <point x="184" y="-426" type="line"/>
    </contour>
  </outline>
</glyph>
<glyph name="uni00AD" format="1">
  <advance width="1233"/>
  <unicode hex="00AD"/>
  <note>
	uni00AD
  </note>
  <outline>
    <contour>
      <point x="356" y="643" type="line"/>
      <point x="877" y="643" type="line"/>
      <point x="877" y="479" type="line"/>
      <point x="356" y="479" type="line"/>
    </contour>
  </outline>
</glyph>
<glyph name="uni00B3" format="1">
  <advance width="1233"/>
  <unicode hex="00B3"/>
  <note>
	threesuperior
  </note>
  <outline>
    <contour>
      <point x="515" y="1109"/>
      <point x="481" y="1113"/>
      <point x="442" y="1120" type="curve" smooth="yes"/>
      <point x="399" y="1128"/>
      <point x="366" y="1137"/>
      <point x="326" y="1150" type="curve"/>
      <point x="326" y="1271" type="line"/>
      <point x="373" y="1252"/>
      <point x="413" y="1240"/>
      <point x="452" y="1231" type="curve" smooth="yes"/>
      <point x="487" y="1222"/>
      <point x="522" y="1218"/>
      <point x="556" y="1218" type="curve" smooth="yes"/>
      <point x="619" y="1218"/>
      <point x="674" y="1232"/>
      <point x="714" y="1259" type="curve" smooth="yes"/>
      <point x="749" y="1283"/>
      <point x="772" y="1320"/>
      <point x="772" y="1371" type="curve" smooth="yes"/>
      <point x="772" y="1418"/>
      <point x="752" y="1455"/>
      <point x="717" y="1479" type="curve" smooth="yes"/>
      <point x="680" y="1504"/>
      <point x="625" y="1517"/>
      <point x="553" y="1517" type="curve" smooth="yes"/>
      <point x="487" y="1517" type="line"/>
      <point x="487" y="1625" type="line"/>
      <point x="561" y="1625" type="line" smooth="yes"/>
      <point x="684" y="1625"/>
      <point x="752" y="1668"/>
      <point x="752" y="1747" type="curve" smooth="yes"/>
      <point x="752" y="1824"/>
      <point x="691" y="1850"/>
      <point x="646" y="1860" type="curve" smooth="yes"/>
      <point x="623" y="1865"/>
      <point x="599" y="1867"/>
      <point x="572" y="1867" type="curve" smooth="yes"/>
      <point x="537" y="1867"/>
      <point x="506" y="1863"/>
      <point x="469" y="1855" type="curve" smooth="yes"/>
      <point x="432" y="1847"/>
      <point x="394" y="1835"/>
      <point x="354" y="1820" type="curve"/>
      <point x="354" y="1941" type="line"/>
      <point x="401" y="1952"/>
      <point x="443" y="1960"/>
      <point x="482" y="1967" type="curve" smooth="yes"/>
      <point x="521" y="1973"/>
      <point x="557" y="1976"/>
      <point x="592" y="1976" type="curve" smooth="yes"/>
      <point x="781" y="1976"/>
      <point x="903" y="1891"/>
      <point x="903" y="1760" type="curve" smooth="yes"/>
      <point x="903" y="1665"/>
      <point x="844" y="1603"/>
      <point x="731" y="1576" type="curve"/>
      <point x="856" y="1548"/>
      <point x="924" y="1476"/>
      <point x="924" y="1365" type="curve" smooth="yes"/>
      <point x="924" y="1204"/>
      <point x="804" y="1148"/>
      <point x="713" y="1126" type="curve" smooth="yes"/>
      <point x="668" y="1115"/>
      <point x="617" y="1109"/>
      <point x="562" y="1109" type="curve" smooth="yes"/>
    </contour>
  </outline>
</glyph>
<glyph name="threequarters" format="1">
  <advance width="1233"/>
  <unicode hex="00BE"/>
  <note>
	threequarters
  </note>
  <outline>
    <contour>
      <point x="288" y="809"/>
      <point x="254" y="813"/>
      <point x="215" y="820" type="curve" smooth="yes"/>
      <point x="172" y="828"/>
      <point x="139" y="837"/>
      <point x="99" y="850" type="curve"/>
      <point x="99" y="971" type="line"/>
      <point x="146" y="952"/>
      <point x="186" y="940"/>
      <point x="225" y="931" type="curve" smooth="yes"/>
      <point x="260" y="922"/>
      <point x="295" y="918"/>
      <point x="329" y="918" type="curve" smooth="yes"/>
      <point x="392" y="918"/>
      <point x="447" y="932"/>
      <point x="487" y="959" type="curve" smooth="yes"/>
      <point x="522" y="983"/>
      <point x="545" y="1020"/>
      <point x="545" y="1071" type="curve" smooth="yes"/>
      <point x="545" y="1118"/>
      <point x="525" y="1155"/>
      <point x="490" y="1179" type="curve" smooth="yes"/>
      <point x="453" y="1204"/>
      <point x="398" y="1217"/>
      <point x="326" y="1217" type="curve" smooth="yes"/>
      <point x="260" y="1217" type="line"/>
      <point x="260" y="1325" type="line"/>
      <point x="334" y="1325" type="line" smooth="yes"/>
      <point x="457" y="1325"/>
      <point x="525" y="1368"/>
      <point x="525" y="1447" type="curve" smooth="yes"/>
      <point x="525" y="1524"/>
      <point x="464" y="1550"/>
      <point x="419" y="1560" type="curve" smooth="yes"/>
      <point x="396" y="1565"/>
      <point x="372" y="1567"/>
      <point x="345" y="1567" type="curve" smooth="yes"/>
      <point x="310" y="1567"/>
      <point x="279" y="1563"/>
      <point x="242" y="1555" type="curve" smooth="yes"/>
      <point x="205" y="1547"/>
      <point x="167" y="1535"/>
      <point x="127" y="1520" type="curve"/>
      <point x="127" y="1641" type="line"/>
      <point x="174" y="1652"/>
      <point x="216" y="1660"/>
      <point x="255" y="1667" type="curve" smooth="yes"/>
      <point x="294" y="1673"/>
      <point x="330" y="1676"/>
      <point x="365" y="1676" type="curve" smooth="yes"/>
      <point x="554" y="1676"/>
      <point x="676" y="1591"/>
      <point x="676" y="1460" type="curve" smooth="yes"/>
      <point x="676" y="1365"/>
      <point x="617" y="1303"/>
      <point x="504" y="1276" type="curve"/>
      <point x="629" y="1248"/>
      <point x="697" y="1176"/>
      <point x="697" y="1065" type="curve" smooth="yes"/>
      <point x="697" y="904"/>
      <point x="577" y="848"/>
      <point x="486" y="826" type="curve" smooth="yes"/>
      <point x="441" y="815"/>
      <point x="390" y="809"/>
      <point x="335" y="809" type="curve" smooth="yes"/>
    </contour>
    <contour>
      <point x="27" y="612" type="line"/>
      <point x="1087" y="874" type="line"/>
      <point x="1114" y="766" type="line"/>
      <point x="51" y="504" type="line"/>
    </contour>
    <contour>
      <point x="839" y="-84" type="line"/>
      <point x="452" y="-84" type="line"/>
      <point x="452" y="37" type="line"/>
      <point x="815" y="565" type="line"/>
      <point x="977" y="565" type="line"/>
      <point x="977" y="27" type="line"/>
      <point x="1093" y="27" type="line"/>
      <point x="1093" y="-84" type="line"/>
      <point x="977" y="-84" type="line"/>
      <point x="977" y="-270" type="line"/>
      <point x="839" y="-270" type="line"/>
    </contour>
    <contour>
      <point x="839" y="27" type="line"/>
      <point x="839" y="440" type="line"/>
      <point x="565" y="27" type="line"/>
    </contour>
  </outline>
</glyph>
<glyph name="questiondown" format="1">
  <advance width="1233"/>
  <unicode hex="00BF"/>
  <note>
	questiondown
  </note>
  <outline>
    <contour>
      <point x="615" y="1252"/>
      <point x="580" y="1266"/>
      <point x="552" y="1294" type="curve" smooth="yes"/>
      <point x="523" y="1323"/>
      <point x="509" y="1362"/>
      <point x="509" y="1405" type="curve" smooth="yes"/>
      <point x="509" y="1448"/>
      <point x="523" y="1486"/>
      <point x="551" y="1514" type="curve" smooth="yes"/>
      <point x="574" y="1537"/>
      <point x="610" y="1556"/>
      <point x="655" y="1556" type="curve" smooth="yes"/>
      <point x="698" y="1556"/>
      <point x="732" y="1541"/>
      <point x="759" y="1514" type="curve" smooth="yes"/>
      <point x="787" y="1486"/>
      <point x="801" y="1450"/>
      <point x="801" y="1405" type="curve" smooth="yes"/>
      <point x="801" y="1314"/>
      <point x="736" y="1252"/>
      <point x="656" y="1252" type="curve" smooth="yes"/>
    </contour>
    <contour>
      <point x="477" y="-27"/>
      <point x="377" y="5"/>
      <point x="304" y="68" type="curve" smooth="yes"/>
      <point x="232" y="131"/>
      <point x="193" y="219"/>
      <point x="193" y="324" type="curve" smooth="yes"/>
      <point x="193" y="380"/>
      <point x="204" y="424"/>
      <point x="227" y="468" type="curve" smooth="yes"/>
      <point x="250" y="512"/>
      <point x="289" y="561"/>
      <point x="354" y="625" type="curve" smooth="yes"/>
      <point x="442" y="711" type="line" smooth="yes"/>
      <point x="482" y="750"/>
      <point x="513" y="784"/>
      <point x="528" y="817" type="curve" smooth="yes"/>
      <point x="541" y="844"/>
      <point x="547" y="879"/>
      <point x="547" y="922" type="curve" smooth="yes"/>
      <point x="547" y="927" type="line"/>
      <point x="548" y="942"/>
      <point x="549" y="956"/>
      <point x="549" y="969" type="curve" smooth="yes"/>
      <point x="549" y="1092" type="line"/>
      <point x="739" y="1092" type="line"/>
      <point x="739" y="938" type="line" smooth="yes"/>
      <point x="739" y="806"/>
      <point x="707" y="732"/>
      <point x="594" y="621" type="curve" smooth="yes"/>
      <point x="504" y="532" type="line" smooth="yes"/>
      <point x="477" y="505"/>
      <point x="437" y="465"/>
      <point x="418" y="429" type="curve" smooth="yes"/>
      <point x="401" y="397"/>
      <point x="395" y="359"/>
      <point x="395" y="332" type="curve" smooth="yes"/>
      <point x="395" y="275"/>
      <point x="421" y="224"/>
      <point x="460" y="192" type="curve" smooth="yes"/>
      <point x="504" y="155"/>
      <point x="565" y="137"/>
      <point x="633" y="137" type="curve" smooth="yes"/>
      <point x="689" y="137"/>
      <point x="742" y="149"/>
      <point x="802" y="172" type="curve" smooth="yes"/>
      <point x="863" y="195"/>
      <point x="925" y="229"/>
      <point x="989" y="274" type="curve"/>
      <point x="989" y="86" type="line"/>
      <point x="922" y="46"/>
      <point x="857" y="18"/>
      <point x="800" y="1" type="curve" smooth="yes"/>
      <point x="736" y="-18"/>
      <point x="667" y="-27"/>
      <point x="602" y="-27" type="curve" smooth="yes"/>
    </contour>
  </outline>
</glyph>
<glyph name="Ucircumflex" format="1">
  <advance width="1233"/>
  <unicode hex="00DB"/>
  <note>
	Ucircumflex
  </note>
  <outline>
    <contour>
      <point x="522" y="1852" type="line"/>
      <point x="711" y="1852" type="line"/>
      <point x="922" y="1586" type="line"/>
      <point x="782" y="1586" type="line"/>
      <point x="616" y="1764" type="line"/>
      <point x="451" y="1586" type="line"/>
      <point x="311" y="1586" type="line"/>
    </contour>
    <contour>
      <point x="544" y="-29"/>
      <point x="483" y="-19"/>
      <point x="427" y="0" type="curve" smooth="yes"/>
      <point x="375" y="19"/>
      <point x="316" y="49"/>
      <point x="273" y="88" type="curve" smooth="yes"/>
      <point x="232" y="125"/>
      <point x="200" y="173"/>
      <point x="177" y="249" type="curve" smooth="yes"/>
      <point x="166" y="282"/>
      <point x="159" y="323"/>
      <point x="155" y="375" type="curve" smooth="yes"/>
      <point x="150" y="427"/>
      <point x="147" y="490"/>
      <point x="147" y="573" type="curve" smooth="yes"/>
      <point x="147" y="1493" type="line"/>
      <point x="350" y="1493" type="line"/>
      <point x="350" y="481" type="line" smooth="yes"/>
      <point x="350" y="408"/>
      <point x="352" y="357"/>
      <point x="356" y="326" type="curve" smooth="yes"/>
      <point x="364" y="263"/>
      <point x="389" y="205"/>
      <point x="470" y="165" type="curve" smooth="yes"/>
      <point x="510" y="145"/>
      <point x="559" y="135"/>
      <point x="616" y="135" type="curve" smooth="yes"/>
      <point x="732" y="135"/>
      <point x="815" y="177"/>
      <point x="856" y="254" type="curve" smooth="yes"/>
      <point x="867" y="274"/>
      <point x="873" y="293"/>
      <point x="877" y="325" type="curve" smooth="yes"/>
      <point x="881" y="356"/>
      <point x="883" y="407"/>
      <point x="883" y="479" type="curve" smooth="yes"/>
      <point x="883" y="1493" type="line"/>
      <point x="1085" y="1493" type="line"/>
      <point x="1085" y="573" type="line" smooth="yes"/>
      <point x="1085" y="485"/>
      <point x="1082" y="419"/>
      <point x="1078" y="368" type="curve" smooth="yes"/>
      <point x="1073" y="316"/>
      <point x="1065" y="278"/>
      <point x="1057" y="249" type="curve" smooth="yes"/>
      <point x="1038" y="182"/>
      <point x="1004" y="129"/>
      <point x="959" y="88" type="curve" smooth="yes"/>
      <point x="915" y="48"/>
      <point x="858" y="19"/>
      <point x="806" y="0" type="curve" smooth="yes"/>
      <point x="757" y="-17"/>
      <point x="695" y="-29"/>
      <point x="616" y="-29" type="curve" smooth="yes"/>
    </contour>
  </outline>
</glyph>
<glyph name="Udieresis" format="1">
  <advance width="1233"/>
  <unicode hex="00DC"/>
  <note>
	Udieresis
  </note>
  <outline>
    <contour>
      <point x="349" y="1647" type="line" smooth="yes"/>
      <point x="329" y="1647"/>
      <point x="319" y="1657"/>
      <point x="319" y="1677" type="curve" smooth="yes"/>
      <point x="319" y="1820" type="line" smooth="yes"/>
      <point x="319" y="1840"/>
      <point x="329" y="1850"/>
      <point x="349" y="1850" type="curve" smooth="yes"/>
      <point x="492" y="1850" type="line" smooth="yes"/>
      <point x="512" y="1850"/>
      <point x="522" y="1840"/>
      <point x="522" y="1820" type="curve" smooth="yes"/>
      <point x="522" y="1677" type="line" smooth="yes"/>
      <point x="522" y="1657"/>
      <point x="512" y="1647"/>
      <point x="492" y="1647" type="curve" smooth="yes"/>
    </contour>
    <contour>
      <point x="741" y="1647" type="line" smooth="yes"/>
      <point x="721" y="1647"/>
      <point x="711" y="1657"/>
      <point x="711" y="1677" type="curve" smooth="yes"/>
      <point x="711" y="1820" type="line" smooth="yes"/>
      <point x="711" y="1840"/>
      <point x="721" y="1850"/>
      <point x="741" y="1850" type="curve" smooth="yes"/>
      <point x="883" y="1850" type="line" smooth="yes"/>
      <point x="903" y="1850"/>
      <point x="913" y="1840"/>
      <point x="913" y="1820" type="curve" smooth="yes"/>
      <point x="913" y="1677" type="line" smooth="yes"/>
      <point x="913" y="1657"/>
      <point x="903" y="1647"/>
      <point x="883" y="1647" type="curve" smooth="yes"/>
    </contour>
    <contour>
      <point x="544" y="-29"/>
      <point x="483" y="-19"/>
      <point x="427" y="0" type="curve" smooth="yes"/>
      <point x="375" y="19"/>
      <point x="316" y="49"/>
      <point x="273" y="88" type="curve" smooth="yes"/>
      <point x="232" y="125"/>
      <point x="200" y="173"/>
      <point x="177" y="249" type="curve" smooth="yes"/>
      <point x="166" y="282"/>
      <point x="159" y="323"/>
      <point x="155" y="375" type="curve" smooth="yes"/>
      <point x="150" y="427"/>
      <point x="147" y="490"/>
      <point x="147" y="573" type="curve" smooth="yes"/>
      <point x="147" y="1493" type="line"/>
      <point x="350" y="1493" type="line"/>
      <point x="350" y="481" type="line" smooth="yes"/>
      <point x="350" y="408"/>
      <point x="352" y="357"/>
      <point x="356" y="326" type="curve" smooth="yes"/>
      <point x="364" y="263"/>
      <point x="389" y="205"/>
      <point x="470" y="165" type="curve" smooth="yes"/>
      <point x="510" y="145"/>
      <point x="559" y="135"/>
      <point x="616" y="135" type="curve" smooth="yes"/>
      <point x="732" y="135"/>
      <point x="815" y="177"/>
      <point x="856" y="254" type="curve" smooth="yes"/>
      <point x="867" y="274"/>
      <point x="873" y="293"/>
      <point x="877" y="325" type="curve" smooth="yes"/>
      <point x="881" y="356"/>
      <point x="883" y="407"/>
      <point x="883" y="479" type="curve" smooth="yes"/>
      <point x="883" y="1493" type="line"/>
      <point x="1085" y="1493" type="line"/>
      <point x="1085" y="573" type="line" smooth="yes"/>
      <point x="1085" y="485"/>
      <point x="1082" y="419"/>
      <point x="1078" y="368" type="curve" smooth="yes"/>
      <point x="1073" y="316"/>
      <point x="1065" y="278"/>
      <point x="1057" y="249" type="curve" smooth="yes"/>
      <point x="1038" y="182"/>
      <point x="1004" y="129"/>
      <point x="959" y="88" type="curve" smooth="yes"/>
      <point x="915" y="48"/>
      <point x="858" y="19"/>
      <point x="806" y="0" type="curve" smooth="yes"/>
      <point x="757" y="-17"/>
      <point x="695" y="-29"/>
      <point x="616" y="-29" type="curve" smooth="yes"/>
    </contour>
  </outline>
</glyph>
<glyph name="atilde" format="1">
  <advance width="1233"/>
  <unicode hex="00E3"/>
  <note>
	atilde
  </note>
  <outline>
    <contour>
      <point x="290" y="1339" type="line"/>
      <point x="293" y="1519"/>
      <point x="363" y="1621"/>
      <point x="483" y="1621" type="curve" smooth="yes"/>
      <point x="535" y="1621"/>
      <point x="572" y="1605"/>
      <point x="624" y="1560" type="curve"/>
      <point x="681" y="1505" type="line"/>
      <point x="696" y="1492"/>
      <point x="711" y="1481"/>
      <point x="719" y="1476" type="curve" smooth="yes"/>
      <point x="732" y="1468"/>
      <point x="738" y="1466"/>
      <point x="749" y="1466" type="curve" smooth="yes"/>
      <point x="774" y="1466"/>
      <point x="793" y="1478"/>
      <point x="805" y="1503" type="curve" smooth="yes"/>
      <point x="816" y="1527"/>
      <point x="823" y="1566"/>
      <point x="824" y="1621" type="curve"/>
      <point x="949" y="1621" type="line"/>
      <point x="946" y="1441"/>
      <point x="876" y="1339"/>
      <point x="756" y="1339" type="curve" smooth="yes"/>
      <point x="704" y="1339"/>
      <point x="667" y="1355"/>
      <point x="615" y="1400" type="curve"/>
      <point x="558" y="1455" type="line" smooth="yes"/>
      <point x="541" y="1471"/>
      <point x="528" y="1480"/>
      <point x="520" y="1485" type="curve" smooth="yes"/>
      <point x="508" y="1492"/>
      <point x="501" y="1494"/>
      <point x="490" y="1494" type="curve" smooth="yes"/>
      <point x="465" y="1494"/>
      <point x="446" y="1482"/>
      <point x="434" y="1457" type="curve" smooth="yes"/>
      <point x="421" y="1431"/>
      <point x="415" y="1392"/>
      <point x="414" y="1339" type="curve"/>
    </contour>
    <contour>
      <point x="397" y="-29"/>
      <point x="305" y="3"/>
      <point x="238" y="68" type="curve" smooth="yes"/>
      <point x="174" y="129"/>
      <point x="136" y="210"/>
      <point x="136" y="327" type="curve" smooth="yes"/>
      <point x="136" y="574"/>
      <point x="305" y="707"/>
      <point x="630" y="707" type="curve" smooth="yes"/>
      <point x="877" y="707" type="line"/>
      <point x="877" y="736" type="line" smooth="yes"/>
      <point x="877" y="821"/>
      <point x="854" y="890"/>
      <point x="809" y="931" type="curve" smooth="yes"/>
      <point x="765" y="971"/>
      <point x="692" y="991"/>
      <point x="596" y="991" type="curve" smooth="yes"/>
      <point x="469" y="991"/>
      <point x="338" y="954"/>
      <point x="218" y="885" type="curve"/>
      <point x="218" y="1069" type="line"/>
      <point x="274" y="1090"/>
      <point x="345" y="1113"/>
      <point x="414" y="1128" type="curve" smooth="yes"/>
      <point x="475" y="1141"/>
      <point x="536" y="1147"/>
      <point x="597" y="1147" type="curve" smooth="yes"/>
      <point x="692" y="1147"/>
      <point x="767" y="1133"/>
      <point x="834" y="1105" type="curve" smooth="yes"/>
      <point x="895" y="1078"/>
      <point x="953" y="1037"/>
      <point x="992" y="984" type="curve" smooth="yes"/>
      <point x="1020" y="945"/>
      <point x="1037" y="901"/>
      <point x="1046" y="860" type="curve" smooth="yes"/>
      <point x="1057" y="811"/>
      <point x="1062" y="738"/>
      <point x="1062" y="639" type="curve" smooth="yes"/>
      <point x="1062" y="410" type="line" smooth="yes"/>
      <point x="1063" y="371"/>
      <point x="1064" y="337"/>
      <point x="1065" y="308" type="curve" smooth="yes"/>
      <point x="1066" y="249"/>
      <point x="1074" y="196"/>
      <point x="1083" y="147" type="curve" smooth="yes"/>
      <point x="1091" y="98"/>
      <point x="1098" y="69"/>
      <point x="1110" y="33" type="curve" smooth="yes"/>
      <point x="1116" y="14"/>
      <point x="1120" y="3"/>
      <point x="1121" y="0" type="curve"/>
      <point x="936" y="0" type="line"/>
      <point x="929" y="16"/>
      <point x="918" y="50"/>
      <point x="909" y="87" type="curve" smooth="yes"/>
      <point x="902" y="116"/>
      <point x="896" y="149"/>
      <point x="893" y="170" type="curve"/>
      <point x="854" y="103"/>
      <point x="788" y="50"/>
      <point x="729" y="19" type="curve" smooth="yes"/>
      <point x="665" y="-14"/>
      <point x="594" y="-29"/>
      <point x="513" y="-29" type="curve" smooth="yes"/>
    </contour>
    <contour>
      <point x="752" y="125"/>
      <point x="877" y="278"/>
      <point x="877" y="522" type="curve" smooth="yes"/>
      <point x="877" y="563" type="line"/>
      <point x="644" y="563" type="line" smooth="yes"/>
      <point x="537" y="563"/>
      <point x="457" y="544"/>
      <point x="402" y="507" type="curve" smooth="yes"/>
      <point x="345" y="468"/>
      <point x="320" y="412"/>
      <point x="320" y="337" type="curve" smooth="yes"/>
      <point x="320" y="268"/>
      <point x="342" y="217"/>
      <point x="381" y="181" type="curve" smooth="yes"/>
      <point x="420" y="146"/>
      <point x="474" y="125"/>
      <point x="551" y="125" type="curve" smooth="yes"/>
    </contour>
  </outline>
</glyph>
<glyph name="ae" format="1">
  <advance width="1233"/>
  <unicode hex="00E6"/>
  <note>
	ae
  </note>
  <outline>
    <contour>
      <point x="255" y="-29"/>
      <point x="177" y="0"/>
      <point x="123" y="57" type="curve" smooth="yes"/>
      <point x="66" y="117"/>
      <point x="41" y="201"/>
      <point x="41" y="304" type="curve" smooth="yes"/>
      <point x="41" y="417"/>
      <point x="70" y="505"/>
      <point x="141" y="568" type="curve" smooth="yes"/>
      <point x="208" y="627"/>
      <point x="305" y="657"/>
      <point x="432" y="657" type="curve" smooth="yes"/>
      <point x="549" y="657" type="line"/>
      <point x="549" y="745" type="line" smooth="yes"/>
      <point x="549" y="905"/>
      <point x="482" y="993"/>
      <point x="357" y="993" type="curve" smooth="yes"/>
      <point x="318" y="993"/>
      <point x="273" y="985"/>
      <point x="234" y="972" type="curve" smooth="yes"/>
      <point x="194" y="959"/>
      <point x="147" y="938"/>
      <point x="106" y="911" type="curve"/>
      <point x="106" y="1079" type="line"/>
      <point x="157" y="1102"/>
      <point x="205" y="1120"/>
      <point x="249" y="1131" type="curve" smooth="yes"/>
      <point x="292" y="1142"/>
      <point x="334" y="1147"/>
      <point x="376" y="1147" type="curve" smooth="yes"/>
      <point x="497" y="1147"/>
      <point x="576" y="1105"/>
      <point x="627" y="1020" type="curve"/>
      <point x="671" y="1101"/>
      <point x="762" y="1147"/>
      <point x="882" y="1147" type="curve" smooth="yes"/>
      <point x="995" y="1147"/>
      <point x="1080" y="1109"/>
      <point x="1128" y="1029" type="curve" smooth="yes"/>
      <point x="1176" y="950"/>
      <point x="1200" y="808"/>
      <point x="1200" y="604" type="curve" smooth="yes"/>
      <point x="1200" y="514" type="line"/>
      <point x="709" y="514" type="line"/>
      <point x="708" y="509"/>
      <point x="708" y="503"/>
      <point x="708" y="498" type="curve" smooth="yes"/>
      <point x="708" y="493"/>
      <point x="708" y="487"/>
      <point x="708" y="482" type="curve" smooth="yes"/>
      <point x="708" y="480"/>
      <point x="708" y="477"/>
      <point x="708" y="473" type="curve"/>
      <point x="707" y="468"/>
      <point x="707" y="458"/>
      <point x="707" y="443" type="curve" smooth="yes"/>
      <point x="707" y="312"/>
      <point x="726" y="241"/>
      <point x="758" y="196" type="curve" smooth="yes"/>
      <point x="794" y="145"/>
      <point x="848" y="125"/>
      <point x="923" y="125" type="curve" smooth="yes"/>
      <point x="1023" y="125"/>
      <point x="1113" y="160"/>
      <point x="1178" y="227" type="curve"/>
      <point x="1178" y="55" type="line"/>
      <point x="1139" y="27"/>
      <point x="1096" y="5"/>
      <point x="1057" y="-8" type="curve" smooth="yes"/>
      <point x="1018" y="-21"/>
      <point x="969" y="-29"/>
      <point x="917" y="-29" type="curve" smooth="yes"/>
      <point x="849" y="-29"/>
      <point x="785" y="-15"/>
      <point x="736" y="12" type="curve" smooth="yes"/>
      <point x="686" y="39"/>
      <point x="650" y="79"/>
      <point x="629" y="131" type="curve"/>
      <point x="603" y="78"/>
      <point x="568" y="38"/>
      <point x="524" y="11" type="curve" smooth="yes"/>
      <point x="479" y="-16"/>
      <point x="426" y="-29"/>
      <point x="358" y="-29" type="curve" smooth="yes"/>
    </contour>
    <contour>
      <point x="1036" y="657" type="line"/>
      <point x="1036" y="709" type="line" smooth="yes"/>
      <point x="1036" y="813"/>
      <point x="1022" y="884"/>
      <point x="998" y="927" type="curve" smooth="yes"/>
      <point x="975" y="967"/>
      <point x="935" y="993"/>
      <point x="872" y="993" type="curve" smooth="yes"/>
      <point x="756" y="993"/>
      <point x="709" y="909"/>
      <point x="709" y="700" type="curve" smooth="yes"/>
      <point x="709" y="657" type="line"/>
    </contour>
    <contour>
      <point x="500" y="125"/>
      <point x="520" y="205"/>
      <point x="533" y="282" type="curve" smooth="yes"/>
      <point x="540" y="321"/>
      <point x="543" y="374"/>
      <point x="543" y="442" type="curve" smooth="yes"/>
      <point x="543" y="514" type="line"/>
      <point x="494" y="514" type="line" smooth="yes"/>
      <point x="381" y="514"/>
      <point x="305" y="499"/>
      <point x="265" y="469" type="curve" smooth="yes"/>
      <point x="225" y="438"/>
      <point x="205" y="385"/>
      <point x="205" y="313" type="curve" smooth="yes"/>
      <point x="205" y="192"/>
      <point x="268" y="125"/>
      <point x="375" y="125" type="curve" smooth="yes"/>
    </contour>
  </outline>
</glyph>
<glyph name="divide" format="1">
  <advance width="1233"/>
  <unicode hex="00F7"/>
  <note>
	divide
  </note>
  <outline>
    <contour>
      <point x="524" y="889" type="line" smooth="yes"/>
      <point x="504" y="889"/>
      <point x="494" y="899"/>
      <point x="494" y="919" type="curve" smooth="yes"/>
      <point x="494" y="1105" type="line" smooth="yes"/>
      <point x="494" y="1125"/>
      <point x="504" y="1135"/>
      <point x="524" y="1135" type="curve" smooth="yes"/>
      <point x="709" y="1135" type="line" smooth="yes"/>
      <point x="729" y="1135"/>
      <point x="739" y="1125"/>
      <point x="739" y="1105" type="curve" smooth="yes"/>
      <point x="739" y="919" type="line" smooth="yes"/>
      <point x="739" y="899"/>
      <point x="729" y="889"/>
      <point x="709" y="889" type="curve" smooth="yes"/>
    </contour>
    <contour>
      <point x="88" y="727" type="line"/>
      <point x="1145" y="727" type="line"/>
      <point x="1145" y="557" type="line"/>
      <point x="88" y="557" type="line"/>
    </contour>
    <contour>
      <point x="524" y="150" type="line" smooth="yes"/>
      <point x="504" y="150"/>
      <point x="494" y="160"/>
      <point x="494" y="180" type="curve" smooth="yes"/>
      <point x="494" y="365" type="line" smooth="yes"/>
      <point x="494" y="385"/>
      <point x="504" y="395"/>
      <point x="524" y="395" type="curve" smooth="yes"/>
      <point x="709" y="395" type="line" smooth="yes"/>
      <point x="729" y="395"/>
      <point x="739" y="385"/>
      <point x="739" y="365" type="curve" smooth="yes"/>
      <point x="739" y="180" type="line" smooth="yes"/>
      <point x="739" y="160"/>
      <point x="729" y="150"/>
      <point x="709" y="150" type="curve" smooth="yes"/>
    </contour>
  </outline>
</glyph>
<glyph name="oslash" format="1">
  <advance width="1233"/>
  <unicode hex="00F8"/>
  <note>
	oslash
  </note>
  <outline>
    <contour>
      <point x="47" y="-20" type="line"/>
      <point x="217" y="180" type="line"/>
      <point x="186" y="236"/>
      <point x="171" y="286"/>
      <point x="158" y="349" type="curve" smooth="yes"/>
      <point x="143" y="417"/>
      <point x="137" y="480"/>
      <point x="137" y="559" type="curve" smooth="yes"/>
      <point x="137" y="939"/>
      <point x="306" y="1147"/>
      <point x="615" y="1147" type="curve" smooth="yes"/>
      <point x="680" y="1147"/>
      <point x="744" y="1139"/>
      <point x="795" y="1120" type="curve" smooth="yes"/>
      <point x="844" y="1103"/>
      <point x="893" y="1075"/>
      <point x="934" y="1036" type="curve"/>
      <point x="1081" y="1212" type="line"/>
      <point x="1174" y="1135" type="line"/>
      <point x="1010" y="940" type="line"/>
      <point x="1065" y="853"/>
      <point x="1083" y="747"/>
      <point x="1091" y="675" type="curve" smooth="yes"/>
      <point x="1094" y="638"/>
      <point x="1096" y="600"/>
      <point x="1096" y="561" type="curve" smooth="yes"/>
      <point x="1096" y="370"/>
      <point x="1056" y="221"/>
      <point x="973" y="121" type="curve" smooth="yes"/>
      <point x="891" y="21"/>
      <point x="772" y="-29"/>
      <point x="615" y="-29" type="curve" smooth="yes"/>
      <point x="542" y="-29"/>
      <point x="486" y="-18"/>
      <point x="435" y="1" type="curve" smooth="yes"/>
      <point x="380" y="21"/>
      <point x="339" y="47"/>
      <point x="299" y="90" type="curve"/>
      <point x="139" y="-96" type="line"/>
    </contour>
    <contour>
      <point x="817" y="897" type="line"/>
      <point x="770" y="962"/>
      <point x="704" y="991"/>
      <point x="616" y="991" type="curve" smooth="yes"/>
      <point x="431" y="991"/>
      <point x="374" y="857"/>
      <point x="348" y="757" type="curve" smooth="yes"/>
      <point x="335" y="707"/>
      <point x="328" y="648"/>
      <point x="328" y="579" type="curve" smooth="yes"/>
      <point x="328" y="542"/>
      <point x="330" y="508"/>
      <point x="335" y="469" type="curve" smooth="yes"/>
      <point x="340" y="430"/>
      <point x="347" y="387"/>
      <point x="356" y="340" type="curve"/>
    </contour>
    <contour>
      <point x="804" y="127"/>
      <point x="859" y="265"/>
      <point x="883" y="373" type="curve" smooth="yes"/>
      <point x="895" y="426"/>
      <point x="901" y="487"/>
      <point x="901" y="556" type="curve" smooth="yes"/>
      <point x="901" y="596"/>
      <point x="899" y="630"/>
      <point x="895" y="667" type="curve" smooth="yes"/>
      <point x="892" y="695"/>
      <point x="888" y="732"/>
      <point x="877" y="780" type="curve"/>
      <point x="414" y="221" type="line"/>
      <point x="443" y="184"/>
      <point x="469" y="166"/>
      <point x="501" y="151" type="curve" smooth="yes"/>
      <point x="534" y="136"/>
      <point x="568" y="127"/>
      <point x="615" y="127" type="curve" smooth="yes"/>
    </contour>
  </outline>
</glyph>
<glyph name="thorn" format="1">
  <advance width="1233"/>
  <unicode hex="00FE"/>
  <note>
	thorn
  </note>
  <outline>
    <contour>
      <point x="190" y="1567" type="line"/>
      <point x="375" y="1567" type="line"/>
      <point x="375" y="977" type="line"/>
      <point x="438" y="1089"/>
      <point x="540" y="1147"/>
      <point x="675" y="1147" type="curve" smooth="yes"/>
      <point x="808" y="1147"/>
      <point x="916" y="1095"/>
      <point x="993" y="990" type="curve" smooth="yes"/>
      <point x="1070" y="885"/>
      <point x="1108" y="740"/>
      <point x="1108" y="557" type="curve" smooth="yes"/>
      <point x="1108" y="190"/>
      <point x="943" y="-29"/>
      <point x="674" y="-29" type="curve" smooth="yes"/>
      <point x="598" y="-29"/>
      <point x="545" y="-13"/>
      <point x="496" y="15" type="curve" smooth="yes"/>
      <point x="444" y="45"/>
      <point x="404" y="87"/>
      <point x="375" y="141" type="curve"/>
      <point x="375" y="-426" type="line"/>
      <point x="190" y="-426" type="line"/>
    </contour>
    <contour>
      <point x="826" y="127"/>
      <point x="915" y="274"/>
      <point x="915" y="559" type="curve" smooth="yes"/>
      <point x="915" y="844"/>
      <point x="826" y="991"/>
      <point x="647" y="991" type="curve" smooth="yes"/>
      <point x="468" y="991"/>
      <point x="375" y="843"/>
      <point x="375" y="559" type="curve" smooth="yes"/>
      <point x="375" y="275"/>
      <point x="468" y="127"/>
      <point x="647" y="127" type="curve" smooth="yes"/>
    </contour>
  </outline>
</glyph>
<glyph name="aogonek" format="1">
  <advance width="1233"/>
  <unicode hex="0105"/>
  <note>
	aogonek
  </note>
  <outline>
    <contour>
      <point x="1119" y="-269"/>
      <point x="1161" y="-259"/>
      <point x="1202" y="-239" type="curve"/>
      <point x="1202" y="-372" type="line"/>
      <point x="1146" y="-387"/>
      <point x="1108" y="-392"/>
      <point x="1059" y="-392" type="curve" smooth="yes"/>
      <point x="910" y="-392"/>
      <point x="829" y="-337"/>
      <point x="829" y="-218" type="curve" smooth="yes"/>
      <point x="829" y="-185"/>
      <point x="836" y="-154"/>
      <point x="852" y="-118" type="curve" smooth="yes"/>
      <point x="868" y="-83"/>
      <point x="895" y="-46"/>
      <point x="935" y="1" type="curve"/>
      <point x="928" y="18"/>
      <point x="918" y="51"/>
      <point x="909" y="87" type="curve" smooth="yes"/>
      <point x="902" y="116"/>
      <point x="896" y="149"/>
      <point x="893" y="170" type="curve"/>
      <point x="854" y="103"/>
      <point x="788" y="50"/>
      <point x="729" y="19" type="curve" smooth="yes"/>
      <point x="665" y="-14"/>
      <point x="594" y="-29"/>
      <point x="513" y="-29" type="curve" smooth="yes"/>
      <point x="397" y="-29"/>
      <point x="305" y="3"/>
      <point x="238" y="68" type="curve" smooth="yes"/>
      <point x="174" y="129"/>
      <point x="136" y="210"/>
      <point x="136" y="327" type="curve" smooth="yes"/>
      <point x="136" y="574"/>
      <point x="305" y="707"/>
      <point x="630" y="707" type="curve" smooth="yes"/>
      <point x="877" y="707" type="line"/>
      <point x="877" y="736" type="line" smooth="yes"/>
      <point x="877" y="821"/>
      <point x="854" y="890"/>
      <point x="809" y="931" type="curve" smooth="yes"/>
      <point x="765" y="971"/>
      <point x="692" y="991"/>
      <point x="596" y="991" type="curve" smooth="yes"/>
      <point x="469" y="991"/>
      <point x="338" y="954"/>
      <point x="218" y="885" type="curve"/>
      <point x="218" y="1069" type="line"/>
      <point x="274" y="1090"/>
      <point x="345" y="1113"/>
      <point x="414" y="1128" type="curve" smooth="yes"/>
      <point x="475" y="1141"/>
      <point x="536" y="1147"/>
      <point x="597" y="1147" type="curve" smooth="yes"/>
      <point x="692" y="1147"/>
      <point x="767" y="1133"/>
      <point x="834" y="1105" type="curve" smooth="yes"/>
      <point x="895" y="1078"/>
      <point x="953" y="1037"/>
      <point x="992" y="984" type="curve" smooth="yes"/>
      <point x="1020" y="945"/>
      <point x="1037" y="901"/>
      <point x="1046" y="860" type="curve" smooth="yes"/>
      <point x="1057" y="811"/>
      <point x="1062" y="738"/>
      <point x="1062" y="639" type="curve" smooth="yes"/>
      <point x="1062" y="410" type="line" smooth="yes"/>
      <point x="1063" y="371"/>
      <point x="1064" y="337"/>
      <point x="1065" y="308" type="curve" smooth="yes"/>
      <point x="1066" y="249"/>
      <point x="1074" y="196"/>
      <point x="1083" y="147" type="curve" smooth="yes"/>
      <point x="1091" y="98"/>
      <point x="1098" y="69"/>
      <point x="1110" y="33" type="curve" smooth="yes"/>
      <point x="1116" y="14"/>
      <point x="1120" y="3"/>
      <point x="1121" y="0" type="curve"/>
      <point x="1054" y="0" type="line"/>
      <point x="991" y="-85"/>
      <point x="968" y="-137"/>
      <point x="968" y="-181" type="curve" smooth="yes"/>
      <point x="968" y="-237"/>
      <point x="1006" y="-269"/>
      <point x="1078" y="-269" type="curve" smooth="yes"/>
    </contour>
    <contour>
      <point x="877" y="563" type="line"/>
      <point x="644" y="563" type="line" smooth="yes"/>
      <point x="537" y="563"/>
      <point x="457" y="544"/>
      <point x="402" y="507" type="curve" smooth="yes"/>
      <point x="345" y="468"/>
      <point x="320" y="412"/>
      <point x="320" y="337" type="curve" smooth="yes"/>
      <point x="320" y="268"/>
      <point x="342" y="217"/>
      <point x="381" y="181" type="curve" smooth="yes"/>
      <point x="420" y="146"/>
      <point x="474" y="125"/>
      <point x="551" y="125" type="curve" smooth="yes"/>
      <point x="752" y="125"/>
      <point x="877" y="278"/>
      <point x="877" y="522" type="curve" smooth="yes"/>
    </contour>
  </outline>
</glyph>
<glyph name="Dcaron" format="1">
  <advance width="1233"/>
  <unicode hex="010E"/>
  <note>
	Dcaron
  </note>
  <outline>
    <contour>
      <point x="233" y="1852" type="line"/>
      <point x="373" y="1852" type="line"/>
      <point x="538" y="1674" type="line"/>
      <point x="704" y="1852" type="line"/>
      <point x="844" y="1852" type="line"/>
      <point x="633" y="1586" type="line"/>
      <point x="444" y="1586" type="line"/>
    </contour>
    <contour>
      <point x="137" y="1493" type="line"/>
      <point x="440" y="1493" type="line" smooth="yes"/>
      <point x="668" y="1493"/>
      <point x="835" y="1434"/>
      <point x="944" y="1311" type="curve" smooth="yes"/>
      <point x="1053" y="1188"/>
      <point x="1106" y="1002"/>
      <point x="1106" y="747" type="curve" smooth="yes"/>
      <point x="1106" y="491"/>
      <point x="1053" y="305"/>
      <point x="944" y="182" type="curve" smooth="yes"/>
      <point x="835" y="59"/>
      <point x="668" y="0"/>
      <point x="440" y="0" type="curve" smooth="yes"/>
      <point x="137" y="0" type="line"/>
    </contour>
    <contour>
      <point x="436" y="166" type="line" smooth="yes"/>
      <point x="607" y="166"/>
      <point x="721" y="202"/>
      <point x="793" y="292" type="curve" smooth="yes"/>
      <point x="864" y="382"/>
      <point x="893" y="527"/>
      <point x="893" y="746" type="curve" smooth="yes"/>
      <point x="893" y="966"/>
      <point x="864" y="1112"/>
      <point x="792" y="1202" type="curve" smooth="yes"/>
      <point x="720" y="1292"/>
      <point x="605" y="1327"/>
      <point x="436" y="1327" type="curve" smooth="yes"/>
      <point x="340" y="1327" type="line"/>
      <point x="340" y="166" type="line"/>
    </contour>
  </outline>
</glyph>
<glyph name="emacron" format="1">
  <advance width="1233"/>
  <unicode hex="0113"/>
  <note>
	emacron
  </note>
  <outline>
    <contour>
      <point x="353" y="1496" type="line"/>
      <point x="951" y="1496" type="line"/>
      <point x="951" y="1348" type="line"/>
      <point x="353" y="1348" type="line"/>
    </contour>
    <contour>
      <point x="504" y="-29"/>
      <point x="366" y="27"/>
      <point x="271" y="128" type="curve" smooth="yes"/>
      <point x="175" y="229"/>
      <point x="124" y="375"/>
      <point x="124" y="555" type="curve" smooth="yes"/>
      <point x="124" y="735"/>
      <point x="176" y="883"/>
      <point x="268" y="987" type="curve" smooth="yes"/>
      <point x="359" y="1090"/>
      <point x="489" y="1147"/>
      <point x="645" y="1147" type="curve" smooth="yes"/>
      <point x="793" y="1147"/>
      <point x="910" y="1095"/>
      <point x="990" y="1002" type="curve" smooth="yes"/>
      <point x="1070" y="909"/>
      <point x="1113" y="774"/>
      <point x="1113" y="606" type="curve" smooth="yes"/>
      <point x="1113" y="516" type="line"/>
      <point x="316" y="516" type="line"/>
      <point x="316" y="510" type="line" smooth="yes"/>
      <point x="316" y="387"/>
      <point x="350" y="292"/>
      <point x="412" y="227" type="curve" smooth="yes"/>
      <point x="474" y="162"/>
      <point x="565" y="127"/>
      <point x="680" y="127" type="curve" smooth="yes"/>
      <point x="800" y="127"/>
      <point x="925" y="164"/>
      <point x="1070" y="240" type="curve"/>
      <point x="1070" y="57" type="line"/>
      <point x="929" y="0"/>
      <point x="802" y="-29"/>
      <point x="677" y="-29" type="curve" smooth="yes"/>
    </contour>
    <contour>
      <point x="929" y="660" type="line"/>
      <point x="925" y="869"/>
      <point x="828" y="991"/>
      <point x="647" y="991" type="curve" smooth="yes"/>
      <point x="466" y="991"/>
      <point x="346" y="871"/>
      <point x="323" y="659" type="curve"/>
    </contour>
  </outline>
</glyph>
<glyph name="Edotaccent" format="1">
  <advance width="1233"/>
  <unicode hex="0116"/>
  <note>
	Edotaccent
  </note>
  <outline>
    <contour>
      <point x="561" y="1647" type="line" smooth="yes"/>
      <point x="541" y="1647"/>
      <point x="531" y="1657"/>
      <point x="531" y="1677" type="curve" smooth="yes"/>
      <point x="531" y="1822" type="line" smooth="yes"/>
      <point x="531" y="1842"/>
      <point x="541" y="1852"/>
      <point x="561" y="1852" type="curve" smooth="yes"/>
      <point x="706" y="1852" type="line" smooth="yes"/>
      <point x="726" y="1852"/>
      <point x="736" y="1842"/>
      <point x="736" y="1822" type="curve" smooth="yes"/>
      <point x="736" y="1677" type="line" smooth="yes"/>
      <point x="736" y="1657"/>
      <point x="726" y="1647"/>
      <point x="706" y="1647" type="curve" smooth="yes"/>
    </contour>
    <contour>
      <point x="197" y="1493" type="line"/>
      <point x="1083" y="1493" type="line"/>
      <point x="1083" y="1323" type="line"/>
      <point x="399" y="1323" type="line"/>
      <point x="399" y="881" type="line"/>
      <point x="1053" y="881" type="line"/>
      <point x="1053" y="711" type="line"/>
      <point x="399" y="711" type="line"/>
      <point x="399" y="170" type="line"/>
      <point x="1102" y="170" type="line"/>
      <point x="1102" y="0" type="line"/>
      <point x="197" y="0" type="line"/>
    </contour>
  </outline>
</glyph>
<glyph name="Eng" format="1">
  <advance width="1233"/>
  <unicode hex="014A"/>
  <note>
	Eng
  </note>
  <outline>
    <contour>
      <point x="536" y="-270" type="line"/>
      <point x="703" y="-270" type="line" smooth="yes"/>
      <point x="763" y="-270"/>
      <point x="808" y="-251"/>
      <point x="838" y="-208" type="curve" smooth="yes"/>
      <point x="868" y="-165"/>
      <point x="882" y="-97"/>
      <point x="882" y="0" type="curve" smooth="yes"/>
      <point x="882" y="1009" type="line" smooth="yes"/>
      <point x="882" y="1249"/>
      <point x="807" y="1358"/>
      <point x="642" y="1358" type="curve" smooth="yes"/>
      <point x="453" y="1358"/>
      <point x="349" y="1209"/>
      <point x="349" y="937" type="curve" smooth="yes"/>
      <point x="349" y="0" type="line"/>
      <point x="147" y="0" type="line"/>
      <point x="147" y="1493" type="line"/>
      <point x="331" y="1493" type="line"/>
      <point x="349" y="1295" type="line"/>
      <point x="421" y="1444"/>
      <point x="544" y="1522"/>
      <point x="713" y="1522" type="curve" smooth="yes"/>
      <point x="961" y="1522"/>
      <point x="1085" y="1348"/>
      <point x="1085" y="999" type="curve" smooth="yes"/>
      <point x="1085" y="-20" type="line" smooth="yes"/>
      <point x="1085" y="-281"/>
      <point x="962" y="-426"/>
      <point x="741" y="-426" type="curve" smooth="yes"/>
      <point x="536" y="-426" type="line"/>
    </contour>
  </outline>
</glyph>
<glyph name="tbar" format="1">
  <advance width="1233"/>
  <unicode hex="0167"/>
  <note>
	tbar
  </note>
  <outline>
    <contour>
      <point x="668" y="-4"/>
      <point x="575" y="20"/>
      <point x="515" y="79" type="curve" smooth="yes"/>
      <point x="455" y="138"/>
      <point x="430" y="229"/>
      <point x="430" y="365" type="curve" smooth="yes"/>
      <point x="430" y="602" type="line"/>
      <point x="201" y="602" type="line"/>
      <point x="201" y="744" type="line"/>
      <point x="430" y="744" type="line"/>
      <point x="430" y="977" type="line"/>
      <point x="131" y="977" type="line"/>
      <point x="131" y="1120" type="line"/>
      <point x="430" y="1120" type="line"/>
      <point x="430" y="1423" type="line"/>
      <point x="614" y="1493" type="line"/>
      <point x="614" y="1120" type="line"/>
      <point x="1032" y="1120" type="line"/>
      <point x="1032" y="977" type="line"/>
      <point x="614" y="977" type="line"/>
      <point x="614" y="744" type="line"/>
      <point x="843" y="744" type="line"/>
      <point x="843" y="602" type="line"/>
      <point x="614" y="602" type="line"/>
      <point x="614" y="365" type="line" smooth="yes"/>
      <point x="614" y="282"/>
      <point x="628" y="227"/>
      <point x="661" y="192" type="curve" smooth="yes"/>
      <point x="694" y="157"/>
      <point x="746" y="143"/>
      <point x="825" y="143" type="curve" smooth="yes"/>
      <point x="1032" y="143" type="line"/>
      <point x="1032" y="-4" type="line"/>
      <point x="807" y="-4" type="line" smooth="yes"/>
    </contour>
  </outline>
</glyph>
<glyph name="uogonek" format="1">
  <advance width="1233"/>
  <unicode hex="0173"/>
  <note>
	uogonek
  </note>
  <outline>
    <contour>
      <point x="1117" y="-272"/>
      <point x="1159" y="-262"/>
      <point x="1200" y="-242" type="curve"/>
      <point x="1200" y="-375" type="line"/>
      <point x="1144" y="-390"/>
      <point x="1106" y="-395"/>
      <point x="1057" y="-395" type="curve" smooth="yes"/>
      <point x="908" y="-395"/>
      <point x="827" y="-340"/>
      <point x="827" y="-221" type="curve" smooth="yes"/>
      <point x="827" y="-188"/>
      <point x="834" y="-156"/>
      <point x="851" y="-121" type="curve" smooth="yes"/>
      <point x="867" y="-86"/>
      <point x="894" y="-47"/>
      <point x="935" y="0" type="curve"/>
      <point x="866" y="0" type="line"/>
      <point x="866" y="168" type="line"/>
      <point x="801" y="39"/>
      <point x="687" y="-29"/>
      <point x="534" y="-29" type="curve" smooth="yes"/>
      <point x="305" y="-29"/>
      <point x="195" y="119"/>
      <point x="195" y="424" type="curve" smooth="yes"/>
      <point x="195" y="1118" type="line"/>
      <point x="379" y="1118" type="line"/>
      <point x="379" y="424" type="line" smooth="yes"/>
      <point x="379" y="223"/>
      <point x="449" y="131"/>
      <point x="598" y="131" type="curve" smooth="yes"/>
      <point x="773" y="131"/>
      <point x="866" y="256"/>
      <point x="866" y="485" type="curve" smooth="yes"/>
      <point x="866" y="1118" type="line"/>
      <point x="1051" y="1118" type="line"/>
      <point x="1051" y="0" type="line"/>
      <point x="1054" y="0" type="line"/>
      <point x="990" y="-87"/>
      <point x="966" y="-139"/>
      <point x="966" y="-184" type="curve" smooth="yes"/>
      <point x="966" y="-240"/>
      <point x="1004" y="-272"/>
      <point x="1076" y="-272" type="curve" smooth="yes"/>
    </contour>
  </outline>
</glyph>
<glyph name="Phook" format="1">
  <advance width="1233"/>
  <unicode hex="01A4"/>
  <outline>
    <contour>
      <point x="486" y="0" type="line"/>
      <point x="486" y="600" type="line"/>
      <point x="720" y="600" type="line" smooth="yes"/>
      <point x="1056" y="600"/>
      <point x="1228" y="754"/>
      <point x="1228" y="1045" type="curve" smooth="yes"/>
      <point x="1228" y="1185"/>
      <point x="1188" y="1302"/>
      <point x="1099" y="1380" type="curve" smooth="yes"/>
      <point x="1012" y="1456"/>
      <point x="881" y="1493"/>
      <point x="720" y="1493" type="curve" smooth="yes"/>
      <point x="284" y="1493" type="line" smooth="yes"/>
      <point x="229" y="1493"/>
      <point x="180" y="1483"/>
      <point x="138" y="1463" type="curve" smooth="yes"/>
      <point x="53" y="1422"/>
      <point x="5" y="1341"/>
      <point x="5" y="1234" type="curve" smooth="yes"/>
      <point x="5" y="1120" type="line"/>
      <point x="180" y="1120" type="line"/>
      <point x="180" y="1260"/>
      <point x="211" y="1327"/>
      <point x="284" y="1327" type="curve"/>
      <point x="284" y="0" type="line"/>
    </contour>
    <contour>
      <point x="486" y="1327" type="line"/>
      <point x="720" y="1327" type="line" smooth="yes"/>
      <point x="909" y="1327"/>
      <point x="1017" y="1224"/>
      <point x="1017" y="1048" type="curve" smooth="yes"/>
      <point x="1017" y="870"/>
      <point x="907" y="766"/>
      <point x="720" y="766" type="curve" smooth="yes"/>
      <point x="486" y="766" type="line"/>
    </contour>
  </outline>
</glyph>
<glyph name="Gcaron" format="1">
  <advance width="1233"/>
  <unicode hex="01E6"/>
  <note>
	Gcaron
  </note>
  <outline>
    <contour>
      <point x="401" y="1852" type="line"/>
      <point x="541" y="1852" type="line"/>
      <point x="706" y="1674" type="line"/>
      <point x="872" y="1852" type="line"/>
      <point x="1012" y="1852" type="line"/>
      <point x="801" y="1586" type="line"/>
      <point x="612" y="1586" type="line"/>
    </contour>
    <contour>
      <point x="512" y="-29"/>
      <point x="363" y="42"/>
      <point x="260" y="174" type="curve" smooth="yes"/>
      <point x="157" y="306"/>
      <point x="102" y="499"/>
      <point x="102" y="743" type="curve" smooth="yes"/>
      <point x="102" y="988"/>
      <point x="158" y="1182"/>
      <point x="262" y="1315" type="curve" smooth="yes"/>
      <point x="365" y="1448"/>
      <point x="515" y="1520"/>
      <point x="703" y="1520" type="curve" smooth="yes"/>
      <point x="835" y="1520"/>
      <point x="945" y="1485"/>
      <point x="1053" y="1413" type="curve"/>
      <point x="1053" y="1206" type="line"/>
      <point x="945" y="1310"/>
      <point x="835" y="1356"/>
      <point x="707" y="1356" type="curve" smooth="yes"/>
      <point x="440" y="1356"/>
      <point x="313" y="1155"/>
      <point x="313" y="739" type="curve" smooth="yes"/>
      <point x="313" y="330"/>
      <point x="438" y="135"/>
      <point x="705" y="135" type="curve" smooth="yes"/>
      <point x="790" y="135"/>
      <point x="855" y="155"/>
      <point x="911" y="199" type="curve"/>
      <point x="911" y="600" type="line"/>
      <point x="694" y="600" type="line"/>
      <point x="694" y="766" type="line"/>
      <point x="1104" y="766" type="line"/>
      <point x="1104" y="123" type="line"/>
      <point x="996" y="23"/>
      <point x="861" y="-29"/>
      <point x="700" y="-29" type="curve" smooth="yes"/>
    </contour>
  </outline>
</glyph>
<glyph name="oslashacute" format="1">
  <advance width="1233"/>
  <unicode hex="01FF"/>
  <note>
	oslashacute
  </note>
  <outline>
    <contour>
      <point x="756" y="1673" type="line"/>
      <point x="954" y="1673" type="line"/>
      <point x="629" y="1297" type="line"/>
      <point x="475" y="1297" type="line"/>
    </contour>
    <contour>
      <point x="47" y="-20" type="line"/>
      <point x="217" y="180" type="line"/>
      <point x="165" y="276"/>
      <point x="137" y="406"/>
      <point x="137" y="562" type="curve" smooth="yes"/>
      <point x="137" y="751"/>
      <point x="179" y="897"/>
      <point x="260" y="996" type="curve" smooth="yes"/>
      <point x="341" y="1095"/>
      <point x="462" y="1147"/>
      <point x="618" y="1147" type="curve" smooth="yes"/>
      <point x="749" y="1147"/>
      <point x="854" y="1112"/>
      <point x="934" y="1036" type="curve"/>
      <point x="1081" y="1212" type="line"/>
      <point x="1174" y="1135" type="line"/>
      <point x="1010" y="940" type="line"/>
      <point x="1066" y="852"/>
      <point x="1096" y="723"/>
      <point x="1096" y="560" type="curve" smooth="yes"/>
      <point x="1096" y="173"/>
      <point x="929" y="-29"/>
      <point x="616" y="-29" type="curve" smooth="yes"/>
      <point x="480" y="-29"/>
      <point x="374" y="11"/>
      <point x="299" y="90" type="curve"/>
      <point x="139" y="-96" type="line"/>
    </contour>
    <contour>
      <point x="817" y="897" type="line"/>
      <point x="769" y="964"/>
      <point x="700" y="991"/>
      <point x="619" y="991" type="curve" smooth="yes"/>
      <point x="524" y="991"/>
      <point x="452" y="953"/>
      <point x="403" y="884" type="curve" smooth="yes"/>
      <point x="354" y="815"/>
      <point x="328" y="713"/>
      <point x="328" y="584" type="curve" smooth="yes"/>
      <point x="328" y="508"/>
      <point x="337" y="436"/>
      <point x="356" y="340" type="curve"/>
    </contour>
    <contour>
      <point x="804" y="127"/>
      <point x="901" y="277"/>
      <point x="901" y="552" type="curve" smooth="yes"/>
      <point x="901" y="632"/>
      <point x="893" y="703"/>
      <point x="877" y="780" type="curve"/>
      <point x="414" y="221" type="line"/>
      <point x="462" y="158"/>
      <point x="529" y="127"/>
      <point x="615" y="127" type="curve" smooth="yes"/>
    </contour>
  </outline>
</glyph>
<glyph name="ogonek" format="1">
  <advance width="1233"/>
  <unicode hex="02DB"/>
  <note>
	ogonek
  </note>
  <outline>
    <contour>
      <point x="587" y="-83"/>
      <point x="559" y="-137"/>
      <point x="559" y="-180" type="curve" smooth="yes"/>
      <point x="559" y="-243"/>
      <point x="597" y="-272"/>
      <point x="668" y="-272" type="curve" smooth="yes"/>
      <point x="691" y="-272"/>
      <point x="712" y="-270"/>
      <point x="731" y="-265" type="curve" smooth="yes"/>
      <point x="752" y="-260"/>
      <point x="772" y="-253"/>
      <point x="793" y="-242" type="curve"/>
      <point x="793" y="-375" type="line"/>
      <point x="768" y="-382"/>
      <point x="744" y="-387"/>
      <point x="721" y="-390" type="curve" smooth="yes"/>
      <point x="698" y="-393"/>
      <point x="677" y="-395"/>
      <point x="657" y="-395" type="curve" smooth="yes"/>
      <point x="493" y="-395"/>
      <point x="420" y="-340"/>
      <point x="420" y="-215" type="curve" smooth="yes"/>
      <point x="420" y="-152"/>
      <point x="453" y="-99"/>
      <point x="480" y="-60" type="curve" smooth="yes"/>
      <point x="493" y="-41"/>
      <point x="509" y="-21"/>
      <point x="528" y="0" type="curve"/>
      <point x="647" y="0" type="line"/>
    </contour>
  </outline>
</glyph>
<glyph name="hookabovecomb" format="1">
  <advance width="0"/>
  <unicode hex="0309"/>
  <note>
	hookabovecomb
  </note>
  <outline>
    <contour>
      <point x="-494" y="1734"/>
      <point x="-415" y="1677"/>
      <point x="-410" y="1564" type="curve"/>
      <point x="-409" y="1562"/>
      <point x="-409" y="1559"/>
      <point x="-409" y="1554" type="curve" smooth="yes"/>
      <point x="-409" y="1511"/>
      <point x="-424" y="1473"/>
      <point x="-448" y="1439" type="curve" smooth="yes"/>
      <point x="-472" y="1405"/>
      <point x="-504" y="1375"/>
      <point x="-539" y="1354" type="curve"/>
      <point x="-539" y="1266" type="line"/>
      <point x="-687" y="1266" type="line"/>
      <point x="-687" y="1374" type="line"/>
      <point x="-642" y="1389"/>
      <point x="-604" y="1412"/>
      <point x="-571" y="1444" type="curve"/>
      <point x="-556" y="1457"/>
      <point x="-549" y="1481"/>
      <point x="-549" y="1517" type="curve" smooth="yes"/>
      <point x="-549" y="1580"/>
      <point x="-589" y="1611"/>
      <point x="-669" y="1611" type="curve" smooth="yes"/>
      <point x="-728" y="1611"/>
      <point x="-779" y="1600"/>
      <point x="-823" y="1579" type="curve"/>
      <point x="-823" y="1710" type="line"/>
      <point x="-766" y="1726"/>
      <point x="-708" y="1734"/>
      <point x="-647" y="1734" type="curve" smooth="yes"/>
    </contour>
  </outline>
</glyph>
<glyph name="tonos" format="1">
  <advance width="1233"/>
  <unicode hex="0384"/>
  <note>
	tonos
  </note>
  <outline>
    <contour>
      <point x="756" y="1638" type="line"/>
      <point x="954" y="1638" type="line"/>
      <point x="629" y="1262" type="line"/>
      <point x="475" y="1262" type="line"/>
    </contour>
  </outline>
</glyph>
<glyph name="Upsilontonos" format="1">
  <advance width="1233"/>
  <unicode hex="038E"/>
  <note>
	Upsilontonos
  </note>
  <outline>
    <contour>
      <point x="519" y="650" type="line" smooth="yes"/>
      <point x="519" y="730"/>
      <point x="507" y="821"/>
      <point x="487" y="910" type="curve" smooth="yes"/>
      <point x="466" y="998"/>
      <point x="438" y="1083"/>
      <point x="403" y="1152" type="curve" smooth="yes"/>
      <point x="368" y="1221"/>
      <point x="328" y="1274"/>
      <point x="285" y="1297" type="curve" smooth="yes"/>
      <point x="268" y="1306"/>
      <point x="241" y="1316"/>
      <point x="213" y="1322" type="curve" smooth="yes"/>
      <point x="185" y="1328"/>
      <point x="154" y="1332"/>
      <point x="127" y="1332" type="curve" smooth="yes"/>
      <point x="104" y="1332"/>
      <point x="76" y="1330"/>
      <point x="49" y="1323" type="curve"/>
      <point x="49" y="1493" type="line"/>
      <point x="73" y="1501"/>
      <point x="103" y="1504"/>
      <point x="135" y="1504" type="curve" smooth="yes"/>
      <point x="176" y="1504"/>
      <point x="232" y="1499"/>
      <point x="276" y="1490" type="curve" smooth="yes"/>
      <point x="367" y="1471"/>
      <point x="440" y="1429"/>
      <point x="497" y="1357" type="curve" smooth="yes"/>
      <point x="553" y="1285"/>
      <point x="594" y="1183"/>
      <point x="621" y="1044" type="curve"/>
      <point x="701" y="1316"/>
      <point x="817" y="1455"/>
      <point x="964" y="1490" type="curve" smooth="yes"/>
      <point x="991" y="1497"/>
      <point x="1010" y="1497"/>
      <point x="1023" y="1497" type="curve" smooth="yes"/>
      <point x="1075" y="1497"/>
      <point x="1126" y="1481"/>
      <point x="1163" y="1450" type="curve" smooth="yes"/>
      <point x="1200" y="1419"/>
      <point x="1224" y="1374"/>
      <point x="1224" y="1318" type="curve" smooth="yes"/>
      <point x="1224" y="1295"/>
      <point x="1221" y="1257"/>
      <point x="1206" y="1224" type="curve" smooth="yes"/>
      <point x="1183" y="1173"/>
      <point x="1144" y="1157"/>
      <point x="1105" y="1157" type="curve" smooth="yes"/>
      <point x="1070" y="1157"/>
      <point x="1037" y="1169"/>
      <point x="1010" y="1193" type="curve" smooth="yes"/>
      <point x="982" y="1217"/>
      <point x="961" y="1252"/>
      <point x="956" y="1297" type="curve"/>
      <point x="905" y="1262"/>
      <point x="863" y="1203"/>
      <point x="828" y="1132" type="curve" smooth="yes"/>
      <point x="793" y="1060"/>
      <point x="768" y="976"/>
      <point x="750" y="892" type="curve" smooth="yes"/>
      <point x="732" y="808"/>
      <point x="722" y="723"/>
      <point x="722" y="650" type="curve" smooth="yes"/>
      <point x="722" y="0" type="line"/>
      <point x="519" y="0" type="line"/>
    </contour>
    <contour>
      <point x="-188" y="1493" type="line"/>
      <point x="10" y="1493" type="line"/>
      <point x="-315" y="1117" type="line"/>
      <point x="-469" y="1117" type="line"/>
    </contour>
  </outline>
</glyph>
<glyph name="iotadieresistonos" format="1">
  <advance width="1233"/>
  <unicode hex="0390"/>
  <note>
	iotadieresistonos
  </note>
  <outline>
    <contour>
      <point x="766" y="1892" type="line"/>
      <point x="964" y="1892" type="line"/>
      <point x="639" y="1516" type="line"/>
      <point x="485" y="1516" type="line"/>
    </contour>
    <contour>
      <point x="272" y="1321" type="line" smooth="yes"/>
      <point x="252" y="1321"/>
      <point x="242" y="1331"/>
      <point x="242" y="1351" type="curve" smooth="yes"/>
      <point x="242" y="1493" type="line" smooth="yes"/>
      <point x="242" y="1513"/>
      <point x="252" y="1523"/>
      <point x="272" y="1523" type="curve" smooth="yes"/>
      <point x="415" y="1523" type="line" smooth="yes"/>
      <point x="435" y="1523"/>
      <point x="445" y="1513"/>
      <point x="445" y="1493" type="curve" smooth="yes"/>
      <point x="445" y="1351" type="line" smooth="yes"/>
      <point x="445" y="1331"/>
      <point x="435" y="1321"/>
      <point x="415" y="1321" type="curve" smooth="yes"/>
    </contour>
    <contour>
      <point x="749" y="1321" type="line" smooth="yes"/>
      <point x="729" y="1321"/>
      <point x="719" y="1331"/>
      <point x="719" y="1351" type="curve" smooth="yes"/>
      <point x="719" y="1493" type="line" smooth="yes"/>
      <point x="719" y="1513"/>
      <point x="729" y="1523"/>
      <point x="749" y="1523" type="curve" smooth="yes"/>
      <point x="891" y="1523" type="line" smooth="yes"/>
      <point x="911" y="1523"/>
      <point x="921" y="1513"/>
      <point x="921" y="1493" type="curve" smooth="yes"/>
      <point x="921" y="1351" type="line" smooth="yes"/>
      <point x="921" y="1331"/>
      <point x="911" y="1321"/>
      <point x="891" y="1321" type="curve" smooth="yes"/>
    </contour>
    <contour>
      <point x="864" y="-8" type="line" smooth="yes"/>
      <point x="624" y="-8"/>
      <point x="520" y="117"/>
      <point x="520" y="398" type="curve" smooth="yes"/>
      <point x="520" y="977" type="line"/>
      <point x="310" y="977" type="line"/>
      <point x="310" y="1120" type="line"/>
      <point x="708" y="1120" type="line"/>
      <point x="708" y="387" type="line" smooth="yes"/>
      <point x="708" y="291"/>
      <point x="716" y="231"/>
      <point x="743" y="195" type="curve" smooth="yes"/>
      <point x="770" y="159"/>
      <point x="814" y="148"/>
      <point x="886" y="148" type="curve" smooth="yes"/>
      <point x="975" y="148" type="line"/>
      <point x="975" y="-8" type="line"/>
    </contour>
  </outline>
</glyph>
<glyph name="Theta" format="1">
  <advance width="1233"/>
  <unicode hex="0398"/>
  <note>
	Theta
  </note>
  <outline>
    <contour>
      <point x="929" y="-29"/>
      <point x="1193" y="264"/>
      <point x="1193" y="684" type="curve" smooth="yes"/>
      <point x="1193" y="1070"/>
      <point x="969" y="1393"/>
      <point x="627" y="1393" type="curve" smooth="yes"/>
      <point x="286" y="1393"/>
      <point x="40" y="1071"/>
      <point x="40" y="676" type="curve" smooth="yes"/>
      <point x="40" y="289"/>
      <point x="275" y="-29"/>
      <point x="609" y="-29" type="curve" smooth="yes"/>
    </contour>
    <contour>
      <point x="357" y="156"/>
      <point x="243" y="404"/>
      <point x="243" y="679" type="curve" smooth="yes"/>
      <point x="243" y="941"/>
      <point x="346" y="1208"/>
      <point x="619" y="1208" type="curve" smooth="yes"/>
      <point x="891" y="1208"/>
      <point x="990" y="944"/>
      <point x="990" y="685" type="curve" smooth="yes"/>
      <point x="990" y="407"/>
      <point x="876" y="156"/>
      <point x="616" y="156" type="curve" smooth="yes"/>
    </contour>
    <contour>
      <point x="850" y="594" type="line"/>
      <point x="850" y="764" type="line"/>
      <point x="383" y="764" type="line"/>
      <point x="383" y="594" type="line"/>
    </contour>
  </outline>
</glyph>
<glyph name="Phi" format="1">
  <advance width="1233"/>
  <unicode hex="03A6"/>
  <note>
	Phi
  </note>
  <outline>
    <contour>
      <point x="368" y="170" type="line"/>
      <point x="515" y="170" type="line"/>
      <point x="515" y="286" type="line"/>
      <point x="396" y="298"/>
      <point x="297" y="335"/>
      <point x="228" y="408" type="curve" smooth="yes"/>
      <point x="159" y="480"/>
      <point x="118" y="589"/>
      <point x="118" y="745" type="curve" smooth="yes"/>
      <point x="118" y="901"/>
      <point x="159" y="1010"/>
      <point x="229" y="1083" type="curve" smooth="yes"/>
      <point x="299" y="1156"/>
      <point x="398" y="1193"/>
      <point x="515" y="1205" type="curve"/>
      <point x="515" y="1323" type="line"/>
      <point x="368" y="1323" type="line"/>
      <point x="368" y="1493" type="line"/>
      <point x="865" y="1493" type="line"/>
      <point x="865" y="1323" type="line"/>
      <point x="718" y="1323" type="line"/>
      <point x="718" y="1205" type="line"/>
      <point x="835" y="1193"/>
      <point x="935" y="1156"/>
      <point x="1005" y="1083" type="curve" smooth="yes"/>
      <point x="1075" y="1010"/>
      <point x="1115" y="901"/>
      <point x="1115" y="745" type="curve" smooth="yes"/>
      <point x="1115" y="589"/>
      <point x="1074" y="480"/>
      <point x="1005" y="408" type="curve" smooth="yes"/>
      <point x="936" y="335"/>
      <point x="835" y="298"/>
      <point x="718" y="286" type="curve"/>
      <point x="718" y="170" type="line"/>
      <point x="865" y="170" type="line"/>
      <point x="865" y="0" type="line"/>
      <point x="368" y="0" type="line"/>
    </contour>
    <contour>
      <point x="515" y="1029" type="line"/>
      <point x="464" y="1018"/>
      <point x="424" y="998"/>
      <point x="397" y="971" type="curve" smooth="yes"/>
      <point x="352" y="926"/>
      <point x="329" y="850"/>
      <point x="329" y="745" type="curve" smooth="yes"/>
      <point x="329" y="640"/>
      <point x="352" y="565"/>
      <point x="397" y="520" type="curve" smooth="yes"/>
      <point x="424" y="492"/>
      <point x="464" y="473"/>
      <point x="515" y="462" type="curve"/>
    </contour>
    <contour>
      <point x="718" y="462" type="line"/>
      <point x="774" y="474"/>
      <point x="814" y="497"/>
      <point x="837" y="520" type="curve" smooth="yes"/>
      <point x="882" y="565"/>
      <point x="904" y="640"/>
      <point x="904" y="745" type="curve" smooth="yes"/>
      <point x="904" y="851"/>
      <point x="882" y="926"/>
      <point x="837" y="971" type="curve" smooth="yes"/>
      <point x="810" y="998"/>
      <point x="770" y="1018"/>
      <point x="718" y="1029" type="curve"/>
    </contour>
  </outline>
</glyph>
<glyph name="uni03A9" format="1">
  <advance width="1233"/>
  <unicode hex="03A9"/>
  <note>
	uni03A9
  </note>
  <outline>
    <contour>
      <point x="74" y="172" type="line"/>
      <point x="319" y="172" type="line"/>
      <point x="156" y="348"/>
      <point x="86" y="530"/>
      <point x="86" y="783" type="curve" smooth="yes"/>
      <point x="86" y="989"/>
      <point x="134" y="1154"/>
      <point x="230" y="1277" type="curve" smooth="yes"/>
      <point x="325" y="1398"/>
      <point x="451" y="1460"/>
      <point x="614" y="1460" type="curve" smooth="yes"/>
      <point x="781" y="1460"/>
      <point x="908" y="1396"/>
      <point x="1001" y="1277" type="curve" smooth="yes"/>
      <point x="1097" y="1155"/>
      <point x="1145" y="990"/>
      <point x="1145" y="783" type="curve" smooth="yes"/>
      <point x="1145" y="656"/>
      <point x="1127" y="545"/>
      <point x="1090" y="450" type="curve" smooth="yes"/>
      <point x="1051" y="350"/>
      <point x="992" y="260"/>
      <point x="911" y="172" type="curve"/>
      <point x="1159" y="172" type="line"/>
      <point x="1159" y="0" type="line"/>
      <point x="696" y="0" type="line"/>
      <point x="696" y="172" type="line"/>
      <point x="856" y="273"/>
      <point x="910" y="462"/>
      <point x="933" y="589" type="curve" smooth="yes"/>
      <point x="944" y="652"/>
      <point x="950" y="719"/>
      <point x="950" y="790" type="curve" smooth="yes"/>
      <point x="950" y="945"/>
      <point x="922" y="1071"/>
      <point x="861" y="1162" type="curve" smooth="yes"/>
      <point x="804" y="1246"/>
      <point x="720" y="1294"/>
      <point x="616" y="1294" type="curve" smooth="yes"/>
      <point x="507" y="1294"/>
      <point x="427" y="1242"/>
      <point x="372" y="1162" type="curve" smooth="yes"/>
      <point x="313" y="1075"/>
      <point x="283" y="954"/>
      <point x="283" y="790" type="curve" smooth="yes"/>
      <point x="283" y="649"/>
      <point x="306" y="521"/>
      <point x="350" y="413" type="curve" smooth="yes"/>
      <point x="397" y="300"/>
      <point x="460" y="221"/>
      <point x="537" y="172" type="curve"/>
      <point x="537" y="0" type="line"/>
      <point x="74" y="0" type="line"/>
    </contour>
  </outline>
</glyph>
<glyph name="alphatonos" format="1">
  <advance width="1233"/>
  <unicode hex="03AC"/>
  <note>
	alphatonos
  </note>
  <outline>
    <contour>
      <point x="756" y="1673" type="line"/>
      <point x="954" y="1673" type="line"/>
      <point x="629" y="1297" type="line"/>
      <point x="475" y="1297" type="line"/>
    </contour>
    <contour>
      <point x="373" y="-25"/>
      <point x="264" y="28"/>
      <point x="188" y="127" type="curve" smooth="yes"/>
      <point x="112" y="226"/>
      <point x="70" y="369"/>
      <point x="70" y="552" type="curve" smooth="yes"/>
      <point x="70" y="756"/>
      <point x="122" y="905"/>
      <point x="205" y="1002" type="curve" smooth="yes"/>
      <point x="288" y="1098"/>
      <point x="400" y="1145"/>
      <point x="520" y="1145" type="curve" smooth="yes"/>
      <point x="611" y="1145"/>
      <point x="689" y="1118"/>
      <point x="749" y="1066" type="curve" smooth="yes"/>
      <point x="809" y="1013"/>
      <point x="850" y="932"/>
      <point x="869" y="827" type="curve"/>
      <point x="968" y="1120" type="line"/>
      <point x="1132" y="1120" type="line"/>
      <point x="927" y="513" type="line"/>
      <point x="967" y="294" type="line" smooth="yes"/>
      <point x="972" y="262"/>
      <point x="991" y="227"/>
      <point x="1014" y="201" type="curve" smooth="yes"/>
      <point x="1037" y="175"/>
      <point x="1063" y="156"/>
      <point x="1084" y="156" type="curve" smooth="yes"/>
      <point x="1172" y="156" type="line"/>
      <point x="1172" y="0" type="line"/>
      <point x="1062" y="0" type="line" smooth="yes"/>
      <point x="999" y="0"/>
      <point x="946" y="24"/>
      <point x="906" y="63" type="curve" smooth="yes"/>
      <point x="865" y="102"/>
      <point x="838" y="155"/>
      <point x="826" y="214" type="curve"/>
      <point x="795" y="142"/>
      <point x="761" y="83"/>
      <point x="712" y="41" type="curve" smooth="yes"/>
      <point x="663" y="-1"/>
      <point x="597" y="-25"/>
      <point x="508" y="-25" type="curve" smooth="yes"/>
    </contour>
    <contour>
      <point x="588" y="127"/>
      <point x="657" y="197"/>
      <point x="705" y="340" type="curve" smooth="yes"/>
      <point x="766" y="521" type="line"/>
      <point x="722" y="752" type="line" smooth="yes"/>
      <point x="706" y="839"/>
      <point x="676" y="899"/>
      <point x="640" y="937" type="curve" smooth="yes"/>
      <point x="603" y="975"/>
      <point x="559" y="991"/>
      <point x="515" y="991" type="curve" smooth="yes"/>
      <point x="450" y="991"/>
      <point x="388" y="955"/>
      <point x="341" y="879" type="curve" smooth="yes"/>
      <point x="290" y="795"/>
      <point x="264" y="676"/>
      <point x="264" y="547" type="curve" smooth="yes"/>
      <point x="264" y="408"/>
      <point x="295" y="303"/>
      <point x="340" y="233" type="curve" smooth="yes"/>
      <point x="385" y="163"/>
      <point x="445" y="127"/>
      <point x="504" y="127" type="curve" smooth="yes"/>
    </contour>
  </outline>
</glyph>
<glyph name="upsilondieresistonos" format="1">
  <advance width="1233"/>
  <unicode hex="03B0"/>
  <note>
	upsilondieresistonos
  </note>
  <outline>
    <contour>
      <point x="766" y="1894" type="line"/>
      <point x="964" y="1894" type="line"/>
      <point x="639" y="1518" type="line"/>
      <point x="485" y="1518" type="line"/>
    </contour>
    <contour>
      <point x="272" y="1326" type="line" smooth="yes"/>
      <point x="252" y="1326"/>
      <point x="242" y="1336"/>
      <point x="242" y="1356" type="curve" smooth="yes"/>
      <point x="242" y="1498" type="line" smooth="yes"/>
      <point x="242" y="1518"/>
      <point x="252" y="1528"/>
      <point x="272" y="1528" type="curve" smooth="yes"/>
      <point x="415" y="1528" type="line" smooth="yes"/>
      <point x="435" y="1528"/>
      <point x="445" y="1518"/>
      <point x="445" y="1498" type="curve" smooth="yes"/>
      <point x="445" y="1356" type="line" smooth="yes"/>
      <point x="445" y="1336"/>
      <point x="435" y="1326"/>
      <point x="415" y="1326" type="curve" smooth="yes"/>
    </contour>
    <contour>
      <point x="749" y="1326" type="line" smooth="yes"/>
      <point x="729" y="1326"/>
      <point x="719" y="1336"/>
      <point x="719" y="1356" type="curve" smooth="yes"/>
      <point x="719" y="1498" type="line" smooth="yes"/>
      <point x="719" y="1518"/>
      <point x="729" y="1528"/>
      <point x="749" y="1528" type="curve" smooth="yes"/>
      <point x="891" y="1528" type="line" smooth="yes"/>
      <point x="911" y="1528"/>
      <point x="921" y="1518"/>
      <point x="921" y="1498" type="curve" smooth="yes"/>
      <point x="921" y="1356" type="line" smooth="yes"/>
      <point x="921" y="1336"/>
      <point x="911" y="1326"/>
      <point x="891" y="1326" type="curve" smooth="yes"/>
    </contour>
    <contour>
      <point x="488" y="-6"/>
      <point x="401" y="25"/>
      <point x="345" y="91" type="curve" smooth="yes"/>
      <point x="289" y="157"/>
      <point x="262" y="257"/>
      <point x="262" y="400" type="curve"/>
      <point x="261" y="971" type="line"/>
      <point x="51" y="971" type="line"/>
      <point x="51" y="1114" type="line"/>
      <point x="450" y="1114" type="line"/>
      <point x="450" y="389" type="line" smooth="yes"/>
      <point x="450" y="293"/>
      <point x="458" y="233"/>
      <point x="485" y="197" type="curve" smooth="yes"/>
      <point x="512" y="161"/>
      <point x="556" y="150"/>
      <point x="628" y="150" type="curve" smooth="yes"/>
      <point x="728" y="150"/>
      <point x="801" y="209"/>
      <point x="853" y="299" type="curve" smooth="yes"/>
      <point x="904" y="389"/>
      <point x="931" y="510"/>
      <point x="942" y="634" type="curve"/>
      <point x="943" y="653"/>
      <point x="944" y="670"/>
      <point x="944" y="689" type="curve" smooth="yes"/>
      <point x="944" y="752"/>
      <point x="935" y="820"/>
      <point x="911" y="892" type="curve" smooth="yes"/>
      <point x="887" y="963"/>
      <point x="847" y="1038"/>
      <point x="786" y="1114" type="curve"/>
      <point x="972" y="1114" type="line"/>
      <point x="1065" y="994"/>
      <point x="1129" y="837"/>
      <point x="1129" y="632" type="curve" smooth="yes"/>
      <point x="1129" y="532"/>
      <point x="1110" y="428"/>
      <point x="1071" y="333" type="curve" smooth="yes"/>
      <point x="1032" y="238"/>
      <point x="975" y="154"/>
      <point x="898" y="93" type="curve" smooth="yes"/>
      <point x="821" y="32"/>
      <point x="724" y="-6"/>
      <point x="608" y="-6" type="curve" smooth="yes"/>
    </contour>
  </outline>
</glyph>
<glyph name="delta" format="1">
  <advance width="1233"/>
  <unicode hex="03B4"/>
  <note>
	delta
  </note>
  <outline>
    <contour>
      <point x="304" y="-29"/>
      <point x="137" y="174"/>
      <point x="137" y="559" type="curve" smooth="yes"/>
      <point x="137" y="760"/>
      <point x="183" y="903"/>
      <point x="260" y="996" type="curve" smooth="yes"/>
      <point x="279" y="1019"/>
      <point x="305" y="1044"/>
      <point x="334" y="1067" type="curve"/>
      <point x="323" y="1071"/>
      <point x="298" y="1093"/>
      <point x="275" y="1116" type="curve" smooth="yes"/>
      <point x="230" y="1163"/>
      <point x="213" y="1210"/>
      <point x="213" y="1269" type="curve" smooth="yes"/>
      <point x="213" y="1360"/>
      <point x="254" y="1435"/>
      <point x="331" y="1487" type="curve" smooth="yes"/>
      <point x="407" y="1539"/>
      <point x="518" y="1569"/>
      <point x="658" y="1569" type="curve" smooth="yes"/>
      <point x="709" y="1569"/>
      <point x="766" y="1565"/>
      <point x="799" y="1557" type="curve" smooth="yes"/>
      <point x="950" y="1521" type="line"/>
      <point x="950" y="1348" type="line"/>
      <point x="862" y="1380"/>
      <point x="755" y="1405"/>
      <point x="647" y="1402" type="curve" smooth="yes"/>
      <point x="615" y="1401" type="line" smooth="yes"/>
      <point x="568" y="1400"/>
      <point x="526" y="1388"/>
      <point x="482" y="1356" type="curve" smooth="yes"/>
      <point x="443" y="1328" type="line"/>
      <point x="425" y="1312"/>
      <point x="416" y="1288"/>
      <point x="416" y="1257" type="curve" smooth="yes"/>
      <point x="416" y="1214"/>
      <point x="432" y="1189"/>
      <point x="487" y="1161" type="curve"/>
      <point x="499" y="1156"/>
      <point x="514" y="1152"/>
      <point x="533" y="1151" type="curve"/>
      <point x="552" y="1149"/>
      <point x="579" y="1148"/>
      <point x="616" y="1147" type="curve" smooth="yes"/>
      <point x="937" y="1138"/>
      <point x="1096" y="941"/>
      <point x="1096" y="561" type="curve" smooth="yes"/>
      <point x="1096" y="173"/>
      <point x="930" y="-29"/>
      <point x="617" y="-29" type="curve" smooth="yes"/>
    </contour>
    <contour>
      <point x="805" y="127"/>
      <point x="901" y="274"/>
      <point x="901" y="559" type="curve" smooth="yes"/>
      <point x="901" y="846"/>
      <point x="805" y="991"/>
      <point x="616" y="991" type="curve" smooth="yes"/>
      <point x="428" y="991"/>
      <point x="332" y="846"/>
      <point x="332" y="559" type="curve" smooth="yes"/>
      <point x="332" y="274"/>
      <point x="428" y="127"/>
      <point x="616" y="127" type="curve" smooth="yes"/>
    </contour>
  </outline>
</glyph>
<glyph name="theta" format="1">
  <advance width="1233"/>
  <unicode hex="03B8"/>
  <note>
	theta
  </note>
  <outline>
    <contour>
      <point x="460" y="-29"/>
      <point x="341" y="38"/>
      <point x="260" y="167" type="curve" smooth="yes"/>
      <point x="179" y="295"/>
      <point x="137" y="486"/>
      <point x="137" y="735" type="curve" smooth="yes"/>
      <point x="137" y="983"/>
      <point x="179" y="1175"/>
      <point x="260" y="1304" type="curve" smooth="yes"/>
      <point x="341" y="1433"/>
      <point x="460" y="1500"/>
      <point x="616" y="1500" type="curve" smooth="yes"/>
      <point x="772" y="1500"/>
      <point x="892" y="1433"/>
      <point x="973" y="1304" type="curve" smooth="yes"/>
      <point x="1053" y="1175"/>
      <point x="1096" y="983"/>
      <point x="1096" y="734" type="curve" smooth="yes"/>
      <point x="1096" y="238"/>
      <point x="928" y="-29"/>
      <point x="616" y="-29" type="curve" smooth="yes"/>
    </contour>
    <contour>
      <point x="899" y="828" type="line"/>
      <point x="895" y="979"/>
      <point x="871" y="1107"/>
      <point x="825" y="1198" type="curve" smooth="yes"/>
      <point x="779" y="1289"/>
      <point x="709" y="1342"/>
      <point x="616" y="1342" type="curve" smooth="yes"/>
      <point x="523" y="1342"/>
      <point x="455" y="1289"/>
      <point x="409" y="1198" type="curve" smooth="yes"/>
      <point x="363" y="1107"/>
      <point x="338" y="979"/>
      <point x="334" y="828" type="curve"/>
    </contour>
    <contour>
      <point x="709" y="129"/>
      <point x="778" y="183"/>
      <point x="825" y="275" type="curve" smooth="yes"/>
      <point x="872" y="366"/>
      <point x="895" y="495"/>
      <point x="899" y="644" type="curve"/>
      <point x="334" y="644" type="line"/>
      <point x="338" y="495"/>
      <point x="362" y="366"/>
      <point x="408" y="275" type="curve" smooth="yes"/>
      <point x="454" y="183"/>
      <point x="523" y="129"/>
      <point x="616" y="129" type="curve" smooth="yes"/>
    </contour>
  </outline>
</glyph>
<glyph name="iota" format="1">
  <advance width="1233"/>
  <unicode hex="03B9"/>
  <note>
	iota
  </note>
  <outline>
    <contour>
      <point x="739" y="-8"/>
      <point x="653" y="28"/>
      <point x="602" y="88" type="curve" smooth="yes"/>
      <point x="547" y="153"/>
      <point x="520" y="261"/>
      <point x="520" y="398" type="curve" smooth="yes"/>
      <point x="520" y="977" type="line"/>
      <point x="310" y="977" type="line"/>
      <point x="310" y="1120" type="line"/>
      <point x="708" y="1120" type="line"/>
      <point x="708" y="387" type="line" smooth="yes"/>
      <point x="708" y="291"/>
      <point x="716" y="231"/>
      <point x="743" y="195" type="curve" smooth="yes"/>
      <point x="770" y="159"/>
      <point x="814" y="148"/>
      <point x="886" y="148" type="curve" smooth="yes"/>
      <point x="975" y="148" type="line"/>
      <point x="975" y="-8" type="line"/>
      <point x="864" y="-8" type="line" smooth="yes"/>
    </contour>
  </outline>
</glyph>
<glyph name="lambda" format="1">
  <advance width="1233"/>
  <unicode hex="03BB"/>
  <note>
	lambda
  </note>
  <outline>
    <contour>
      <point x="559" y="1074" type="line"/>
      <point x="485" y="1272" type="line" smooth="yes"/>
      <point x="452" y="1361"/>
      <point x="385" y="1398"/>
      <point x="284" y="1398" type="curve" smooth="yes"/>
      <point x="235" y="1398" type="line"/>
      <point x="235" y="1556" type="line"/>
      <point x="305" y="1554" type="line" smooth="yes"/>
      <point x="482" y="1549"/>
      <point x="599" y="1497"/>
      <point x="642" y="1381" type="curve" smooth="yes"/>
      <point x="1158" y="0" type="line"/>
      <point x="963" y="0" type="line"/>
      <point x="649" y="828" type="line"/>
      <point x="263" y="0" type="line"/>
      <point x="68" y="0" type="line"/>
    </contour>
  </outline>
</glyph>
<glyph name="xi" format="1">
  <advance width="1233"/>
  <unicode hex="03BE"/>
  <note>
	xi
  </note>
  <outline>
    <contour>
      <point x="763" y="-279" type="line"/>
      <point x="804" y="-282"/>
      <point x="841" y="-270"/>
      <point x="866" y="-248" type="curve" smooth="yes"/>
      <point x="891" y="-226"/>
      <point x="906" y="-195"/>
      <point x="906" y="-156" type="curve" smooth="yes"/>
      <point x="906" y="-95"/>
      <point x="869" y="-41"/>
      <point x="785" y="-29" type="curve" smooth="yes"/>
      <point x="766" y="-26"/>
      <point x="738" y="-24"/>
      <point x="700" y="-21" type="curve" smooth="yes"/>
      <point x="624" y="-16"/>
      <point x="529" y="-2"/>
      <point x="431" y="29" type="curve" smooth="yes"/>
      <point x="333" y="60"/>
      <point x="250" y="116"/>
      <point x="199" y="202" type="curve" smooth="yes"/>
      <point x="173" y="245"/>
      <point x="160" y="298"/>
      <point x="160" y="362" type="curve" smooth="yes"/>
      <point x="160" y="457"/>
      <point x="192" y="547"/>
      <point x="250" y="623" type="curve" smooth="yes"/>
      <point x="308" y="699"/>
      <point x="391" y="760"/>
      <point x="495" y="796" type="curve"/>
      <point x="307" y="819"/>
      <point x="215" y="925"/>
      <point x="215" y="1085" type="curve" smooth="yes"/>
      <point x="215" y="1226"/>
      <point x="284" y="1314"/>
      <point x="435" y="1371" type="curve"/>
      <point x="227" y="1371" type="line"/>
      <point x="227" y="1556" type="line"/>
      <point x="1016" y="1556" type="line"/>
      <point x="1016" y="1371" type="line"/>
      <point x="805" y="1371"/>
      <point x="649" y="1345"/>
      <point x="544" y="1298" type="curve" smooth="yes"/>
      <point x="439" y="1250"/>
      <point x="387" y="1181"/>
      <point x="387" y="1096" type="curve" smooth="yes"/>
      <point x="387" y="1021"/>
      <point x="427" y="971"/>
      <point x="513" y="936" type="curve" smooth="yes"/>
      <point x="599" y="901"/>
      <point x="730" y="884"/>
      <point x="915" y="880" type="curve"/>
      <point x="915" y="710" type="line"/>
      <point x="719" y="695"/>
      <point x="577" y="654"/>
      <point x="485" y="594" type="curve" smooth="yes"/>
      <point x="392" y="534"/>
      <point x="347" y="457"/>
      <point x="347" y="376" type="curve" smooth="yes"/>
      <point x="347" y="305"/>
      <point x="380" y="257"/>
      <point x="429" y="223" type="curve" smooth="yes"/>
      <point x="477" y="189"/>
      <point x="542" y="169"/>
      <point x="607" y="155" type="curve" smooth="yes"/>
      <point x="639" y="148"/>
      <point x="671" y="142"/>
      <point x="702" y="138" type="curve" smooth="yes"/>
      <point x="764" y="130"/>
      <point x="848" y="122"/>
      <point x="924" y="93" type="curve" smooth="yes"/>
      <point x="999" y="64"/>
      <point x="1044" y="21"/>
      <point x="1065" y="-37" type="curve" smooth="yes"/>
      <point x="1075" y="-66"/>
      <point x="1080" y="-100"/>
      <point x="1080" y="-137" type="curve" smooth="yes"/>
      <point x="1080" y="-222"/>
      <point x="1055" y="-295"/>
      <point x="1003" y="-347" type="curve" smooth="yes"/>
      <point x="951" y="-399"/>
      <point x="871" y="-430"/>
      <point x="763" y="-430" type="curve"/>
    </contour>
  </outline>
</glyph>
<glyph name="tau" format="1">
  <advance width="1233"/>
  <unicode hex="03C4"/>
  <note>
	tau
  </note>
  <outline>
    <contour>
      <point x="744" y="0"/>
      <point x="658" y="31"/>
      <point x="602" y="97" type="curve" smooth="yes"/>
      <point x="546" y="163"/>
      <point x="520" y="265"/>
      <point x="520" y="406" type="curve" smooth="yes"/>
      <point x="520" y="936" type="line"/>
      <point x="160" y="936" type="line"/>
      <point x="160" y="1118" type="line"/>
      <point x="1074" y="1118" type="line"/>
      <point x="1074" y="936" type="line"/>
      <point x="708" y="936" type="line"/>
      <point x="708" y="395" type="line" smooth="yes"/>
      <point x="708" y="202"/>
      <point x="742" y="156"/>
      <point x="886" y="156" type="curve" smooth="yes"/>
      <point x="975" y="156" type="line"/>
      <point x="975" y="0" type="line"/>
      <point x="864" y="0" type="line" smooth="yes"/>
    </contour>
  </outline>
</glyph>
<glyph name="upsilon" format="1">
  <advance width="1233"/>
  <unicode hex="03C5"/>
  <note>
	upsilon
  </note>
  <outline>
    <contour>
      <point x="484" y="0"/>
      <point x="401" y="31"/>
      <point x="346" y="97" type="curve" smooth="yes"/>
      <point x="290" y="163"/>
      <point x="262" y="263"/>
      <point x="262" y="406" type="curve"/>
      <point x="261" y="977" type="line"/>
      <point x="51" y="977" type="line"/>
      <point x="51" y="1120" type="line"/>
      <point x="450" y="1120" type="line"/>
      <point x="450" y="395" type="line" smooth="yes"/>
      <point x="450" y="311"/>
      <point x="457" y="252"/>
      <point x="480" y="213" type="curve" smooth="yes"/>
      <point x="503" y="173"/>
      <point x="541" y="156"/>
      <point x="604" y="156" type="curve" smooth="yes"/>
      <point x="717" y="156"/>
      <point x="799" y="213"/>
      <point x="853" y="302" type="curve" smooth="yes"/>
      <point x="907" y="391"/>
      <point x="934" y="512"/>
      <point x="942" y="640" type="curve" smooth="yes"/>
      <point x="943" y="656"/>
      <point x="944" y="677"/>
      <point x="944" y="698" type="curve" smooth="yes"/>
      <point x="944" y="758"/>
      <point x="935" y="826"/>
      <point x="911" y="898" type="curve" smooth="yes"/>
      <point x="887" y="969"/>
      <point x="847" y="1044"/>
      <point x="786" y="1120" type="curve"/>
      <point x="972" y="1120" type="line"/>
      <point x="1069" y="995"/>
      <point x="1129" y="832"/>
      <point x="1129" y="645" type="curve" smooth="yes"/>
      <point x="1129" y="542"/>
      <point x="1110" y="437"/>
      <point x="1073" y="342" type="curve" smooth="yes"/>
      <point x="1036" y="246"/>
      <point x="978" y="160"/>
      <point x="899" y="99" type="curve" smooth="yes"/>
      <point x="819" y="38"/>
      <point x="719" y="0"/>
      <point x="595" y="0" type="curve" smooth="yes"/>
    </contour>
  </outline>
</glyph>
<glyph name="phi" format="1">
  <advance width="1233"/>
  <unicode hex="03C6"/>
  <note>
	phi
  </note>
  <outline>
    <contour>
      <point x="525" y="-25" type="line"/>
      <point x="393" y="-25"/>
      <point x="280" y="28"/>
      <point x="201" y="129" type="curve" smooth="yes"/>
      <point x="122" y="229"/>
      <point x="76" y="378"/>
      <point x="76" y="570" type="curve" smooth="yes"/>
      <point x="76" y="759"/>
      <point x="120" y="891"/>
      <point x="191" y="979" type="curve" smooth="yes"/>
      <point x="262" y="1066"/>
      <point x="357" y="1111"/>
      <point x="460" y="1128" type="curve"/>
      <point x="460" y="965" type="line"/>
      <point x="375" y="932"/>
      <point x="314" y="831"/>
      <point x="289" y="731" type="curve" smooth="yes"/>
      <point x="276" y="680"/>
      <point x="270" y="622"/>
      <point x="270" y="557" type="curve" smooth="yes"/>
      <point x="270" y="414"/>
      <point x="300" y="310"/>
      <point x="347" y="241" type="curve" smooth="yes"/>
      <point x="394" y="172"/>
      <point x="457" y="139"/>
      <point x="525" y="139" type="curve"/>
      <point x="525" y="826" type="line" smooth="yes"/>
      <point x="525" y="1029"/>
      <point x="612" y="1128"/>
      <point x="763" y="1128" type="curve" smooth="yes"/>
      <point x="862" y="1128"/>
      <point x="960" y="1084"/>
      <point x="1034" y="992" type="curve" smooth="yes"/>
      <point x="1108" y="900"/>
      <point x="1157" y="758"/>
      <point x="1157" y="565" type="curve" smooth="yes"/>
      <point x="1157" y="373"/>
      <point x="1109" y="226"/>
      <point x="1029" y="127" type="curve" smooth="yes"/>
      <point x="949" y="27"/>
      <point x="836" y="-24"/>
      <point x="708" y="-24" type="curve"/>
      <point x="708" y="-426" type="line"/>
      <point x="525" y="-426" type="line"/>
    </contour>
    <contour>
      <point x="708" y="140" type="line"/>
      <point x="769" y="140"/>
      <point x="833" y="170"/>
      <point x="882" y="238" type="curve" smooth="yes"/>
      <point x="930" y="306"/>
      <point x="963" y="414"/>
      <point x="963" y="570" type="curve" smooth="yes"/>
      <point x="963" y="719"/>
      <point x="933" y="814"/>
      <point x="886" y="881" type="curve" smooth="yes"/>
      <point x="845" y="940"/>
      <point x="796" y="971"/>
      <point x="767" y="971" type="curve" smooth="yes"/>
      <point x="750" y="971"/>
      <point x="736" y="959"/>
      <point x="725" y="935" type="curve" smooth="yes"/>
      <point x="714" y="910"/>
      <point x="708" y="874"/>
      <point x="708" y="826" type="curve" smooth="yes"/>
    </contour>
  </outline>
</glyph>
<glyph name="omega" format="1">
  <advance width="1233"/>
  <unicode hex="03C9"/>
  <note>
	omega
  </note>
  <outline>
    <contour>
      <point x="258" y="-29"/>
      <point x="183" y="24"/>
      <point x="136" y="121" type="curve" smooth="yes"/>
      <point x="89" y="217"/>
      <point x="70" y="356"/>
      <point x="70" y="531" type="curve" smooth="yes"/>
      <point x="70" y="647"/>
      <point x="79" y="744"/>
      <point x="100" y="837" type="curve" smooth="yes"/>
      <point x="120" y="929"/>
      <point x="153" y="1019"/>
      <point x="201" y="1120" type="curve"/>
      <point x="391" y="1120" type="line"/>
      <point x="346" y="1017"/>
      <point x="314" y="926"/>
      <point x="294" y="830" type="curve" smooth="yes"/>
      <point x="274" y="734"/>
      <point x="265" y="633"/>
      <point x="265" y="512" type="curve" smooth="yes"/>
      <point x="265" y="383"/>
      <point x="275" y="287"/>
      <point x="295" y="223" type="curve" smooth="yes"/>
      <point x="315" y="159"/>
      <point x="347" y="127"/>
      <point x="390" y="127" type="curve" smooth="yes"/>
      <point x="439" y="127"/>
      <point x="487" y="168"/>
      <point x="507" y="240" type="curve" smooth="yes"/>
      <point x="515" y="269"/>
      <point x="521" y="315"/>
      <point x="526" y="388" type="curve" smooth="yes"/>
      <point x="530" y="461"/>
      <point x="532" y="562"/>
      <point x="532" y="699" type="curve"/>
      <point x="702" y="699" type="line"/>
      <point x="702" y="558"/>
      <point x="704" y="460"/>
      <point x="708" y="389" type="curve" smooth="yes"/>
      <point x="712" y="317"/>
      <point x="719" y="273"/>
      <point x="728" y="241" type="curve" smooth="yes"/>
      <point x="747" y="170"/>
      <point x="787" y="127"/>
      <point x="832" y="127" type="curve" smooth="yes"/>
      <point x="861" y="127"/>
      <point x="887" y="145"/>
      <point x="907" y="172" type="curve" smooth="yes"/>
      <point x="927" y="199"/>
      <point x="943" y="234"/>
      <point x="952" y="270" type="curve"/>
      <point x="956" y="289"/>
      <point x="961" y="312"/>
      <point x="964" y="351" type="curve" smooth="yes"/>
      <point x="967" y="390"/>
      <point x="969" y="445"/>
      <point x="969" y="526" type="curve" smooth="yes"/>
      <point x="969" y="558" type="line" smooth="yes"/>
      <point x="969" y="749"/>
      <point x="927" y="937"/>
      <point x="843" y="1120" type="curve"/>
      <point x="1033" y="1120" type="line"/>
      <point x="1081" y="1019"/>
      <point x="1114" y="929"/>
      <point x="1135" y="837" type="curve" smooth="yes"/>
      <point x="1155" y="744"/>
      <point x="1164" y="647"/>
      <point x="1164" y="531" type="curve" smooth="yes"/>
      <point x="1164" y="356"/>
      <point x="1145" y="217"/>
      <point x="1098" y="121" type="curve" smooth="yes"/>
      <point x="1050" y="24"/>
      <point x="976" y="-29"/>
      <point x="865" y="-29" type="curve" smooth="yes"/>
      <point x="797" y="-29"/>
      <point x="741" y="-9"/>
      <point x="701" y="24" type="curve" smooth="yes"/>
      <point x="660" y="56"/>
      <point x="632" y="101"/>
      <point x="617" y="150" type="curve"/>
      <point x="602" y="101"/>
      <point x="574" y="56"/>
      <point x="533" y="24" type="curve" smooth="yes"/>
      <point x="492" y="-9"/>
      <point x="437" y="-29"/>
      <point x="369" y="-29" type="curve" smooth="yes"/>
    </contour>
  </outline>
</glyph>
<glyph name="uni03F6" format="1">
  <advance width="1233"/>
  <unicode hex="03F6"/>
  <note>
	uni03F6
  </note>
  <outline>
    <contour>
      <point x="381" y="-29"/>
      <point x="304" y="-22"/>
      <point x="241" y="-7" type="curve" smooth="yes"/>
      <point x="162" y="11" type="line"/>
      <point x="162" y="178" type="line"/>
      <point x="236" y="153" type="line" smooth="yes"/>
      <point x="287" y="136"/>
      <point x="361" y="127"/>
      <point x="429" y="127" type="curve" smooth="yes"/>
      <point x="560" y="127"/>
      <point x="657" y="161"/>
      <point x="723" y="222" type="curve" smooth="yes"/>
      <point x="789" y="283"/>
      <point x="826" y="374"/>
      <point x="839" y="487" type="curve"/>
      <point x="162" y="487" type="line"/>
      <point x="162" y="631" type="line"/>
      <point x="839" y="631" type="line"/>
      <point x="827" y="743"/>
      <point x="790" y="833"/>
      <point x="724" y="895" type="curve" smooth="yes"/>
      <point x="658" y="957"/>
      <point x="562" y="991"/>
      <point x="437" y="991" type="curve" smooth="yes"/>
      <point x="365" y="991"/>
      <point x="293" y="980"/>
      <point x="236" y="965" type="curve" smooth="yes"/>
      <point x="216" y="960"/>
      <point x="187" y="951"/>
      <point x="162" y="942" type="curve"/>
      <point x="162" y="1105" type="line"/>
      <point x="179" y="1110"/>
      <point x="192" y="1114"/>
      <point x="204" y="1117" type="curve" smooth="yes"/>
      <point x="215" y="1120"/>
      <point x="226" y="1122"/>
      <point x="241" y="1125" type="curve" smooth="yes"/>
      <point x="317" y="1140"/>
      <point x="384" y="1147"/>
      <point x="449" y="1147" type="curve" smooth="yes"/>
      <point x="630" y="1147"/>
      <point x="777" y="1092"/>
      <point x="878" y="991" type="curve" smooth="yes"/>
      <point x="978" y="890"/>
      <point x="1033" y="744"/>
      <point x="1033" y="560" type="curve" smooth="yes"/>
      <point x="1033" y="376"/>
      <point x="977" y="228"/>
      <point x="877" y="127" type="curve" smooth="yes"/>
      <point x="776" y="26"/>
      <point x="630" y="-29"/>
      <point x="450" y="-29" type="curve" smooth="yes"/>
    </contour>
  </outline>
</glyph>
<glyph name="uni0402" format="1">
  <advance width="1233"/>
  <unicode hex="0402"/>
  <note>
	uni0402
  </note>
  <outline>
    <contour>
      <point x="651" y="-470"/>
      <point x="643" y="-470"/>
      <point x="634" y="-470" type="curve" smooth="yes"/>
      <point x="617" y="-470"/>
      <point x="601" y="-469"/>
      <point x="589" y="-468" type="curve"/>
      <point x="583" y="-468"/>
      <point x="579" y="-468"/>
      <point x="576" y="-468" type="curve"/>
      <point x="573" y="-287" type="line"/>
      <point x="651" y="-304" type="line"/>
      <point x="660" y="-305"/>
      <point x="667" y="-306"/>
      <point x="687" y="-306" type="curve" smooth="yes"/>
      <point x="776" y="-306"/>
      <point x="838" y="-285"/>
      <point x="877" y="-231" type="curve" smooth="yes"/>
      <point x="916" y="-177"/>
      <point x="932" y="-89"/>
      <point x="932" y="46" type="curve" smooth="yes"/>
      <point x="932" y="462" type="line" smooth="yes"/>
      <point x="932" y="667"/>
      <point x="863" y="755"/>
      <point x="706" y="755" type="curve" smooth="yes"/>
      <point x="639" y="755"/>
      <point x="579" y="740"/>
      <point x="520" y="713" type="curve" smooth="yes"/>
      <point x="489" y="698"/>
      <point x="471" y="687"/>
      <point x="452" y="664" type="curve" smooth="yes"/>
      <point x="408" y="611"/>
      <point x="383" y="513"/>
      <point x="383" y="401" type="curve" smooth="yes"/>
      <point x="383" y="0" type="line"/>
      <point x="180" y="0" type="line"/>
      <point x="180" y="1325" type="line"/>
      <point x="-46" y="1325" type="line"/>
      <point x="-46" y="1495" type="line"/>
      <point x="828" y="1495" type="line"/>
      <point x="828" y="1325" type="line"/>
      <point x="383" y="1325" type="line"/>
      <point x="383" y="800" type="line"/>
      <point x="412" y="833"/>
      <point x="433" y="847"/>
      <point x="468" y="866" type="curve"/>
      <point x="473" y="869"/>
      <point x="477" y="871"/>
      <point x="480" y="872" type="curve" smooth="yes"/>
      <point x="483" y="873"/>
      <point x="486" y="875"/>
      <point x="489" y="877" type="curve"/>
      <point x="492" y="878"/>
      <point x="495" y="880"/>
      <point x="499" y="882" type="curve" smooth="yes"/>
      <point x="503" y="884"/>
      <point x="509" y="887"/>
      <point x="516" y="892" type="curve"/>
      <point x="557" y="916"/>
      <point x="628" y="932"/>
      <point x="729" y="939" type="curve" smooth="yes"/>
      <point x="746" y="940"/>
      <point x="758" y="941"/>
      <point x="777" y="941" type="curve" smooth="yes"/>
      <point x="881" y="941"/>
      <point x="968" y="913"/>
      <point x="1025" y="857" type="curve" smooth="yes"/>
      <point x="1037" y="846"/>
      <point x="1047" y="833"/>
      <point x="1050" y="828" type="curve"/>
      <point x="1107" y="753"/>
      <point x="1135" y="640"/>
      <point x="1135" y="488" type="curve" smooth="yes"/>
      <point x="1135" y="46" type="line" smooth="yes"/>
      <point x="1135" y="-145"/>
      <point x="1103" y="-272"/>
      <point x="1027" y="-354" type="curve" smooth="yes"/>
      <point x="951" y="-436"/>
      <point x="831" y="-470"/>
      <point x="658" y="-470" type="curve" smooth="yes"/>
    </contour>
  </outline>
</glyph>
<glyph name="uni0404" format="1">
  <advance width="1233"/>
  <unicode hex="0404"/>
  <note>
	uni0404
  </note>
  <outline>
    <contour>
      <point x="541" y="-29"/>
      <point x="391" y="42"/>
      <point x="288" y="174" type="curve" smooth="yes"/>
      <point x="184" y="306"/>
      <point x="129" y="499"/>
      <point x="129" y="743" type="curve" smooth="yes"/>
      <point x="129" y="988"/>
      <point x="185" y="1183"/>
      <point x="289" y="1316" type="curve" smooth="yes"/>
      <point x="392" y="1448"/>
      <point x="542" y="1520"/>
      <point x="733" y="1520" type="curve" smooth="yes"/>
      <point x="850" y="1520"/>
      <point x="960" y="1493"/>
      <point x="1063" y="1438" type="curve"/>
      <point x="1063" y="1231" type="line"/>
      <point x="962" y="1314"/>
      <point x="849" y="1356"/>
      <point x="724" y="1356" type="curve" smooth="yes"/>
      <point x="596" y="1356"/>
      <point x="509" y="1310"/>
      <point x="450" y="1222" type="curve" smooth="yes"/>
      <point x="391" y="1134"/>
      <point x="361" y="1003"/>
      <point x="345" y="831" type="curve"/>
      <point x="972" y="831" type="line"/>
      <point x="972" y="661" type="line"/>
      <point x="340" y="661" type="line"/>
      <point x="343" y="510"/>
      <point x="375" y="379"/>
      <point x="439" y="285" type="curve" smooth="yes"/>
      <point x="503" y="191"/>
      <point x="599" y="135"/>
      <point x="731" y="135" type="curve" smooth="yes"/>
      <point x="848" y="135"/>
      <point x="964" y="177"/>
      <point x="1063" y="260" type="curve"/>
      <point x="1063" y="53" type="line"/>
      <point x="960" y="-2"/>
      <point x="850" y="-29"/>
      <point x="733" y="-29" type="curve" smooth="yes"/>
    </contour>
  </outline>
</glyph>
<glyph name="uni0407" format="1">
  <advance width="1233"/>
  <unicode hex="0407"/>
  <note>
	uni0407
  </note>
  <outline>
    <contour>
      <point x="349" y="1649" type="line" smooth="yes"/>
      <point x="329" y="1649"/>
      <point x="319" y="1659"/>
      <point x="319" y="1679" type="curve" smooth="yes"/>
      <point x="319" y="1822" type="line" smooth="yes"/>
      <point x="319" y="1842"/>
      <point x="329" y="1852"/>
      <point x="349" y="1852" type="curve" smooth="yes"/>
      <point x="492" y="1852" type="line" smooth="yes"/>
      <point x="512" y="1852"/>
      <point x="522" y="1842"/>
      <point x="522" y="1822" type="curve" smooth="yes"/>
      <point x="522" y="1679" type="line" smooth="yes"/>
      <point x="522" y="1659"/>
      <point x="512" y="1649"/>
      <point x="492" y="1649" type="curve" smooth="yes"/>
    </contour>
    <contour>
      <point x="741" y="1649" type="line" smooth="yes"/>
      <point x="721" y="1649"/>
      <point x="711" y="1659"/>
      <point x="711" y="1679" type="curve" smooth="yes"/>
      <point x="711" y="1822" type="line" smooth="yes"/>
      <point x="711" y="1842"/>
      <point x="721" y="1852"/>
      <point x="741" y="1852" type="curve" smooth="yes"/>
      <point x="883" y="1852" type="line" smooth="yes"/>
      <point x="903" y="1852"/>
      <point x="913" y="1842"/>
      <point x="913" y="1822" type="curve" smooth="yes"/>
      <point x="913" y="1679" type="line" smooth="yes"/>
      <point x="913" y="1659"/>
      <point x="903" y="1649"/>
      <point x="883" y="1649" type="curve" smooth="yes"/>
    </contour>
    <contour>
      <point x="201" y="170" type="line"/>
      <point x="514" y="170" type="line"/>
      <point x="514" y="1323" type="line"/>
      <point x="201" y="1323" type="line"/>
      <point x="201" y="1493" type="line"/>
      <point x="1030" y="1493" type="line"/>
      <point x="1030" y="1323" type="line"/>
      <point x="717" y="1323" type="line"/>
      <point x="717" y="170" type="line"/>
      <point x="1030" y="170" type="line"/>
      <point x="1030" y="0" type="line"/>
      <point x="201" y="0" type="line"/>
    </contour>
  </outline>
</glyph>
<glyph name="uni0412" format="1">
  <advance width="1233"/>
  <unicode hex="0412"/>
  <note>
	uni0412
  </note>
  <outline>
    <contour>
      <point x="166" y="1493" type="line"/>
      <point x="608" y="1493" type="line" smooth="yes"/>
      <point x="760" y="1493"/>
      <point x="880" y="1459"/>
      <point x="961" y="1394" type="curve" smooth="yes"/>
      <point x="1042" y="1329"/>
      <point x="1085" y="1234"/>
      <point x="1085" y="1110" type="curve" smooth="yes"/>
      <point x="1085" y="931"/>
      <point x="998" y="826"/>
      <point x="823" y="799" type="curve"/>
      <point x="920" y="784"/>
      <point x="999" y="742"/>
      <point x="1053" y="675" type="curve" smooth="yes"/>
      <point x="1107" y="607"/>
      <point x="1137" y="516"/>
      <point x="1137" y="407" type="curve" smooth="yes"/>
      <point x="1137" y="139"/>
      <point x="961" y="0"/>
      <point x="608" y="0" type="curve" smooth="yes"/>
      <point x="166" y="0" type="line"/>
    </contour>
    <contour>
      <point x="604" y="877" type="line" smooth="yes"/>
      <point x="796" y="877"/>
      <point x="881" y="947"/>
      <point x="881" y="1110" type="curve" smooth="yes"/>
      <point x="881" y="1187"/>
      <point x="862" y="1241"/>
      <point x="818" y="1277" type="curve" smooth="yes"/>
      <point x="773" y="1312"/>
      <point x="704" y="1327"/>
      <point x="604" y="1327" type="curve" smooth="yes"/>
      <point x="369" y="1327" type="line"/>
      <point x="369" y="877" type="line"/>
    </contour>
    <contour>
      <point x="608" y="166" type="line" smooth="yes"/>
      <point x="725" y="166"/>
      <point x="807" y="186"/>
      <point x="859" y="228" type="curve" smooth="yes"/>
      <point x="911" y="270"/>
      <point x="934" y="336"/>
      <point x="934" y="429" type="curve" smooth="yes"/>
      <point x="934" y="625"/>
      <point x="833" y="713"/>
      <point x="608" y="713" type="curve" smooth="yes"/>
      <point x="369" y="713" type="line"/>
      <point x="369" y="166" type="line"/>
    </contour>
  </outline>
</glyph>
<glyph name="uni0414" format="1">
  <advance width="1233"/>
  <unicode hex="0414"/>
  <note>
	uni0414
  </note>
  <outline>
    <contour>
      <point x="33" y="170" type="line"/>
      <point x="110" y="170" type="line" smooth="yes"/>
      <point x="121" y="170"/>
      <point x="131" y="183"/>
      <point x="141" y="209" type="curve" smooth="yes"/>
      <point x="161" y="260"/>
      <point x="179" y="349"/>
      <point x="193" y="464" type="curve" smooth="yes"/>
      <point x="207" y="579"/>
      <point x="218" y="707"/>
      <point x="223" y="839" type="curve" smooth="yes"/>
      <point x="226" y="904"/>
      <point x="227" y="967"/>
      <point x="227" y="1027" type="curve" smooth="yes"/>
      <point x="227" y="1493" type="line"/>
      <point x="1079" y="1493" type="line"/>
      <point x="1079" y="170" type="line"/>
      <point x="1200" y="170" type="line"/>
      <point x="1200" y="-322" type="line"/>
      <point x="1030" y="-322" type="line"/>
      <point x="1030" y="0" type="line"/>
      <point x="203" y="0" type="line"/>
      <point x="203" y="-322" type="line"/>
      <point x="33" y="-322" type="line"/>
    </contour>
    <contour>
      <point x="876" y="170" type="line"/>
      <point x="876" y="1323" type="line"/>
      <point x="430" y="1323" type="line"/>
      <point x="430" y="1026" type="line" smooth="yes"/>
      <point x="430" y="926"/>
      <point x="424" y="805"/>
      <point x="416" y="687" type="curve" smooth="yes"/>
      <point x="408" y="569"/>
      <point x="397" y="454"/>
      <point x="389" y="367" type="curve" smooth="yes"/>
      <point x="384" y="323"/>
      <point x="380" y="287"/>
      <point x="377" y="260" type="curve" smooth="yes"/>
      <point x="374" y="233"/>
      <point x="371" y="217"/>
      <point x="370" y="214" type="curve"/>
      <point x="366" y="205"/>
      <point x="364" y="197"/>
      <point x="364" y="192" type="curve" smooth="yes"/>
      <point x="364" y="177"/>
      <point x="380" y="170"/>
      <point x="411" y="170" type="curve" smooth="yes"/>
    </contour>
  </outline>
</glyph>
<glyph name="uni041B" format="1">
  <advance width="1233"/>
  <unicode hex="041B"/>
  <note>
	uni041B
  </note>
  <outline>
    <contour>
      <point x="14" y="164" type="line"/>
      <point x="109" y="164"/>
      <point x="171" y="183"/>
      <point x="212" y="236" type="curve" smooth="yes"/>
      <point x="253" y="289"/>
      <point x="272" y="377"/>
      <point x="280" y="516" type="curve" smooth="yes"/>
      <point x="284" y="577"/>
      <point x="286" y="664"/>
      <point x="288" y="761" type="curve" smooth="yes"/>
      <point x="290" y="858"/>
      <point x="290" y="964"/>
      <point x="290" y="1067" type="curve" smooth="yes"/>
      <point x="290" y="1493" type="line"/>
      <point x="1104" y="1493" type="line"/>
      <point x="1104" y="0" type="line"/>
      <point x="901" y="0" type="line"/>
      <point x="901" y="1323" type="line"/>
      <point x="493" y="1323" type="line"/>
      <point x="493" y="1073" type="line"/>
      <point x="493" y="888" type="line" smooth="yes"/>
      <point x="493" y="717"/>
      <point x="491" y="559"/>
      <point x="475" y="426" type="curve" smooth="yes"/>
      <point x="458" y="293"/>
      <point x="426" y="186"/>
      <point x="369" y="119" type="curve" smooth="yes"/>
      <point x="301" y="40"/>
      <point x="183" y="0"/>
      <point x="14" y="0" type="curve"/>
    </contour>
  </outline>
</glyph>
<glyph name="uni0422" format="1">
  <advance width="1233"/>
  <unicode hex="0422"/>
  <note>
	uni0422
  </note>
  <outline>
    <contour>
      <point x="516" y="1323" type="line"/>
      <point x="47" y="1323" type="line"/>
      <point x="47" y="1493" type="line"/>
      <point x="1186" y="1493" type="line"/>
      <point x="1186" y="1323" type="line"/>
      <point x="719" y="1323" type="line"/>
      <point x="719" y="0" type="line"/>
      <point x="516" y="0" type="line"/>
    </contour>
  </outline>
</glyph>
<glyph name="uni0428" format="1">
  <advance width="1233"/>
  <unicode hex="0428"/>
  <note>
	uni0428
  </note>
  <outline>
    <contour>
      <point x="114" y="1493" type="line"/>
      <point x="300" y="1493" type="line"/>
      <point x="300" y="170" type="line"/>
      <point x="524" y="170" type="line"/>
      <point x="524" y="1493" type="line"/>
      <point x="710" y="1493" type="line"/>
      <point x="710" y="170" type="line"/>
      <point x="934" y="170" type="line"/>
      <point x="934" y="1493" type="line"/>
      <point x="1120" y="1493" type="line"/>
      <point x="1120" y="0" type="line"/>
      <point x="114" y="0" type="line"/>
    </contour>
  </outline>
</glyph>
<glyph name="uni042A" format="1">
  <advance width="1233"/>
  <unicode hex="042A"/>
  <note>
	uni042A
  </note>
  <outline>
    <contour>
      <point x="313" y="1323" type="line"/>
      <point x="52" y="1323" type="line"/>
      <point x="52" y="1493" type="line"/>
      <point x="515" y="1493" type="line"/>
      <point x="515" y="893" type="line"/>
      <point x="653" y="893" type="line" smooth="yes"/>
      <point x="990" y="893"/>
      <point x="1161" y="742"/>
      <point x="1161" y="447" type="curve" smooth="yes"/>
      <point x="1161" y="151"/>
      <point x="988" y="0"/>
      <point x="653" y="0" type="curve" smooth="yes"/>
      <point x="313" y="0" type="line"/>
    </contour>
    <contour>
      <point x="653" y="166" type="line" smooth="yes"/>
      <point x="842" y="166"/>
      <point x="950" y="267"/>
      <point x="950" y="446" type="curve" smooth="yes"/>
      <point x="950" y="625"/>
      <point x="841" y="727"/>
      <point x="653" y="727" type="curve" smooth="yes"/>
      <point x="515" y="727" type="line"/>
      <point x="515" y="166" type="line"/>
    </contour>
  </outline>
</glyph>
<glyph name="uni042B" format="1">
  <advance width="1233"/>
  <unicode hex="042B"/>
  <note>
	uni042B
  </note>
  <outline>
    <contour>
      <point x="65" y="1493" type="line"/>
      <point x="267" y="1493" type="line"/>
      <point x="267" y="893" type="line"/>
      <point x="358" y="893" type="line" smooth="yes"/>
      <point x="487" y="893"/>
      <point x="600" y="855"/>
      <point x="681" y="780" type="curve" smooth="yes"/>
      <point x="761" y="705"/>
      <point x="809" y="594"/>
      <point x="809" y="447" type="curve" smooth="yes"/>
      <point x="809" y="300"/>
      <point x="760" y="188"/>
      <point x="680" y="113" type="curve" smooth="yes"/>
      <point x="599" y="38"/>
      <point x="486" y="0"/>
      <point x="358" y="0" type="curve" smooth="yes"/>
      <point x="65" y="0" type="line"/>
    </contour>
    <contour>
      <point x="931" y="1493" type="line"/>
      <point x="1134" y="1493" type="line"/>
      <point x="1134" y="0" type="line"/>
      <point x="931" y="0" type="line"/>
    </contour>
    <contour>
      <point x="358" y="166" type="line" smooth="yes"/>
      <point x="426" y="166"/>
      <point x="486" y="186"/>
      <point x="529" y="231" type="curve" smooth="yes"/>
      <point x="572" y="276"/>
      <point x="598" y="346"/>
      <point x="598" y="446" type="curve" smooth="yes"/>
      <point x="598" y="625"/>
      <point x="518" y="727"/>
      <point x="358" y="727" type="curve" smooth="yes"/>
      <point x="267" y="727" type="line"/>
      <point x="267" y="166" type="line"/>
    </contour>
  </outline>
</glyph>
<glyph name="uni0432" format="1">
  <advance width="1233"/>
  <unicode hex="0432"/>
  <note>
	uni0432
  </note>
  <outline>
    <contour>
      <point x="239" y="1120" type="line"/>
      <point x="636" y="1120" type="line" smooth="yes"/>
      <point x="737" y="1120"/>
      <point x="830" y="1098"/>
      <point x="898" y="1051" type="curve" smooth="yes"/>
      <point x="965" y="1003"/>
      <point x="1006" y="933"/>
      <point x="1006" y="837" type="curve" smooth="yes"/>
      <point x="1006" y="778"/>
      <point x="990" y="723"/>
      <point x="958" y="680" type="curve" smooth="yes"/>
      <point x="926" y="637"/>
      <point x="877" y="608"/>
      <point x="812" y="600" type="curve"/>
      <point x="901" y="584"/>
      <point x="962" y="553"/>
      <point x="1000" y="507" type="curve" smooth="yes"/>
      <point x="1038" y="461"/>
      <point x="1054" y="401"/>
      <point x="1054" y="329" type="curve" smooth="yes"/>
      <point x="1054" y="113"/>
      <point x="912" y="0"/>
      <point x="652" y="0" type="curve" smooth="yes"/>
      <point x="239" y="0" type="line"/>
    </contour>
    <contour>
      <point x="651" y="665" type="line" smooth="yes"/>
      <point x="764" y="665"/>
      <point x="820" y="728"/>
      <point x="820" y="817" type="curve" smooth="yes"/>
      <point x="820" y="906"/>
      <point x="765" y="970"/>
      <point x="650" y="970" type="curve" smooth="yes"/>
      <point x="423" y="970" type="line"/>
      <point x="423" y="665" type="line"/>
    </contour>
    <contour>
      <point x="662" y="150" type="line" smooth="yes"/>
      <point x="726" y="150"/>
      <point x="775" y="170"/>
      <point x="808" y="206" type="curve" smooth="yes"/>
      <point x="840" y="241"/>
      <point x="858" y="290"/>
      <point x="858" y="347" type="curve" smooth="yes"/>
      <point x="858" y="396"/>
      <point x="845" y="439"/>
      <point x="815" y="469" type="curve" smooth="yes"/>
      <point x="785" y="499"/>
      <point x="735" y="515"/>
      <point x="666" y="515" type="curve" smooth="yes"/>
      <point x="423" y="515" type="line"/>
      <point x="423" y="150" type="line"/>
    </contour>
  </outline>
</glyph>
<glyph name="uni0441" format="1">
  <advance width="1233"/>
  <unicode hex="0441"/>
  <note>
	uni0441
  </note>
  <outline>
    <contour>
      <point x="155" y="375"/>
      <point x="207" y="228"/>
      <point x="302" y="127" type="curve" smooth="yes"/>
      <point x="397" y="26"/>
      <point x="533" y="-29"/>
      <point x="701" y="-29" type="curve" smooth="yes"/>
      <point x="814" y="-29"/>
      <point x="913" y="-4"/>
      <point x="1021" y="57" type="curve"/>
      <point x="1021" y="248" type="line"/>
      <point x="933" y="164"/>
      <point x="831" y="127"/>
      <point x="714" y="127" type="curve" smooth="yes"/>
      <point x="475" y="127"/>
      <point x="349" y="281"/>
      <point x="349" y="559" type="curve" smooth="yes"/>
      <point x="349" y="836"/>
      <point x="474" y="991"/>
      <point x="713" y="991" type="curve" smooth="yes"/>
      <point x="832" y="991"/>
      <point x="926" y="953"/>
      <point x="1021" y="868" type="curve"/>
      <point x="1021" y="1328" type="line" smooth="yes"/>
      <point x="1021" y="1334"/>
      <point x="1017" y="1338"/>
      <point x="1011" y="1338" type="curve" smooth="yes"/>
      <point x="838" y="1338" type="line" smooth="yes"/>
      <point x="832" y="1338"/>
      <point x="828" y="1334"/>
      <point x="828" y="1328" type="curve" smooth="yes"/>
      <point x="828" y="1151" type="line" smooth="yes"/>
      <point x="828" y="1139"/>
      <point x="821" y="1137"/>
      <point x="812" y="1138" type="curve" smooth="yes"/>
      <point x="770" y="1144"/>
      <point x="747" y="1147"/>
      <point x="706" y="1147" type="curve" smooth="yes"/>
      <point x="531" y="1147"/>
      <point x="397" y="1092"/>
      <point x="302" y="991" type="curve" smooth="yes"/>
      <point x="207" y="890"/>
      <point x="155" y="743"/>
      <point x="155" y="559" type="curve" smooth="yes"/>
    </contour>
  </outline>
</glyph>
<glyph name="uni044A" format="1">
  <advance width="1233"/>
  <unicode hex="044A"/>
  <note>
	uni044A
  </note>
  <outline>
    <contour>
      <point x="308" y="970" type="line"/>
      <point x="60" y="970" type="line"/>
      <point x="60" y="1120" type="line"/>
      <point x="492" y="1120" type="line"/>
      <point x="492" y="667" type="line"/>
      <point x="748" y="667" type="line" smooth="yes"/>
      <point x="888" y="667"/>
      <point x="999" y="640"/>
      <point x="1076" y="584" type="curve" smooth="yes"/>
      <point x="1152" y="528"/>
      <point x="1194" y="444"/>
      <point x="1194" y="331" type="curve" smooth="yes"/>
      <point x="1194" y="108"/>
      <point x="1033" y="0"/>
      <point x="748" y="0" type="curve" smooth="yes"/>
      <point x="308" y="0" type="line"/>
    </contour>
    <contour>
      <point x="740" y="156" type="line" smooth="yes"/>
      <point x="905" y="156"/>
      <point x="998" y="213"/>
      <point x="998" y="333" type="curve" smooth="yes"/>
      <point x="998" y="454"/>
      <point x="903" y="514"/>
      <point x="740" y="514" type="curve" smooth="yes"/>
      <point x="492" y="514" type="line"/>
      <point x="492" y="156" type="line"/>
    </contour>
  </outline>
</glyph>
<glyph name="uni0451" format="1">
  <advance width="1233"/>
  <unicode hex="0451"/>
  <note>
	uni0451
  </note>
  <outline>
    <contour>
      <point x="385" y="1347" type="line" smooth="yes"/>
      <point x="365" y="1347"/>
      <point x="355" y="1357"/>
      <point x="355" y="1377" type="curve" smooth="yes"/>
      <point x="355" y="1519" type="line" smooth="yes"/>
      <point x="355" y="1539"/>
      <point x="365" y="1549"/>
      <point x="385" y="1549" type="curve" smooth="yes"/>
      <point x="528" y="1549" type="line" smooth="yes"/>
      <point x="548" y="1549"/>
      <point x="558" y="1539"/>
      <point x="558" y="1519" type="curve" smooth="yes"/>
      <point x="558" y="1377" type="line" smooth="yes"/>
      <point x="558" y="1357"/>
      <point x="548" y="1347"/>
      <point x="528" y="1347" type="curve" smooth="yes"/>
    </contour>
    <contour>
      <point x="777" y="1347" type="line" smooth="yes"/>
      <point x="757" y="1347"/>
      <point x="747" y="1357"/>
      <point x="747" y="1377" type="curve" smooth="yes"/>
      <point x="747" y="1519" type="line" smooth="yes"/>
      <point x="747" y="1539"/>
      <point x="757" y="1549"/>
      <point x="777" y="1549" type="curve" smooth="yes"/>
      <point x="919" y="1549" type="line" smooth="yes"/>
      <point x="939" y="1549"/>
      <point x="949" y="1539"/>
      <point x="949" y="1519" type="curve" smooth="yes"/>
      <point x="949" y="1377" type="line" smooth="yes"/>
      <point x="949" y="1357"/>
      <point x="939" y="1347"/>
      <point x="919" y="1347" type="curve" smooth="yes"/>
    </contour>
    <contour>
      <point x="504" y="-29"/>
      <point x="366" y="27"/>
      <point x="271" y="128" type="curve" smooth="yes"/>
      <point x="175" y="229"/>
      <point x="124" y="375"/>
      <point x="124" y="555" type="curve" smooth="yes"/>
      <point x="124" y="735"/>
      <point x="176" y="883"/>
      <point x="268" y="987" type="curve" smooth="yes"/>
      <point x="359" y="1090"/>
      <point x="489" y="1147"/>
      <point x="645" y="1147" type="curve" smooth="yes"/>
      <point x="793" y="1147"/>
      <point x="910" y="1095"/>
      <point x="990" y="1002" type="curve" smooth="yes"/>
      <point x="1070" y="909"/>
      <point x="1113" y="774"/>
      <point x="1113" y="606" type="curve" smooth="yes"/>
      <point x="1113" y="516" type="line"/>
      <point x="316" y="516" type="line"/>
      <point x="316" y="510" type="line" smooth="yes"/>
      <point x="316" y="387"/>
      <point x="350" y="292"/>
      <point x="412" y="227" type="curve" smooth="yes"/>
      <point x="474" y="162"/>
      <point x="565" y="127"/>
      <point x="680" y="127" type="curve" smooth="yes"/>
      <point x="800" y="127"/>
      <point x="925" y="164"/>
      <point x="1070" y="240" type="curve"/>
      <point x="1070" y="57" type="line"/>
      <point x="929" y="0"/>
      <point x="802" y="-29"/>
      <point x="677" y="-29" type="curve" smooth="yes"/>
    </contour>
    <contour>
      <point x="929" y="660" type="line"/>
      <point x="925" y="869"/>
      <point x="828" y="991"/>
      <point x="647" y="991" type="curve" smooth="yes"/>
      <point x="466" y="991"/>
      <point x="346" y="871"/>
      <point x="323" y="659" type="curve"/>
    </contour>
  </outline>
</glyph>
<glyph name="uni0454" format="1">
  <advance width="1233"/>
  <unicode hex="0454"/>
  <note>
	uni0454
  </note>
  <outline>
    <contour>
      <point x="543" y="-29"/>
      <point x="407" y="26"/>
      <point x="312" y="127" type="curve" smooth="yes"/>
      <point x="217" y="228"/>
      <point x="165" y="375"/>
      <point x="165" y="559" type="curve" smooth="yes"/>
      <point x="165" y="743"/>
      <point x="217" y="890"/>
      <point x="312" y="991" type="curve" smooth="yes"/>
      <point x="407" y="1092"/>
      <point x="543" y="1147"/>
      <point x="712" y="1147" type="curve" smooth="yes"/>
      <point x="824" y="1147"/>
      <point x="920" y="1122"/>
      <point x="1031" y="1061" type="curve"/>
      <point x="1031" y="868" type="line"/>
      <point x="940" y="949"/>
      <point x="849" y="991"/>
      <point x="722" y="991" type="curve" smooth="yes"/>
      <point x="601" y="991"/>
      <point x="518" y="952"/>
      <point x="462" y="892" type="curve" smooth="yes"/>
      <point x="406" y="831"/>
      <point x="377" y="748"/>
      <point x="365" y="659" type="curve"/>
      <point x="902" y="660" type="line"/>
      <point x="902" y="516" type="line"/>
      <point x="360" y="516" type="line"/>
      <point x="367" y="400"/>
      <point x="397" y="302"/>
      <point x="457" y="234" type="curve" smooth="yes"/>
      <point x="516" y="166"/>
      <point x="603" y="127"/>
      <point x="723" y="127" type="curve" smooth="yes"/>
      <point x="848" y="127"/>
      <point x="948" y="168"/>
      <point x="1031" y="248" type="curve"/>
      <point x="1031" y="57" type="line"/>
      <point x="923" y="-4"/>
      <point x="824" y="-29"/>
      <point x="711" y="-29" type="curve" smooth="yes"/>
    </contour>
  </outline>
</glyph>
<glyph name="uni0458" format="1">
  <advance width="1233"/>
  <unicode hex="0458"/>
  <note>
	uni0458
  </note>
  <outline>
    <contour>
      <point x="674" y="1323" type="line" smooth="yes"/>
      <point x="653" y="1323"/>
      <point x="642" y="1333"/>
      <point x="642" y="1353" type="curve" smooth="yes"/>
      <point x="642" y="1526" type="line" smooth="yes"/>
      <point x="642" y="1546"/>
      <point x="653" y="1556"/>
      <point x="674" y="1556" type="curve" smooth="yes"/>
      <point x="804" y="1556" type="line" smooth="yes"/>
      <point x="825" y="1556"/>
      <point x="836" y="1546"/>
      <point x="836" y="1526" type="curve" smooth="yes"/>
      <point x="836" y="1353" type="line" smooth="yes"/>
      <point x="836" y="1333"/>
      <point x="825" y="1323"/>
      <point x="804" y="1323" type="curve" smooth="yes"/>
    </contour>
    <contour>
      <point x="238" y="-270" type="line"/>
      <point x="472" y="-270" type="line" smooth="yes"/>
      <point x="592" y="-270"/>
      <point x="652" y="-187"/>
      <point x="652" y="-20" type="curve" smooth="yes"/>
      <point x="652" y="977" type="line"/>
      <point x="335" y="977" type="line"/>
      <point x="335" y="1120" type="line"/>
      <point x="836" y="1120" type="line"/>
      <point x="836" y="-20" type="line" smooth="yes"/>
      <point x="836" y="-281"/>
      <point x="713" y="-426"/>
      <point x="492" y="-426" type="curve" smooth="yes"/>
      <point x="238" y="-426" type="line"/>
    </contour>
  </outline>
</glyph>
<glyph name="uni045F" format="1">
  <advance width="1233"/>
  <unicode hex="045F"/>
  <note>
	uni045F
  </note>
  <outline>
    <contour>
      <point x="541" y="0" type="line"/>
      <point x="189" y="0" type="line"/>
      <point x="189" y="1120" type="line"/>
      <point x="373" y="1120" type="line"/>
      <point x="373" y="150" type="line"/>
      <point x="860" y="150" type="line"/>
      <point x="860" y="1120" type="line"/>
      <point x="1044" y="1120" type="line"/>
      <point x="1044" y="0" type="line"/>
      <point x="692" y="0" type="line"/>
      <point x="692" y="-286" type="line"/>
      <point x="541" y="-286" type="line"/>
    </contour>
  </outline>
</glyph>
<glyph name="uni0494" format="1">
  <advance width="1233"/>
  <unicode hex="0494"/>
  <note>
	uni0494
  </note>
  <outline>
    <contour>
      <point x="589" y="-240" type="line"/>
      <point x="651" y="-240" type="line" smooth="yes"/>
      <point x="740" y="-240"/>
      <point x="801" y="-218"/>
      <point x="841" y="-165" type="curve" smooth="yes"/>
      <point x="880" y="-112"/>
      <point x="896" y="-25"/>
      <point x="896" y="104" type="curve" smooth="yes"/>
      <point x="896" y="394" type="line" smooth="yes"/>
      <point x="896" y="605"/>
      <point x="813" y="711"/>
      <point x="648" y="711" type="curve" smooth="yes"/>
      <point x="378" y="711" type="line"/>
      <point x="378" y="0" type="line"/>
      <point x="175" y="0" type="line"/>
      <point x="175" y="1493" type="line"/>
      <point x="1099" y="1493" type="line"/>
      <point x="1099" y="1323" type="line"/>
      <point x="378" y="1323" type="line"/>
      <point x="378" y="881" type="line"/>
      <point x="689" y="881" type="line" smooth="yes"/>
      <point x="814" y="881"/>
      <point x="914" y="841"/>
      <point x="988" y="762" type="curve" smooth="yes"/>
      <point x="1064" y="681"/>
      <point x="1099" y="570"/>
      <point x="1099" y="410" type="curve" smooth="yes"/>
      <point x="1099" y="104" type="line" smooth="yes"/>
      <point x="1099" y="-75"/>
      <point x="1067" y="-203"/>
      <point x="996" y="-287" type="curve" smooth="yes"/>
      <point x="925" y="-371"/>
      <point x="817" y="-410"/>
      <point x="665" y="-410" type="curve" smooth="yes"/>
      <point x="589" y="-410" type="line"/>
    </contour>
  </outline>
</glyph>
<glyph name="uni049B" format="1">
  <advance width="1233"/>
  <unicode hex="049B"/>
  <note>
	uni049B
  </note>
  <outline>
    <contour>
      <point x="986" y="0" type="line"/>
      <point x="957" y="0" type="line"/>
      <point x="543" y="578" type="line"/>
      <point x="406" y="449" type="line"/>
      <point x="406" y="0" type="line"/>
      <point x="216" y="0" type="line"/>
      <point x="216" y="1120" type="line"/>
      <point x="406" y="1120" type="line"/>
      <point x="406" y="655" type="line"/>
      <point x="889" y="1120" type="line"/>
      <point x="1113" y="1120" type="line"/>
      <point x="672" y="698" type="line"/>
      <point x="1048" y="184" type="line"/>
      <point x="1182" y="184" type="line"/>
      <point x="1182" y="-286" type="line"/>
      <point x="986" y="-286" type="line"/>
    </contour>
  </outline>
</glyph>
<glyph name="uni04C8" format="1">
  <advance width="1233"/>
  <unicode hex="04C8"/>
  <note>
	uni04C8
  </note>
  <outline>
    <contour>
      <point x="523" y="-270" type="line"/>
      <point x="695" y="-270" type="line" smooth="yes"/>
      <point x="768" y="-270"/>
      <point x="813" y="-256"/>
      <point x="841" y="-218" type="curve" smooth="yes"/>
      <point x="868" y="-180"/>
      <point x="876" y="-119"/>
      <point x="876" y="-20" type="curve" smooth="yes"/>
      <point x="876" y="505" type="line"/>
      <point x="389" y="505" type="line"/>
      <point x="389" y="0" type="line"/>
      <point x="205" y="0" type="line"/>
      <point x="205" y="1120" type="line"/>
      <point x="389" y="1120" type="line"/>
      <point x="389" y="675" type="line"/>
      <point x="876" y="675" type="line"/>
      <point x="876" y="1120" type="line"/>
      <point x="1060" y="1120" type="line"/>
      <point x="1060" y="-20" type="line" smooth="yes"/>
      <point x="1060" y="-163"/>
      <point x="1034" y="-263"/>
      <point x="978" y="-329" type="curve" smooth="yes"/>
      <point x="922" y="-395"/>
      <point x="836" y="-426"/>
      <point x="716" y="-426" type="curve" smooth="yes"/>
      <point x="523" y="-426" type="line"/>
    </contour>
  </outline>
</glyph>
<glyph name="uni04D7" format="1">
  <advance width="1233"/>
  <unicode hex="04D7"/>
  <note>
	uni04D7
  </note>
  <outline>
    <contour>
      <point x="438" y="1298"/>
      <point x="333" y="1394"/>
      <point x="318" y="1585" type="curve"/>
      <point x="437" y="1585" type="line"/>
      <point x="452" y="1489"/>
      <point x="509" y="1435"/>
      <point x="630" y="1435" type="curve" smooth="yes"/>
      <point x="745" y="1435"/>
      <point x="807" y="1484"/>
      <point x="826" y="1585" type="curve"/>
      <point x="945" y="1585" type="line"/>
      <point x="930" y="1394"/>
      <point x="825" y="1298"/>
      <point x="631" y="1298" type="curve" smooth="yes"/>
    </contour>
    <contour>
      <point x="504" y="-29"/>
      <point x="366" y="27"/>
      <point x="271" y="128" type="curve" smooth="yes"/>
      <point x="175" y="229"/>
      <point x="124" y="375"/>
      <point x="124" y="555" type="curve" smooth="yes"/>
      <point x="124" y="735"/>
      <point x="176" y="883"/>
      <point x="268" y="987" type="curve" smooth="yes"/>
      <point x="359" y="1090"/>
      <point x="489" y="1147"/>
      <point x="645" y="1147" type="curve" smooth="yes"/>
      <point x="793" y="1147"/>
      <point x="910" y="1095"/>
      <point x="990" y="1002" type="curve" smooth="yes"/>
      <point x="1070" y="909"/>
      <point x="1113" y="774"/>
      <point x="1113" y="606" type="curve" smooth="yes"/>
      <point x="1113" y="516" type="line"/>
      <point x="316" y="516" type="line"/>
      <point x="316" y="510" type="line" smooth="yes"/>
      <point x="316" y="387"/>
      <point x="350" y="292"/>
      <point x="412" y="227" type="curve" smooth="yes"/>
      <point x="474" y="162"/>
      <point x="565" y="127"/>
      <point x="680" y="127" type="curve" smooth="yes"/>
      <point x="800" y="127"/>
      <point x="925" y="164"/>
      <point x="1070" y="240" type="curve"/>
      <point x="1070" y="57" type="line"/>
      <point x="929" y="0"/>
      <point x="802" y="-29"/>
      <point x="677" y="-29" type="curve" smooth="yes"/>
    </contour>
    <contour>
      <point x="929" y="660" type="line"/>
      <point x="925" y="869"/>
      <point x="828" y="991"/>
      <point x="647" y="991" type="curve" smooth="yes"/>
      <point x="466" y="991"/>
      <point x="346" y="871"/>
      <point x="323" y="659" type="curve"/>
    </contour>
  </outline>
</glyph>
<glyph name="uni04D9" format="1">
  <advance width="1233"/>
  <unicode hex="04D9"/>
  <note>
	uni04D9
  </note>
  <outline>
    <contour>
      <point x="462" y="-29"/>
      <point x="345" y="23"/>
      <point x="265" y="116" type="curve" smooth="yes"/>
      <point x="185" y="209"/>
      <point x="142" y="344"/>
      <point x="142" y="512" type="curve" smooth="yes"/>
      <point x="142" y="602" type="line"/>
      <point x="939" y="602" type="line"/>
      <point x="939" y="608" type="line" smooth="yes"/>
      <point x="939" y="729"/>
      <point x="906" y="826"/>
      <point x="844" y="891" type="curve" smooth="yes"/>
      <point x="782" y="956"/>
      <point x="690" y="991"/>
      <point x="575" y="991" type="curve" smooth="yes"/>
      <point x="455" y="991"/>
      <point x="330" y="954"/>
      <point x="185" y="878" type="curve"/>
      <point x="185" y="1061" type="line"/>
      <point x="326" y="1118"/>
      <point x="453" y="1147"/>
      <point x="578" y="1147" type="curve" smooth="yes"/>
      <point x="751" y="1147"/>
      <point x="889" y="1091"/>
      <point x="984" y="990" type="curve" smooth="yes"/>
      <point x="1079" y="889"/>
      <point x="1131" y="743"/>
      <point x="1131" y="563" type="curve" smooth="yes"/>
      <point x="1131" y="383"/>
      <point x="1079" y="235"/>
      <point x="988" y="132" type="curve" smooth="yes"/>
      <point x="896" y="28"/>
      <point x="766" y="-29"/>
      <point x="610" y="-29" type="curve" smooth="yes"/>
    </contour>
    <contour>
      <point x="789" y="127"/>
      <point x="909" y="247"/>
      <point x="932" y="459" type="curve"/>
      <point x="326" y="459" type="line"/>
      <point x="326" y="242"/>
      <point x="432" y="127"/>
      <point x="608" y="127" type="curve" smooth="yes"/>
    </contour>
  </outline>
</glyph>
<glyph name="uni04DC" format="1">
  <advance width="1233"/>
  <unicode hex="04DC"/>
  <note>
	uni04DC
  </note>
  <outline>
    <contour>
      <point x="349" y="1649" type="line" smooth="yes"/>
      <point x="329" y="1649"/>
      <point x="319" y="1659"/>
      <point x="319" y="1679" type="curve" smooth="yes"/>
      <point x="319" y="1822" type="line" smooth="yes"/>
      <point x="319" y="1842"/>
      <point x="329" y="1852"/>
      <point x="349" y="1852" type="curve" smooth="yes"/>
      <point x="492" y="1852" type="line" smooth="yes"/>
      <point x="512" y="1852"/>
      <point x="522" y="1842"/>
      <point x="522" y="1822" type="curve" smooth="yes"/>
      <point x="522" y="1679" type="line" smooth="yes"/>
      <point x="522" y="1659"/>
      <point x="512" y="1649"/>
      <point x="492" y="1649" type="curve" smooth="yes"/>
    </contour>
    <contour>
      <point x="741" y="1649" type="line" smooth="yes"/>
      <point x="721" y="1649"/>
      <point x="711" y="1659"/>
      <point x="711" y="1679" type="curve" smooth="yes"/>
      <point x="711" y="1822" type="line" smooth="yes"/>
      <point x="711" y="1842"/>
      <point x="721" y="1852"/>
      <point x="741" y="1852" type="curve" smooth="yes"/>
      <point x="883" y="1852" type="line" smooth="yes"/>
      <point x="903" y="1852"/>
      <point x="913" y="1842"/>
      <point x="913" y="1822" type="curve" smooth="yes"/>
      <point x="913" y="1679" type="line" smooth="yes"/>
      <point x="913" y="1659"/>
      <point x="903" y="1649"/>
      <point x="883" y="1649" type="curve" smooth="yes"/>
    </contour>
    <contour>
      <point x="319" y="891" type="line"/>
      <point x="32" y="1493" type="line"/>
      <point x="239" y="1493" type="line"/>
      <point x="523" y="898" type="line"/>
      <point x="523" y="1493" type="line"/>
      <point x="710" y="1493" type="line"/>
      <point x="710" y="898" type="line"/>
      <point x="994" y="1493" type="line"/>
      <point x="1201" y="1493" type="line"/>
      <point x="914" y="891" type="line"/>
      <point x="1218" y="0" type="line"/>
      <point x="1021" y="0" type="line"/>
      <point x="799" y="650" type="line"/>
      <point x="710" y="464" type="line"/>
      <point x="710" y="0" type="line"/>
      <point x="523" y="0" type="line"/>
      <point x="523" y="464" type="line"/>
      <point x="434" y="650" type="line"/>
      <point x="212" y="0" type="line"/>
      <point x="15" y="0" type="line"/>
    </contour>
  </outline>
</glyph>
<glyph name="uni04DE" format="1">
  <advance width="1233"/>
  <unicode hex="04DE"/>
  <note>
	uni04DE
  </note>
  <outline>
    <contour>
      <point x="332" y="1649" type="line" smooth="yes"/>
      <point x="312" y="1649"/>
      <point x="302" y="1659"/>
      <point x="302" y="1679" type="curve" smooth="yes"/>
      <point x="302" y="1822" type="line" smooth="yes"/>
      <point x="302" y="1842"/>
      <point x="312" y="1852"/>
      <point x="332" y="1852" type="curve" smooth="yes"/>
      <point x="475" y="1852" type="line" smooth="yes"/>
      <point x="495" y="1852"/>
      <point x="505" y="1842"/>
      <point x="505" y="1822" type="curve" smooth="yes"/>
      <point x="505" y="1679" type="line" smooth="yes"/>
      <point x="505" y="1659"/>
      <point x="495" y="1649"/>
      <point x="475" y="1649" type="curve" smooth="yes"/>
    </contour>
    <contour>
      <point x="724" y="1649" type="line" smooth="yes"/>
      <point x="704" y="1649"/>
      <point x="694" y="1659"/>
      <point x="694" y="1679" type="curve" smooth="yes"/>
      <point x="694" y="1822" type="line" smooth="yes"/>
      <point x="694" y="1842"/>
      <point x="704" y="1852"/>
      <point x="724" y="1852" type="curve" smooth="yes"/>
      <point x="866" y="1852" type="line" smooth="yes"/>
      <point x="886" y="1852"/>
      <point x="896" y="1842"/>
      <point x="896" y="1822" type="curve" smooth="yes"/>
      <point x="896" y="1679" type="line" smooth="yes"/>
      <point x="896" y="1659"/>
      <point x="886" y="1649"/>
      <point x="866" y="1649" type="curve" smooth="yes"/>
    </contour>
    <contour>
      <point x="421" y="-29"/>
      <point x="274" y="-3"/>
      <point x="137" y="45" type="curve"/>
      <point x="137" y="246" type="line"/>
      <point x="274" y="174"/>
      <point x="404" y="141"/>
      <point x="532" y="141" type="curve" smooth="yes"/>
      <point x="757" y="141"/>
      <point x="879" y="245"/>
      <point x="879" y="426" type="curve" smooth="yes"/>
      <point x="879" y="517"/>
      <point x="847" y="590"/>
      <point x="790" y="639" type="curve" smooth="yes"/>
      <point x="733" y="688"/>
      <point x="650" y="715"/>
      <point x="549" y="715" type="curve" smooth="yes"/>
      <point x="395" y="715" type="line"/>
      <point x="395" y="881" type="line"/>
      <point x="549" y="881" type="line" smooth="yes"/>
      <point x="736" y="881"/>
      <point x="844" y="963"/>
      <point x="844" y="1118" type="curve" smooth="yes"/>
      <point x="844" y="1266"/>
      <point x="745" y="1350"/>
      <point x="557" y="1350" type="curve" smooth="yes"/>
      <point x="456" y="1350"/>
      <point x="326" y="1326"/>
      <point x="182" y="1270" type="curve"/>
      <point x="182" y="1456" type="line"/>
      <point x="343" y="1499"/>
      <point x="465" y="1520"/>
      <point x="569" y="1520" type="curve" smooth="yes"/>
      <point x="710" y="1520"/>
      <point x="830" y="1481"/>
      <point x="913" y="1411" type="curve" smooth="yes"/>
      <point x="996" y="1341"/>
      <point x="1044" y="1242"/>
      <point x="1044" y="1122" type="curve" smooth="yes"/>
      <point x="1044" y="954"/>
      <point x="952" y="844"/>
      <point x="776" y="799" type="curve"/>
      <point x="973" y="747"/>
      <point x="1079" y="613"/>
      <point x="1079" y="410" type="curve" smooth="yes"/>
      <point x="1079" y="274"/>
      <point x="1031" y="164"/>
      <point x="941" y="88" type="curve" smooth="yes"/>
      <point x="851" y="12"/>
      <point x="718" y="-29"/>
      <point x="553" y="-29" type="curve" smooth="yes"/>
    </contour>
  </outline>
</glyph>
<glyph name="uni04EC" format="1">
  <advance width="1233"/>
  <unicode hex="04EC"/>
  <note>
	uni04EC
  </note>
  <outline>
    <contour>
      <point x="336" y="1649" type="line" smooth="yes"/>
      <point x="316" y="1649"/>
      <point x="306" y="1659"/>
      <point x="306" y="1679" type="curve" smooth="yes"/>
      <point x="306" y="1822" type="line" smooth="yes"/>
      <point x="306" y="1842"/>
      <point x="316" y="1852"/>
      <point x="336" y="1852" type="curve" smooth="yes"/>
      <point x="479" y="1852" type="line" smooth="yes"/>
      <point x="499" y="1852"/>
      <point x="509" y="1842"/>
      <point x="509" y="1822" type="curve" smooth="yes"/>
      <point x="509" y="1679" type="line" smooth="yes"/>
      <point x="509" y="1659"/>
      <point x="499" y="1649"/>
      <point x="479" y="1649" type="curve" smooth="yes"/>
    </contour>
    <contour>
      <point x="728" y="1649" type="line" smooth="yes"/>
      <point x="708" y="1649"/>
      <point x="698" y="1659"/>
      <point x="698" y="1679" type="curve" smooth="yes"/>
      <point x="698" y="1822" type="line" smooth="yes"/>
      <point x="698" y="1842"/>
      <point x="708" y="1852"/>
      <point x="728" y="1852" type="curve" smooth="yes"/>
      <point x="870" y="1852" type="line" smooth="yes"/>
      <point x="890" y="1852"/>
      <point x="900" y="1842"/>
      <point x="900" y="1822" type="curve" smooth="yes"/>
      <point x="900" y="1679" type="line" smooth="yes"/>
      <point x="900" y="1659"/>
      <point x="890" y="1649"/>
      <point x="870" y="1649" type="curve" smooth="yes"/>
    </contour>
    <contour>
      <point x="392" y="-29"/>
      <point x="282" y="-2"/>
      <point x="179" y="53" type="curve"/>
      <point x="179" y="260" type="line"/>
      <point x="279" y="176"/>
      <point x="398" y="135"/>
      <point x="511" y="135" type="curve" smooth="yes"/>
      <point x="642" y="135"/>
      <point x="737" y="189"/>
      <point x="801" y="282" type="curve" smooth="yes"/>
      <point x="865" y="374"/>
      <point x="898" y="506"/>
      <point x="902" y="661" type="curve"/>
      <point x="270" y="661" type="line"/>
      <point x="270" y="831" type="line"/>
      <point x="897" y="831" type="line"/>
      <point x="877" y="1015"/>
      <point x="845" y="1147"/>
      <point x="787" y="1232" type="curve" smooth="yes"/>
      <point x="729" y="1316"/>
      <point x="644" y="1356"/>
      <point x="520" y="1356" type="curve" smooth="yes"/>
      <point x="391" y="1356"/>
      <point x="280" y="1315"/>
      <point x="179" y="1231" type="curve"/>
      <point x="179" y="1438" type="line"/>
      <point x="282" y="1493"/>
      <point x="392" y="1520"/>
      <point x="509" y="1520" type="curve" smooth="yes"/>
      <point x="698" y="1520"/>
      <point x="850" y="1448"/>
      <point x="954" y="1316" type="curve" smooth="yes"/>
      <point x="1057" y="1183"/>
      <point x="1113" y="988"/>
      <point x="1113" y="743" type="curve" smooth="yes"/>
      <point x="1113" y="499"/>
      <point x="1058" y="306"/>
      <point x="955" y="174" type="curve" smooth="yes"/>
      <point x="851" y="42"/>
      <point x="701" y="-29"/>
      <point x="509" y="-29" type="curve" smooth="yes"/>
    </contour>
  </outline>
</glyph>
<glyph name="uni04F4" format="1">
  <advance width="1233"/>
  <unicode hex="04F4"/>
  <note>
	uni04F4
  </note>
  <outline>
    <contour>
      <point x="339" y="1649" type="line" smooth="yes"/>
      <point x="319" y="1649"/>
      <point x="309" y="1659"/>
      <point x="309" y="1679" type="curve" smooth="yes"/>
      <point x="309" y="1822" type="line" smooth="yes"/>
      <point x="309" y="1842"/>
      <point x="319" y="1852"/>
      <point x="339" y="1852" type="curve" smooth="yes"/>
      <point x="482" y="1852" type="line" smooth="yes"/>
      <point x="502" y="1852"/>
      <point x="512" y="1842"/>
      <point x="512" y="1822" type="curve" smooth="yes"/>
      <point x="512" y="1679" type="line" smooth="yes"/>
      <point x="512" y="1659"/>
      <point x="502" y="1649"/>
      <point x="482" y="1649" type="curve" smooth="yes"/>
    </contour>
    <contour>
      <point x="731" y="1649" type="line" smooth="yes"/>
      <point x="711" y="1649"/>
      <point x="701" y="1659"/>
      <point x="701" y="1679" type="curve" smooth="yes"/>
      <point x="701" y="1822" type="line" smooth="yes"/>
      <point x="701" y="1842"/>
      <point x="711" y="1852"/>
      <point x="731" y="1852" type="curve" smooth="yes"/>
      <point x="873" y="1852" type="line" smooth="yes"/>
      <point x="893" y="1852"/>
      <point x="903" y="1842"/>
      <point x="903" y="1822" type="curve" smooth="yes"/>
      <point x="903" y="1679" type="line" smooth="yes"/>
      <point x="903" y="1659"/>
      <point x="893" y="1649"/>
      <point x="873" y="1649" type="curve" smooth="yes"/>
    </contour>
    <contour>
      <point x="879" y="658" type="line"/>
      <point x="810" y="623"/>
      <point x="754" y="603"/>
      <point x="700" y="592" type="curve" smooth="yes"/>
      <point x="646" y="580"/>
      <point x="594" y="577"/>
      <point x="534" y="577" type="curve" smooth="yes"/>
      <point x="461" y="577"/>
      <point x="390" y="581"/>
      <point x="330" y="601" type="curve" smooth="yes"/>
      <point x="270" y="621"/>
      <point x="219" y="655"/>
      <point x="184" y="715" type="curve" smooth="yes"/>
      <point x="148" y="774"/>
      <point x="127" y="859"/>
      <point x="127" y="980" type="curve" smooth="yes"/>
      <point x="127" y="1493" type="line"/>
      <point x="330" y="1493" type="line"/>
      <point x="330" y="1006" type="line" smooth="yes"/>
      <point x="330" y="894"/>
      <point x="349" y="833"/>
      <point x="389" y="801" type="curve" smooth="yes"/>
      <point x="429" y="768"/>
      <point x="490" y="763"/>
      <point x="577" y="763" type="curve" smooth="yes"/>
      <point x="638" y="763"/>
      <point x="685" y="766"/>
      <point x="731" y="779" type="curve" smooth="yes"/>
      <point x="777" y="792"/>
      <point x="822" y="817"/>
      <point x="879" y="861" type="curve"/>
      <point x="879" y="1493" type="line"/>
      <point x="1082" y="1493" type="line"/>
      <point x="1082" y="0" type="line"/>
      <point x="879" y="0" type="line"/>
    </contour>
  </outline>
</glyph>
<glyph name="uni051B" format="1">
  <advance width="1233"/>
  <unicode hex="051B"/>
  <note>
	uni051B
  </note>
  <outline>
    <contour>
      <point x="865" y="139" type="line"/>
      <point x="804" y="26"/>
      <point x="703" y="-33"/>
      <point x="563" y="-33" type="curve" smooth="yes"/>
      <point x="431" y="-33"/>
      <point x="323" y="22"/>
      <point x="248" y="123" type="curve" smooth="yes"/>
      <point x="173" y="224"/>
      <point x="132" y="370"/>
      <point x="132" y="554" type="curve" smooth="yes"/>
      <point x="132" y="737"/>
      <point x="173" y="885"/>
      <point x="248" y="986" type="curve" smooth="yes"/>
      <point x="323" y="1087"/>
      <point x="431" y="1143"/>
      <point x="563" y="1143" type="curve" smooth="yes"/>
      <point x="700" y="1143"/>
      <point x="804" y="1085"/>
      <point x="865" y="973" type="curve"/>
      <point x="883" y="1116" type="line"/>
      <point x="1050" y="1116" type="line"/>
      <point x="1050" y="-430" type="line"/>
      <point x="865" y="-430" type="line"/>
    </contour>
    <contour>
      <point x="774" y="123"/>
      <point x="865" y="270"/>
      <point x="865" y="555" type="curve" smooth="yes"/>
      <point x="865" y="840"/>
      <point x="774" y="987"/>
      <point x="595" y="987" type="curve" smooth="yes"/>
      <point x="416" y="987"/>
      <point x="327" y="842"/>
      <point x="327" y="555" type="curve" smooth="yes"/>
      <point x="327" y="268"/>
      <point x="416" y="123"/>
      <point x="595" y="123" type="curve" smooth="yes"/>
    </contour>
  </outline>
</glyph>
<glyph name="uni0539" format="1">
  <advance width="1233"/>
  <unicode hex="0539"/>
  <note>
	uni0539
  </note>
  <outline>
    <contour>
      <point x="657" y="-29"/>
      <point x="576" y="4"/>
      <point x="516" y="76" type="curve" smooth="yes"/>
      <point x="456" y="148"/>
      <point x="421" y="258"/>
      <point x="421" y="415" type="curve" smooth="yes"/>
      <point x="421" y="572"/>
      <point x="456" y="686"/>
      <point x="516" y="762" type="curve" smooth="yes"/>
      <point x="576" y="838"/>
      <point x="658" y="875"/>
      <point x="754" y="875" type="curve" smooth="yes"/>
      <point x="892" y="875" type="line"/>
      <point x="892" y="899" type="line" smooth="yes"/>
      <point x="892" y="1070"/>
      <point x="875" y="1177"/>
      <point x="830" y="1250" type="curve" smooth="yes"/>
      <point x="783" y="1325"/>
      <point x="707" y="1356"/>
      <point x="582" y="1356" type="curve" smooth="yes"/>
      <point x="459" y="1356"/>
      <point x="382" y="1326"/>
      <point x="334" y="1254" type="curve" smooth="yes"/>
      <point x="286" y="1182"/>
      <point x="269" y="1070"/>
      <point x="269" y="909" type="curve" smooth="yes"/>
      <point x="269" y="0" type="line"/>
      <point x="73" y="0" type="line"/>
      <point x="73" y="934" type="line" smooth="yes"/>
      <point x="73" y="1127"/>
      <point x="118" y="1274"/>
      <point x="208" y="1374" type="curve" smooth="yes"/>
      <point x="296" y="1471"/>
      <point x="422" y="1520"/>
      <point x="581" y="1520" type="curve" smooth="yes"/>
      <point x="744" y="1520"/>
      <point x="870" y="1468"/>
      <point x="955" y="1371" type="curve" smooth="yes"/>
      <point x="1042" y="1272"/>
      <point x="1089" y="1126"/>
      <point x="1089" y="927" type="curve" smooth="yes"/>
      <point x="1089" y="875" type="line"/>
      <point x="1220" y="875" type="line"/>
      <point x="1220" y="700" type="line"/>
      <point x="1089" y="700" type="line"/>
      <point x="1089" y="415" type="line" smooth="yes"/>
      <point x="1089" y="271"/>
      <point x="1055" y="163"/>
      <point x="995" y="87" type="curve" smooth="yes"/>
      <point x="932" y="7"/>
      <point x="849" y="-29"/>
      <point x="750" y="-29" type="curve" smooth="yes"/>
    </contour>
    <contour>
      <point x="799" y="135"/>
      <point x="834" y="151"/>
      <point x="858" y="196" type="curve" smooth="yes"/>
      <point x="881" y="239"/>
      <point x="892" y="307"/>
      <point x="892" y="415" type="curve" smooth="yes"/>
      <point x="892" y="700" type="line"/>
      <point x="754" y="700" type="line" smooth="yes"/>
      <point x="706" y="700"/>
      <point x="674" y="685"/>
      <point x="651" y="642" type="curve" smooth="yes"/>
      <point x="628" y="599"/>
      <point x="624" y="539"/>
      <point x="621" y="493" type="curve" smooth="yes"/>
      <point x="620" y="470"/>
      <point x="619" y="443"/>
      <point x="619" y="413" type="curve" smooth="yes"/>
      <point x="619" y="304"/>
      <point x="629" y="234"/>
      <point x="652" y="191" type="curve" smooth="yes"/>
      <point x="676" y="146"/>
      <point x="713" y="135"/>
      <point x="752" y="135" type="curve" smooth="yes"/>
    </contour>
  </outline>
</glyph>
<glyph name="uni0541" format="1">
  <advance width="1233"/>
  <unicode hex="0541"/>
  <note>
	uni0541
  </note>
  <outline>
    <contour>
      <point x="982" y="-48" type="line"/>
      <point x="935" y="24"/>
      <point x="887" y="88"/>
      <point x="839" y="148" type="curve"/>
      <point x="722" y="36"/>
      <point x="585" y="-29"/>
      <point x="433" y="-29" type="curve" smooth="yes"/>
      <point x="341" y="-29"/>
      <point x="260" y="-5"/>
      <point x="200" y="46" type="curve" smooth="yes"/>
      <point x="143" y="95"/>
      <point x="110" y="169"/>
      <point x="110" y="265" type="curve" smooth="yes"/>
      <point x="110" y="361"/>
      <point x="143" y="437"/>
      <point x="200" y="490" type="curve" smooth="yes"/>
      <point x="256" y="542"/>
      <point x="338" y="570"/>
      <point x="435" y="570" type="curve" smooth="yes"/>
      <point x="572" y="570"/>
      <point x="700" y="515"/>
      <point x="817" y="427" type="curve"/>
      <point x="890" y="570"/>
      <point x="925" y="717"/>
      <point x="925" y="901" type="curve" smooth="yes"/>
      <point x="925" y="1054"/>
      <point x="901" y="1179"/>
      <point x="850" y="1252" type="curve" smooth="yes"/>
      <point x="797" y="1329"/>
      <point x="711" y="1356"/>
      <point x="611" y="1356" type="curve" smooth="yes"/>
      <point x="504" y="1356"/>
      <point x="426" y="1326"/>
      <point x="374" y="1253" type="curve" smooth="yes"/>
      <point x="322" y="1180"/>
      <point x="298" y="1066"/>
      <point x="298" y="895" type="curve" smooth="yes"/>
      <point x="298" y="873" type="line"/>
      <point x="95" y="873" type="line"/>
      <point x="95" y="895" type="line" smooth="yes"/>
      <point x="95" y="1126"/>
      <point x="152" y="1280"/>
      <point x="244" y="1380" type="curve" smooth="yes"/>
      <point x="336" y="1479"/>
      <point x="465" y="1520"/>
      <point x="609" y="1520" type="curve" smooth="yes"/>
      <point x="756" y="1520"/>
      <point x="888" y="1478"/>
      <point x="981" y="1382" type="curve" smooth="yes"/>
      <point x="1077" y="1283"/>
      <point x="1136" y="1125"/>
      <point x="1136" y="901" type="curve" smooth="yes"/>
      <point x="1136" y="661"/>
      <point x="1068" y="459"/>
      <point x="961" y="295" type="curve"/>
      <point x="1029" y="222"/>
      <point x="1087" y="142"/>
      <point x="1138" y="54" type="curve"/>
    </contour>
    <contour>
      <point x="529" y="133"/>
      <point x="628" y="183"/>
      <point x="715" y="279" type="curve"/>
      <point x="623" y="362"/>
      <point x="527" y="408"/>
      <point x="440" y="408" type="curve" smooth="yes"/>
      <point x="349" y="408"/>
      <point x="300" y="357"/>
      <point x="300" y="269" type="curve" smooth="yes"/>
      <point x="300" y="182"/>
      <point x="347" y="133"/>
      <point x="438" y="133" type="curve" smooth="yes"/>
    </contour>
  </outline>
</glyph>
<glyph name="uni0559" format="1">
  <advance width="1233"/>
  <unicode hex="0559"/>
  <note>
	uni0559
  </note>
  <outline>
    <contour>
      <point x="754" y="1007" type="line"/>
      <point x="677" y="1007"/>
      <point x="608" y="1038"/>
      <point x="559" y="1087" type="curve" smooth="yes"/>
      <point x="510" y="1136"/>
      <point x="480" y="1206"/>
      <point x="480" y="1282" type="curve" smooth="yes"/>
      <point x="480" y="1358"/>
      <point x="510" y="1427"/>
      <point x="559" y="1476" type="curve" smooth="yes"/>
      <point x="608" y="1525"/>
      <point x="677" y="1556"/>
      <point x="754" y="1556" type="curve"/>
      <point x="754" y="1433" type="line"/>
      <point x="711" y="1433"/>
      <point x="674" y="1416"/>
      <point x="647" y="1389" type="curve" smooth="yes"/>
      <point x="619" y="1362"/>
      <point x="602" y="1323"/>
      <point x="602" y="1282" type="curve" smooth="yes"/>
      <point x="602" y="1239"/>
      <point x="619" y="1202"/>
      <point x="647" y="1175" type="curve"/>
      <point x="674" y="1147"/>
      <point x="711" y="1130"/>
      <point x="754" y="1130" type="curve"/>
    </contour>
  </outline>
</glyph>
<glyph name="uni0563" format="1">
  <advance width="1233"/>
  <unicode hex="0563"/>
  <note>
	uni0563
  </note>
  <outline>
    <contour>
      <point x="806" y="139" type="line"/>
      <point x="746" y="26"/>
      <point x="645" y="-33"/>
      <point x="506" y="-33" type="curve" smooth="yes"/>
      <point x="373" y="-33"/>
      <point x="265" y="23"/>
      <point x="189" y="124" type="curve" smooth="yes"/>
      <point x="113" y="227"/>
      <point x="73" y="369"/>
      <point x="73" y="552" type="curve" smooth="yes"/>
      <point x="73" y="736"/>
      <point x="113" y="882"/>
      <point x="189" y="985" type="curve" smooth="yes"/>
      <point x="265" y="1088"/>
      <point x="373" y="1143"/>
      <point x="506" y="1143" type="curve" smooth="yes"/>
      <point x="642" y="1143"/>
      <point x="745" y="1086"/>
      <point x="806" y="973" type="curve"/>
      <point x="824" y="1120" type="line"/>
      <point x="991" y="1120" type="line"/>
      <point x="991" y="143" type="line"/>
      <point x="1159" y="143" type="line"/>
      <point x="1159" y="0" type="line"/>
      <point x="991" y="0" type="line"/>
      <point x="991" y="-426" type="line"/>
      <point x="806" y="-426" type="line"/>
    </contour>
    <contour>
      <point x="716" y="123"/>
      <point x="806" y="268"/>
      <point x="806" y="555" type="curve" smooth="yes"/>
      <point x="806" y="842"/>
      <point x="716" y="987"/>
      <point x="536" y="987" type="curve" smooth="yes"/>
      <point x="357" y="987"/>
      <point x="268" y="842"/>
      <point x="268" y="555" type="curve" smooth="yes"/>
      <point x="268" y="267"/>
      <point x="357" y="123"/>
      <point x="536" y="123" type="curve" smooth="yes"/>
    </contour>
  </outline>
</glyph>
<glyph name="uni056F" format="1">
  <advance width="1233"/>
  <unicode hex="056F"/>
  <note>
	uni056F
  </note>
  <outline>
    <contour>
      <point x="859" y="168" type="line"/>
      <point x="794" y="39"/>
      <point x="682" y="-29"/>
      <point x="526" y="-29" type="curve" smooth="yes"/>
      <point x="295" y="-29"/>
      <point x="188" y="119"/>
      <point x="188" y="424" type="curve" smooth="yes"/>
      <point x="188" y="1556" type="line"/>
      <point x="372" y="1556" type="line"/>
      <point x="372" y="424" type="line" smooth="yes"/>
      <point x="372" y="223"/>
      <point x="442" y="131"/>
      <point x="591" y="131" type="curve" smooth="yes"/>
      <point x="767" y="131"/>
      <point x="859" y="254"/>
      <point x="859" y="485" type="curve" smooth="yes"/>
      <point x="859" y="1120" type="line"/>
      <point x="1044" y="1120" type="line"/>
      <point x="1044" y="-426" type="line"/>
      <point x="859" y="-426" type="line"/>
    </contour>
  </outline>
</glyph>
<glyph name="uni0573" format="1">
  <advance width="1233"/>
  <unicode hex="0573"/>
  <note>
	uni0573
  </note>
  <outline>
    <contour>
      <point x="425" y="-29"/>
      <point x="340" y="17"/>
      <point x="280" y="92" type="curve" smooth="yes"/>
      <point x="219" y="168"/>
      <point x="189" y="263"/>
      <point x="189" y="410" type="curve" smooth="yes"/>
      <point x="189" y="491"/>
      <point x="198" y="587"/>
      <point x="217" y="686" type="curve" smooth="yes"/>
      <point x="236" y="785"/>
      <point x="263" y="885"/>
      <point x="299" y="977" type="curve"/>
      <point x="154" y="977" type="line"/>
      <point x="154" y="1120" type="line"/>
      <point x="364" y="1120" type="line"/>
      <point x="432" y="1245"/>
      <point x="514" y="1354"/>
      <point x="614" y="1433" type="curve" smooth="yes"/>
      <point x="714" y="1512"/>
      <point x="831" y="1556"/>
      <point x="956" y="1556" type="curve" smooth="yes"/>
      <point x="974" y="1556"/>
      <point x="991" y="1555"/>
      <point x="1007" y="1553" type="curve" smooth="yes"/>
      <point x="1014" y="1552"/>
      <point x="1021" y="1551"/>
      <point x="1027" y="1550" type="curve" smooth="yes"/>
      <point x="1033" y="1549"/>
      <point x="1039" y="1547"/>
      <point x="1044" y="1545" type="curve"/>
      <point x="1044" y="1394" type="line"/>
      <point x="1017" y="1406"/>
      <point x="977" y="1413"/>
      <point x="942" y="1413" type="curve" smooth="yes"/>
      <point x="866" y="1413"/>
      <point x="793" y="1380"/>
      <point x="732" y="1333" type="curve" smooth="yes"/>
      <point x="667" y="1282"/>
      <point x="601" y="1207"/>
      <point x="549" y="1116" type="curve"/>
      <point x="710" y="1103"/>
      <point x="838" y="1049"/>
      <point x="929" y="960" type="curve" smooth="yes"/>
      <point x="1020" y="871"/>
      <point x="1069" y="749"/>
      <point x="1069" y="596" type="curve" smooth="yes"/>
      <point x="1069" y="0" type="line"/>
      <point x="903" y="0" type="line"/>
      <point x="885" y="168" type="line"/>
      <point x="853" y="108"/>
      <point x="813" y="61"/>
      <point x="758" y="26" type="curve" smooth="yes"/>
      <point x="703" y="-9"/>
      <point x="637" y="-29"/>
      <point x="553" y="-29" type="curve" smooth="yes"/>
    </contour>
    <contour>
      <point x="718" y="131"/>
      <point x="783" y="175"/>
      <point x="826" y="240" type="curve" smooth="yes"/>
      <point x="869" y="304"/>
      <point x="885" y="389"/>
      <point x="885" y="470" type="curve" smooth="yes"/>
      <point x="885" y="609" type="line" smooth="yes"/>
      <point x="885" y="710"/>
      <point x="856" y="798"/>
      <point x="791" y="862" type="curve" smooth="yes"/>
      <point x="726" y="926"/>
      <point x="624" y="966"/>
      <point x="479" y="975" type="curve"/>
      <point x="444" y="894"/>
      <point x="418" y="804"/>
      <point x="401" y="713" type="curve" smooth="yes"/>
      <point x="384" y="622"/>
      <point x="374" y="532"/>
      <point x="374" y="451" type="curve" smooth="yes"/>
      <point x="374" y="380"/>
      <point x="381" y="328"/>
      <point x="394" y="288" type="curve" smooth="yes"/>
      <point x="406" y="247"/>
      <point x="424" y="219"/>
      <point x="447" y="195" type="curve" smooth="yes"/>
      <point x="489" y="152"/>
      <point x="545" y="131"/>
      <point x="614" y="131" type="curve" smooth="yes"/>
    </contour>
  </outline>
</glyph>
<glyph name="uni057D" format="1">
  <advance width="1233"/>
  <unicode hex="057D"/>
  <note>
	uni057D
  </note>
  <outline>
    <contour>
      <point x="299" y="-29"/>
      <point x="189" y="119"/>
      <point x="189" y="424" type="curve" smooth="yes"/>
      <point x="189" y="1118" type="line"/>
      <point x="373" y="1118" type="line"/>
      <point x="373" y="424" type="line" smooth="yes"/>
      <point x="373" y="223"/>
      <point x="443" y="131"/>
      <point x="592" y="131" type="curve" smooth="yes"/>
      <point x="767" y="131"/>
      <point x="860" y="256"/>
      <point x="860" y="485" type="curve" smooth="yes"/>
      <point x="860" y="1118" type="line"/>
      <point x="1045" y="1118" type="line"/>
      <point x="1045" y="0" type="line"/>
      <point x="878" y="0" type="line"/>
      <point x="860" y="168" type="line"/>
      <point x="795" y="39"/>
      <point x="681" y="-29"/>
      <point x="528" y="-29" type="curve" smooth="yes"/>
    </contour>
  </outline>
</glyph>
<glyph name="uni0584" format="1">
  <advance width="1233"/>
  <unicode hex="0584"/>
  <note>
	uni0584
  </note>
  <outline>
    <contour>
      <point x="199" y="-327" type="line"/>
      <point x="79" y="-327" type="line"/>
      <point x="79" y="-184" type="line"/>
      <point x="199" y="-184" type="line"/>
      <point x="199" y="1120" type="line"/>
      <point x="366" y="1120" type="line"/>
      <point x="384" y="977" type="line"/>
      <point x="445" y="1090"/>
      <point x="548" y="1147"/>
      <point x="684" y="1147" type="curve" smooth="yes"/>
      <point x="817" y="1147"/>
      <point x="925" y="1092"/>
      <point x="1001" y="989" type="curve" smooth="yes"/>
      <point x="1077" y="886"/>
      <point x="1117" y="740"/>
      <point x="1117" y="555" type="curve" smooth="yes"/>
      <point x="1117" y="376"/>
      <point x="1079" y="232"/>
      <point x="1002" y="128" type="curve" smooth="yes"/>
      <point x="926" y="27"/>
      <point x="820" y="-29"/>
      <point x="683" y="-29" type="curve" smooth="yes"/>
      <point x="544" y="-29"/>
      <point x="445" y="28"/>
      <point x="384" y="141" type="curve"/>
      <point x="384" y="-184" type="line"/>
      <point x="1138" y="-184" type="line"/>
      <point x="1138" y="-327" type="line"/>
      <point x="384" y="-327" type="line"/>
      <point x="384" y="-426" type="line"/>
      <point x="199" y="-426" type="line"/>
    </contour>
    <contour>
      <point x="835" y="127"/>
      <point x="924" y="271"/>
      <point x="924" y="559" type="curve" smooth="yes"/>
      <point x="924" y="847"/>
      <point x="835" y="991"/>
      <point x="656" y="991" type="curve" smooth="yes"/>
      <point x="475" y="991"/>
      <point x="384" y="846"/>
      <point x="384" y="559" type="curve" smooth="yes"/>
      <point x="384" y="272"/>
      <point x="475" y="127"/>
      <point x="656" y="127" type="curve" smooth="yes"/>
    </contour>
  </outline>
</glyph>
<glyph name="uni0E3F" format="1">
  <advance width="1233"/>
  <unicode hex="0E3F"/>
  <note>
	uni0E3F
  </note>
  <outline>
    <contour>
      <point x="560" y="0" type="line"/>
      <point x="184" y="0" type="line"/>
      <point x="184" y="1306" type="line"/>
      <point x="560" y="1306" type="line"/>
      <point x="560" y="1556" type="line"/>
      <point x="660" y="1556" type="line"/>
      <point x="660" y="1305" type="line"/>
      <point x="780" y="1298"/>
      <point x="882" y="1271"/>
      <point x="954" y="1217" type="curve" smooth="yes"/>
      <point x="1026" y="1163"/>
      <point x="1069" y="1082"/>
      <point x="1069" y="971" type="curve" smooth="yes"/>
      <point x="1069" y="810"/>
      <point x="981" y="722"/>
      <point x="817" y="699" type="curve"/>
      <point x="1010" y="672"/>
      <point x="1120" y="547"/>
      <point x="1120" y="356" type="curve" smooth="yes"/>
      <point x="1120" y="125"/>
      <point x="953" y="12"/>
      <point x="660" y="1" type="curve"/>
      <point x="660" y="-301" type="line"/>
      <point x="560" y="-301" type="line"/>
    </contour>
    <contour>
      <point x="560" y="767" type="line"/>
      <point x="560" y="1161" type="line"/>
      <point x="380" y="1161" type="line"/>
      <point x="380" y="767" type="line"/>
    </contour>
    <contour>
      <point x="660" y="769" type="line"/>
      <point x="721" y="774"/>
      <point x="776" y="788"/>
      <point x="813" y="819" type="curve" smooth="yes"/>
      <point x="850" y="850"/>
      <point x="873" y="898"/>
      <point x="873" y="971" type="curve" smooth="yes"/>
      <point x="873" y="1039"/>
      <point x="854" y="1084"/>
      <point x="818" y="1113" type="curve" smooth="yes"/>
      <point x="781" y="1141"/>
      <point x="728" y="1155"/>
      <point x="660" y="1159" type="curve"/>
    </contour>
    <contour>
      <point x="560" y="145" type="line"/>
      <point x="560" y="624" type="line"/>
      <point x="380" y="624" type="line"/>
      <point x="380" y="145" type="line"/>
    </contour>
    <contour>
      <point x="660" y="146" type="line"/>
      <point x="748" y="150"/>
      <point x="814" y="167"/>
      <point x="858" y="203" type="curve" smooth="yes"/>
      <point x="902" y="239"/>
      <point x="924" y="294"/>
      <point x="924" y="375" type="curve" smooth="yes"/>
      <point x="924" y="462"/>
      <point x="898" y="521"/>
      <point x="853" y="560" type="curve" smooth="yes"/>
      <point x="808" y="599"/>
      <point x="741" y="617"/>
      <point x="660" y="622" type="curve"/>
    </contour>
  </outline>
</glyph>
<glyph name="uni10D5" format="1">
  <advance width="1233"/>
  <unicode hex="10D5"/>
  <note>
	uni10D5
  </note>
  <outline>
    <contour>
      <point x="468" y="-425"/>
      <point x="351" y="-388"/>
      <point x="274" y="-322" type="curve" smooth="yes"/>
      <point x="197" y="-256"/>
      <point x="158" y="-162"/>
      <point x="158" y="-43" type="curve" smooth="yes"/>
      <point x="158" y="0"/>
      <point x="163" y="33"/>
      <point x="179" y="68" type="curve" smooth="yes"/>
      <point x="195" y="103"/>
      <point x="221" y="138"/>
      <point x="265" y="185" type="curve"/>
      <point x="457" y="185" type="line"/>
      <point x="412" y="134"/>
      <point x="383" y="98"/>
      <point x="367" y="65" type="curve" smooth="yes"/>
      <point x="350" y="32"/>
      <point x="345" y="1"/>
      <point x="345" y="-36" type="curve" smooth="yes"/>
      <point x="345" y="-189"/>
      <point x="434" y="-283"/>
      <point x="625" y="-283" type="curve" smooth="yes"/>
      <point x="794" y="-283"/>
      <point x="890" y="-209"/>
      <point x="890" y="-60" type="curve" smooth="yes"/>
      <point x="890" y="38" type="line" smooth="yes"/>
      <point x="890" y="200"/>
      <point x="811" y="281"/>
      <point x="653" y="281" type="curve" smooth="yes"/>
      <point x="580" y="281" type="line"/>
      <point x="580" y="421" type="line"/>
      <point x="653" y="421" type="line" smooth="yes"/>
      <point x="729" y="421"/>
      <point x="785" y="451"/>
      <point x="823" y="496" type="curve" smooth="yes"/>
      <point x="861" y="541"/>
      <point x="879" y="602"/>
      <point x="879" y="666" type="curve" smooth="yes"/>
      <point x="879" y="725"/>
      <point x="864" y="784"/>
      <point x="825" y="829" type="curve" smooth="yes"/>
      <point x="785" y="873"/>
      <point x="724" y="903"/>
      <point x="632" y="903" type="curve" smooth="yes"/>
      <point x="564" y="903"/>
      <point x="504" y="886"/>
      <point x="462" y="853" type="curve" smooth="yes"/>
      <point x="420" y="820"/>
      <point x="394" y="769"/>
      <point x="394" y="702" type="curve" smooth="yes"/>
      <point x="394" y="650"/>
      <point x="409" y="576"/>
      <point x="440" y="493" type="curve"/>
      <point x="279" y="493" type="line"/>
      <point x="239" y="548"/>
      <point x="219" y="617"/>
      <point x="219" y="701" type="curve" smooth="yes"/>
      <point x="219" y="930"/>
      <point x="370" y="1045"/>
      <point x="639" y="1045" type="curve" smooth="yes"/>
      <point x="928" y="1045"/>
      <point x="1066" y="912"/>
      <point x="1066" y="676" type="curve" smooth="yes"/>
      <point x="1066" y="593"/>
      <point x="1049" y="530"/>
      <point x="1012" y="479" type="curve" smooth="yes"/>
      <point x="975" y="428"/>
      <point x="918" y="388"/>
      <point x="837" y="355" type="curve"/>
      <point x="837" y="335" type="line"/>
      <point x="995" y="306"/>
      <point x="1074" y="205"/>
      <point x="1074" y="34" type="curve" smooth="yes"/>
      <point x="1074" y="-45" type="line" smooth="yes"/>
      <point x="1074" y="-300"/>
      <point x="917" y="-425"/>
      <point x="624" y="-425" type="curve" smooth="yes"/>
    </contour>
  </outline>
</glyph>
<glyph name="uni10D6" format="1">
  <advance width="1233"/>
  <unicode hex="10D6"/>
  <note>
	uni10D6
  </note>
  <outline>
    <contour>
      <point x="335" y="0"/>
      <point x="183" y="168"/>
      <point x="183" y="503" type="curve" smooth="yes"/>
      <point x="183" y="724"/>
      <point x="250" y="859"/>
      <point x="383" y="908" type="curve"/>
      <point x="383" y="928" type="line"/>
      <point x="240" y="971"/>
      <point x="184" y="1067"/>
      <point x="184" y="1224" type="curve" smooth="yes"/>
      <point x="184" y="1444"/>
      <point x="294" y="1556"/>
      <point x="525" y="1556" type="curve" smooth="yes"/>
      <point x="753" y="1556"/>
      <point x="866" y="1446"/>
      <point x="866" y="1239" type="curve" smooth="yes"/>
      <point x="866" y="1130"/>
      <point x="834" y="1050"/>
      <point x="773" y="993" type="curve"/>
      <point x="773" y="973" type="line"/>
      <point x="990" y="943"/>
      <point x="1099" y="787"/>
      <point x="1099" y="505" type="curve" smooth="yes"/>
      <point x="1099" y="168"/>
      <point x="946" y="0"/>
      <point x="640" y="0" type="curve" smooth="yes"/>
    </contour>
    <contour>
      <point x="653" y="983"/>
      <point x="709" y="1061"/>
      <point x="709" y="1189" type="curve" smooth="yes"/>
      <point x="709" y="1270"/>
      <point x="686" y="1327"/>
      <point x="653" y="1363" type="curve" smooth="yes"/>
      <point x="620" y="1399"/>
      <point x="574" y="1415"/>
      <point x="530" y="1415" type="curve" smooth="yes"/>
      <point x="485" y="1415"/>
      <point x="439" y="1398"/>
      <point x="406" y="1362" type="curve" smooth="yes"/>
      <point x="373" y="1325"/>
      <point x="351" y="1269"/>
      <point x="351" y="1192" type="curve" smooth="yes"/>
      <point x="351" y="1061"/>
      <point x="412" y="983"/>
      <point x="533" y="983" type="curve" smooth="yes"/>
    </contour>
    <contour>
      <point x="822" y="145"/>
      <point x="914" y="273"/>
      <point x="914" y="493" type="curve" smooth="yes"/>
      <point x="914" y="626"/>
      <point x="881" y="723"/>
      <point x="830" y="785" type="curve" smooth="yes"/>
      <point x="778" y="847"/>
      <point x="711" y="875"/>
      <point x="643" y="875" type="curve" smooth="yes"/>
      <point x="575" y="875"/>
      <point x="507" y="847"/>
      <point x="456" y="785" type="curve" smooth="yes"/>
      <point x="405" y="723"/>
      <point x="371" y="626"/>
      <point x="371" y="491" type="curve" smooth="yes"/>
      <point x="371" y="271"/>
      <point x="461" y="145"/>
      <point x="641" y="145" type="curve" smooth="yes"/>
    </contour>
  </outline>
</glyph>
<glyph name="uni10D7" format="1">
  <advance width="1233"/>
  <unicode hex="10D7"/>
  <note>
	uni10D7
  </note>
  <outline>
    <contour>
      <point x="177" y="0"/>
      <point x="45" y="174"/>
      <point x="45" y="519" type="curve" smooth="yes"/>
      <point x="45" y="549" type="line" smooth="yes"/>
      <point x="45" y="872"/>
      <point x="171" y="1035"/>
      <point x="419" y="1035" type="curve" smooth="yes"/>
      <point x="518" y="1035"/>
      <point x="590" y="1009"/>
      <point x="643" y="936" type="curve"/>
      <point x="657" y="936" type="line"/>
      <point x="714" y="1011"/>
      <point x="775" y="1035"/>
      <point x="855" y="1035" type="curve" smooth="yes"/>
      <point x="1056" y="1035"/>
      <point x="1168" y="885"/>
      <point x="1168" y="584" type="curve" smooth="yes"/>
      <point x="1168" y="517" type="line" smooth="yes"/>
      <point x="1168" y="284"/>
      <point x="1088" y="111"/>
      <point x="929" y="0" type="curve"/>
      <point x="767" y="0" type="line"/>
      <point x="908" y="116"/>
      <point x="979" y="281"/>
      <point x="979" y="496" type="curve" smooth="yes"/>
      <point x="979" y="613" type="line" smooth="yes"/>
      <point x="979" y="800"/>
      <point x="935" y="894"/>
      <point x="847" y="894" type="curve" smooth="yes"/>
      <point x="814" y="894" type="line" smooth="yes"/>
      <point x="759" y="894"/>
      <point x="731" y="833"/>
      <point x="731" y="712" type="curve" smooth="yes"/>
      <point x="731" y="492" type="line" smooth="yes"/>
      <point x="731" y="153"/>
      <point x="628" y="0"/>
      <point x="409" y="0" type="curve" smooth="yes"/>
    </contour>
    <contour>
      <point x="515" y="145"/>
      <point x="570" y="226"/>
      <point x="570" y="388" type="curve" smooth="yes"/>
      <point x="570" y="749" type="line" smooth="yes"/>
      <point x="570" y="799"/>
      <point x="565" y="836"/>
      <point x="554" y="859" type="curve" smooth="yes"/>
      <point x="543" y="882"/>
      <point x="525" y="894"/>
      <point x="502" y="894" type="curve" smooth="yes"/>
      <point x="415" y="893" type="line" smooth="yes"/>
      <point x="294" y="892"/>
      <point x="235" y="808"/>
      <point x="235" y="621" type="curve" smooth="yes"/>
      <point x="235" y="432" type="line" smooth="yes"/>
      <point x="235" y="235"/>
      <point x="289" y="145"/>
      <point x="405" y="145" type="curve" smooth="yes"/>
    </contour>
  </outline>
</glyph>
